<?xml version="1.0" encoding="utf-8"?>
<!-- Generator: Adobe Illustrator 16.0.0, SVG Export Plug-In . SVG Version: 6.00 Build 0)  -->
<!DOCTYPE svg PUBLIC "-//W3C//DTD SVG 1.1//EN" "http://www.w3.org/Graphics/SVG/1.1/DTD/svg11.dtd">
<svg version="1.1" id="Layer_1" xmlns="http://www.w3.org/2000/svg" xmlns:xlink="http://www.w3.org/1999/xlink" x="0px" y="0px"
	 width="2000px" height="2000px" viewBox="0 0 2000 2000" enable-background="new 0 0 2000 2000" xml:space="preserve">
<path fill="#010101" d="M63.608,1408.798c-5.217,61.044-22.198,131.832-7.17,191.899c6.49,26.058,18.534,57.172,32.247,90.6
	c6.488,1.339,13.044,2.361,19.653,2.868c-0.996-0.136,7.853,0.18,8.864,0.155c3.172-0.077,6.347-0.157,9.514-0.385
	c6.001-0.432,11.714-1.035,17.248-1.814c21.03-6.539,42.338-12.374,63.631-18.113c2.548-1.029,5.125-2.086,7.771-3.199
	c42.583-17.915,82.171-41.762,121.864-67.613c4.033-5.197,7.963-10.49,11.855-15.822c-33.581-64.5-60.347-132.857-60.347-220.618
	c0-18.935-7.192-103.108-5.216-160.179c0.977-31.011-40.777-32.964-40.777-3.951c0,16.004-20.244,148.192-25.15,170.035
	c-4.884,22.197-17.936,82.22-30.011,94.961c-31.987-80.999-40.134-260.091-40.134-342.954c0-89.125-26.471-215.74,23.152-283.244
	c101.71-138.359,46.971-242.111,81.91-242.111c0-11.076,74.051-62.974,85.172-62.974c18.913-42.087,20.843-84.174,38.802-84.174
	c0-26.749,41.132-36.871,60.044-43.729c42.065-31.321,175.229-18.247,206.217-18.247c25.128,50.233,41.11,119.113,45.018,268.193
	l-0.978,194.142c3.952,52.853,51.876,57.115,51.876,0l0.977-270.169c0-55.139,22.198-151.056,34.273-176.162
	c26.793-55.783,45.994-54.806,73.742-7.836c35.25,56.116,49.279,183.998,49.279,225.129c5.859,40.778,47.947,36.893,46.016,0
	c0-58.091,32.941-224.174,86.771-269.169c29.08-24.152,58.092-26.105,123.353-23.175c10.767,16.338,19.891,50.234,24.796,81.267
	c11.1,65.905,18.935,132.121,18.935,167.038c0,45.995,48.303,54.828,48.303-1.931c0-50.278,5.882-130.189,8.79-147.171
	c5.194-28.08,9.168-73.119,37.225-87.104c44.019-22.863,131.833-10.788,152.033,28.059c47.016,91.965,77.026,257.094,69.834,374.231
	c-2.908,64.907,54.141,59.046,54.141,0c0-32.986,0.977-111.255,11.121-137.048c15.027-38.136,35.895-108.969,63.951-119.069
	c8.79-71.166,80.264-57.838,127.212-64.099c54.207-5.837,178.456-20.851,156.511-59.94
	c-106.561-189.81-156.511-96.57-706.967-155.32c-59.269-6.326-299.204,9.124-371.302,40.134l-409.171,3.907
	c-97.892,0-202.954,28.103-281.912,76.027c-54.14,97.271-85.15,223.199-99.179,305.441c-16.981,102.776,44.041,263.976-8.812,376.83
	C46.627,1146.509,74.33,1268.553,63.608,1408.798z"/>
<path fill="#010101" d="M1534.426,1561.128c-22.586,0-44.133-5.118-63.458-14.032c-19.71-9.06-42.068-14.528-65.431-14.528
	c-23.434,0-45.782,5.511-65.522,14.528c-19.306,8.914-40.86,14.032-63.459,14.032c-22.586,0-44.214-5.118-63.459-14.032
	c-20.049-9.06-42.409-14.528-65.511-14.528c-23.353,0-45.724,5.511-65.545,14.528c-19.224,8.914-41.088,14.032-63.449,14.032
	c-22.607,0-44.141-5.118-63.633-14.032c-19.812-9.06-42.1-14.528-65.254-14.528c-23.361,0-45.731,5.511-65.542,14.528
	c-19.235,8.914-41.1,14.032-63.718,14.032c-22.268,0-44.133-5.118-63.377-14.032c-19.801-9.06-42.162-14.528-65.523-14.528
	c-23.186,0-45.452,5.511-65.274,14.528c-19.554,8.914-41.089,14.032-63.707,14.032v-96.291c22.598,0,44.143-5.253,63.707-13.817
	c19.822-9.308,42.088-14.786,65.274-14.786c23.361,0,45.722,5.47,65.523,14.786c19.244,8.564,41.099,13.817,63.377,13.817
	c22.598,0,44.482-5.253,63.718-13.817c19.801-9.308,42.17-14.786,65.542-14.786c23.155,0,45.442,5.47,65.254,14.786
	c19.501,8.564,41.026,13.817,63.633,13.817c22.361,0,44.226-5.253,63.449-13.817c19.821-9.308,42.192-14.786,65.545-14.786
	c23.091,0,45.441,5.47,65.511,14.786c19.245,8.564,40.873,13.817,63.459,13.817c22.599,0,44.153-5.253,63.459-13.817
	c19.74-9.308,42.089-14.786,65.522-14.786c23.362,0,45.721,5.47,65.431,14.786c19.325,8.564,40.872,13.817,63.458,13.817V1561.128z"
	/>
<path fill="#010101" d="M1534.426,1694.321c-22.586,0-44.133-5.118-63.458-14.033c-19.71-9.059-42.068-14.528-65.431-14.528
	c-23.434,0-45.782,5.509-65.522,14.528c-19.306,8.915-40.86,14.033-63.459,14.033c-22.586,0-44.214-5.118-63.459-14.033
	c-20.049-9.059-42.409-14.528-65.511-14.528c-23.353,0-45.724,5.509-65.545,14.528c-19.224,8.915-41.088,14.033-63.449,14.033
	c-22.607,0-44.141-5.118-63.633-14.033c-19.812-9.059-42.1-14.528-65.254-14.528c-23.361,0-45.731,5.509-65.542,14.528
	c-19.235,8.915-41.1,14.033-63.718,14.033c-22.268,0-44.133-5.118-63.377-14.033c-19.801-9.059-42.162-14.528-65.523-14.528
	c-23.186,0-45.452,5.509-65.274,14.528c-19.554,8.915-41.089,14.033-63.707,14.033v-96.291c22.598,0,44.143-5.253,63.707-13.817
	c19.822-9.308,42.088-14.787,65.274-14.787c23.361,0,45.722,5.469,65.523,14.787c19.244,8.564,41.099,13.817,63.377,13.817
	c22.598,0,44.482-5.253,63.718-13.817c19.801-9.308,42.17-14.787,65.542-14.787c23.155,0,45.442,5.469,65.254,14.787
	c19.501,8.564,41.026,13.817,63.633,13.817c22.361,0,44.226-5.253,63.449-13.817c19.821-9.308,42.192-14.787,65.545-14.787
	c23.091,0,45.441,5.469,65.511,14.787c19.245,8.564,40.873,13.817,63.459,13.817c22.599,0,44.153-5.253,63.459-13.817
	c19.74-9.308,42.089-14.787,65.522-14.787c23.362,0,45.721,5.469,65.431,14.787c19.325,8.564,40.872,13.817,63.458,13.817V1694.321z
	"/>
<path fill="#010101" d="M1384.982,1288.729c67.752,0,122.739-55.844,122.739-124.379c0-68.576-54.978-124.162-122.739-124.162
	c-67.896,0-122.8,55.586-122.8,124.162C1262.174,1232.886,1312.237,1288.729,1384.982,1288.729z"/>
<path fill="#010101" d="M670.044,1358.617c9.535,2.322,18.501,5.666,27.055,9.565c19.222,8.803,41.099,14.044,63.387,14.044
	c22.586,0,44.472-5.251,63.706-14.044c19.801-9.079,42.161-14.815,65.522-14.815c23.174,0,45.463,5.736,65.264,14.815
	c19.481,8.803,41.017,14.044,63.625,14.044c22.36,0,44.226-5.251,63.458-14.044c19.812-9.079,42.183-14.815,65.532-14.815
	c23.094,0,45.454,5.736,65.523,14.815c19.244,8.803,40.86,14.044,63.458,14.044c16.43,0,32.308-2.838,47.249-7.564l-204.77-373.633
	l238.152-43.947c34.947-6.748,60.341-34.515,60.341-70.083c0-39.21-31.563-70.63-70.113-70.63c-2.797,0-5.366,0-7.987,0.239
	l-367.875,67.729c-25.817,5.974-60.014,44.204-40.543,91.144c1.074,2.589,2.055,4.994,3.139,7.563l96.013,175.282L670.044,1358.617z
	"/>
</svg>
