<?xml version="1.0" encoding="utf-8"?>
<!-- Generator: Adobe Illustrator 16.0.0, SVG Export Plug-In . SVG Version: 6.00 Build 0)  -->
<!DOCTYPE svg PUBLIC "-//W3C//DTD SVG 1.1//EN" "http://www.w3.org/Graphics/SVG/1.1/DTD/svg11.dtd">
<svg version="1.1" id="Layer_1" xmlns="http://www.w3.org/2000/svg" xmlns:xlink="http://www.w3.org/1999/xlink" x="0px" y="0px"
	 width="2000px" height="2000px" viewBox="0 0 2000 2000" enable-background="new 0 0 2000 2000" xml:space="preserve">
<g>
	<g>
		<g>
			<path d="M1000.484,455.324c-122.934,0-222.957-100.014-222.957-222.948c0-122.934,100.023-222.948,222.957-222.948
				c122.934,0,222.951,100.014,222.951,222.948C1223.435,355.31,1123.418,455.324,1000.484,455.324z M1000.484,71.07
				c-88.947,0-161.315,72.362-161.315,161.306s72.369,161.306,161.315,161.306s161.309-72.362,161.309-161.306
				S1089.431,71.07,1000.484,71.07z"/>
		</g>
	</g>
	<g>
		<g>
			<path d="M904.398,1992.34c-387.782,0-703.267-315.491-703.267-703.268c0-237.523,118.678-457.375,317.472-588.098
				c20.78-13.649,44.846-20.861,69.599-20.861c42.944,0,82.614,21.418,106.127,57.295c18.601,28.262,25.072,62.135,18.204,95.331
				c-6.875,33.199-26.282,61.741-54.646,80.366c-127.1,83.52-202.983,224.067-202.983,375.967
				c0,247.855,201.641,449.496,449.495,449.496c115.247,0,224.745-43.456,308.316-122.35c23.627-22.309,54.55-34.59,87.075-34.59
				c34.799,0,68.425,14.508,92.263,39.797c23.224,24.529,35.517,56.705,34.571,90.541c-0.957,33.916-15.08,65.446-39.771,88.761
				C1255.904,1924.293,1084.566,1992.34,904.398,1992.34z M588.202,741.755c-12.695,0-25.054,3.711-35.745,10.733
				c-181.385,119.277-289.685,319.877-289.685,536.584c0,353.789,287.831,641.626,641.625,641.626
				c164.374,0,320.686-62.081,440.141-174.8c12.707-11.99,19.979-28.214,20.467-45.664c0.487-17.361-5.821-33.867-17.764-46.484
				c-12.467-13.226-29.305-20.479-47.453-20.479c-16.723,0-32.621,6.309-44.757,17.77
				c-95.063,89.741-219.586,139.169-350.634,139.169c-281.841,0-511.137-229.296-511.137-511.138
				c0-172.716,86.274-332.526,230.782-427.49c14.604-9.589,24.59-24.268,28.124-41.34c3.534-17.057,0.205-34.457-9.361-48.998
				C630.695,752.762,610.294,741.755,588.202,741.755z"/>
		</g>
	</g>
	<g>
		<g>
			<g>
				<path d="M1672.9,1704.148c-33.049,0-64.814-12.913-89.435-36.365l-0.578-0.566l-250.364-251.262H904.398
					c-69.973,0-126.895-56.934-126.895-126.906V712.692c0-122.934,100.023-222.948,222.957-222.948
					c122.934,0,222.95,100.014,222.95,222.948v449.499h213.452l326.002,325.038c23.964,23.971,37.142,55.93,37.142,90.03
					c0,34.108-13.178,66.066-37.105,89.982l-0.518,0.505C1737.768,1691.224,1705.99,1704.148,1672.9,1704.148z M1626.248,1623.406
					c13.248,12.496,29.369,19.1,46.652,19.1c17.307,0,33.439-6.604,46.67-19.111c12.124-12.251,18.793-28.618,18.793-46.136
					c0-17.638-6.766-34.119-19.058-46.411l-307.919-307.016H1161.77v-511.14c0-88.944-72.363-161.306-161.31-161.306
					c-88.947,0-161.315,72.362-161.315,161.306v576.357c0,35.986,29.274,65.266,65.253,65.266h453.721L1626.248,1623.406z"/>
			</g>
		</g>
	</g>
</g>
</svg>
