<?xml version="1.0" encoding="utf-8"?>
<!-- Generator: Adobe Illustrator 16.0.0, SVG Export Plug-In . SVG Version: 6.00 Build 0)  -->
<!DOCTYPE svg PUBLIC "-//W3C//DTD SVG 1.1//EN" "http://www.w3.org/Graphics/SVG/1.1/DTD/svg11.dtd">
<svg version="1.1" id="Layer_1" xmlns="http://www.w3.org/2000/svg" xmlns:xlink="http://www.w3.org/1999/xlink" x="0px" y="0px"
	 width="2000px" height="2000px" viewBox="0 0 2000 2000" enable-background="new 0 0 2000 2000" xml:space="preserve">
<g>
	<g>
		<path fill="#2BACE2" d="M652.688,600.118c-43.48,0-83.895-23.775-105.5-62.071c-32.927-58.236-13.092-129.688,45.179-162.641
			c18.382-10.403,39.206-15.903,60.215-15.903c43.129,0,82.986,23.084,104.002,60.242c15.824,27.954,19.721,60.635,10.99,91.996
			c-8.731,31.351-28.934,57.299-56.869,73.08C692.998,594.829,672.943,600.118,652.688,600.118z M652.582,413.307
			c-11.734,0-23.399,3.092-33.715,8.933c-32.018,18.11-42.92,57.36-24.828,89.351c12.094,21.438,34.556,34.731,58.648,34.731
			c11.139,0,21.745-2.802,31.535-8.337c15.458-8.722,26.64-23.164,31.509-40.669c4.868-17.505,2.75-35.643-5.981-51.072
			C698.095,425.612,676.718,413.307,652.582,413.307z"/>
	</g>
	<g>
		<path fill="#2BACE2" d="M495.143,1640.496c-41.799,0-86.259-9.326-128.558-26.971l-1.672-0.771
			c-33.313-16.639-70.077-25.08-109.283-25.08c-39.294,0-76.084,8.441-109.344,25.08l-1.69,0.771
			c-42.263,17.619-86.698,26.938-128.505,26.938v-53.805c34.496,0,71.468-7.77,106.979-22.457
			c40.563-20.131,85.165-30.334,132.551-30.334c47.281,0,91.838,10.213,132.463,30.334c35.546,14.715,72.547,22.49,107.042,22.49
			c21.534,0,42.884-2.617,63.648-7.785c24.197-99.281,44.925-160.004,61.669-180.619c4.991-6.111,15.062-18.418,124.704-86.637
			l0.184-180.252l-197.022-52.43c-37.28-9.869-107.724-50.906-107.338-135.449l1.138-191.33
			c-0.104-6.252-1.217-167.02,115.86-187.196c44.943-7.759,73.088,6.34,88.773,19.564c37.789,31.832,38.812,84.832,38.805,90.778
			l-0.378,34.976l133.628,0.053c0.026,0,0.062,0,0.088,0c15.15,0,29.757,4.405,42.263,12.594
			c0.034-28.164,15.035-55.487,41.421-69.858c0.901-0.49,109.886-60.154,256.476-67.212
			c262.178-12.594,418.39,92.092,480.697,146.01c173.965-13.494,306.507,11.639,312.191,12.742l26.727,5.185l-5.509,26.674
			c-1.708,8.32-47.071,206.857-484.77,499.711c-207.436,138.707-388.187,241.402-519.24,310.332
			c37.122,1.121,76.951-6.471,115.335-22.373c40.52-20.125,85.095-30.328,132.472-30.328c47.246,0,91.802,10.211,132.48,30.316
			c35.501,14.73,72.493,22.518,107.032,22.518c37.533,0,74.366-7.717,106.585-22.307c40.679-20.256,85.374-30.527,132.884-30.527
			c49.241,0,96.321,10.832,132.788,30.512c35.904,14.807,72.808,22.322,109.685,22.322v53.805
			c-44.469,0-88.764-9.092-131.676-26.998l-2.601-1.254c-28.828-15.852-67.256-24.59-108.196-24.59
			c-39.25,0-76.022,8.432-109.273,25.072l-0.884,0.428c-39.269,17.875-83.984,27.332-129.312,27.332
			c-41.843,0-86.312-9.334-128.566-27l-1.628-0.742c-33.376-16.641-70.155-25.082-109.301-25.082
			c-39.285,0-76.04,8.434-109.256,25.064l-1.682,0.771c-42.308,17.662-86.785,26.998-128.611,26.998
			c-34.319,0-67.905-5.316-99.807-15.799l-61.81-20.299l58.095-29.275c131.046-66.059,338.84-179.291,584.578-343.611
			c293.011-196.061,417.287-359.095,452.509-438.769c-49.689-6.708-154.672-16.98-278.194-6.253l-11.77,1.025l-8.714-7.995
			c-50.39-46.151-195.147-152.186-450.669-139.855c-133.804,6.446-232.157,60.075-233.128,60.618
			c-12.594,6.866-17.191,22.48-10.448,34.941c6.735,12.454,22.455,17.121,35.056,10.396c0.631-0.351,91.786-48.718,211.07-54.454
			c155.013-7.697,264.917,32.674,329.835,67.939l63.062,34.241l-70.04,15.65c-46.633,10.43-88.476,22.874-127.91,38.059
			c-76.783,29.591-232.322,122.48-278.159,150.231l1.936,175.734l-13.618,7.873c-0.752,0.428-76.083,43.996-161.352,94.955
			l-44.865,26.807l20.168-246.125c6.271-38.812-34.784-54.322-41.221-56.503l-213.118-59.287l1.428-134.312l188.387,0.035
			c12.452-0.017,23.014-9.729,23.023-21.201c0-7.172-4.106-12.146-6.542-14.476c-4.406-4.186-10.369-6.594-16.358-6.594
			c-0.01,0-0.018,0-0.026,0l-188.021-0.079l0.946-89.079c-0.087-8.95-3.836-36.124-19.818-49.444
			c-10.237-8.521-24.888-10.991-44.793-7.549c-71.083,12.251-71.232,132.708-71.215,133.935l-1.13,191.864
			c-0.298,64.488,66.661,82.975,67.344,83.158l237.061,63.098l-0.263,251.572l-12.733,7.871
			c-103.502,64-121.228,79.676-124.188,82.949c-8.442,10.414-28.005,62.52-54.584,174.307l-3.546,14.914l-14.633,4.562
			C558.81,1635.699,527.151,1640.496,495.143,1640.496z M936.557,1063.959l-11.333,138.996
			c45.564-26.98,84.088-49.461,103.556-60.775l-1.928-174.867l12.961-7.978c8.337-5.132,205.149-125.965,299.991-162.518
			c19.477-7.496,39.478-14.371,60.241-20.667c-58.157-20.562-135.773-36.134-233.217-31.272
			c-106.06,5.097-187.484,47.718-188.308,48.147c-27.191,14.546-59.199,11.7-83.019-4.677c-1.698,39.89-35.484,71.854-76.731,71.906
			l-135.188-0.026l-0.411,39.731l173.912,48.384C889.774,958.565,946.942,995.486,936.557,1063.959z"/>
	</g>
</g>
</svg>
