<?xml version="1.0" encoding="utf-8"?>
<!-- Generator: Adobe Illustrator 16.0.0, SVG Export Plug-In . SVG Version: 6.00 Build 0)  -->
<!DOCTYPE svg PUBLIC "-//W3C//DTD SVG 1.1//EN" "http://www.w3.org/Graphics/SVG/1.1/DTD/svg11.dtd">
<svg version="1.1" id="Layer_1" xmlns="http://www.w3.org/2000/svg" xmlns:xlink="http://www.w3.org/1999/xlink" x="0px" y="0px"
	 width="2000px" height="2000px" viewBox="0 0 2000 2000" enable-background="new 0 0 2000 2000" xml:space="preserve">
<g>
	<path d="M1510.017,511.161c109.696,0,198.946-89.241,198.946-198.935c0-109.685-89.25-198.924-198.946-198.924
		c-109.671,0-198.901,89.229-198.901,198.924C1311.115,421.921,1400.345,511.161,1510.017,511.161z M1510.017,185.054
		c70.147,0,127.195,57.047,127.184,127.173c0,70.136-57.036,127.183-127.184,127.183c-70.125,0-127.183-57.047-127.183-127.183
		C1382.834,242.101,1439.892,185.054,1510.017,185.054z"/>
	<path d="M1199.934,1292.632c58.311-29.827,108.917-71.88,142.483-118.397l295.805-409.919
		c24.691-34.244,34.573-76.054,27.815-117.726c-6.746-41.683-29.325-78.232-63.56-102.937
		c-27.105-19.54-59.056-29.868-92.385-29.868c-50.704,0-98.635,24.523-128.216,65.579l-88.263,122.231h-291.458V561.842h-38.421
		v5.473l-108.76,0.011v-5.43H738.036v226.974c-4.399,13.164-6.63,26.701-6.63,40.269c0,70.307,57.205,127.523,127.522,127.523
		h250.711l-23.587,32.715c-9.48,13.145-49.26,33.49-65.474,33.49H627.725c-25.01,0-49.479,6.163-72.238,18.116
		c-11.902,4.813-417.028,327.54-498.13,392.195c-26.594,21.313-43.265,51.68-46.995,85.511c-3.741,33.874,5.95,67.141,27.264,93.671
		c24.31,30.379,60.584,47.793,99.514,47.793c28.816,0,57.121-9.944,79.721-28.039l365.58-293.17h438.12
		C1077.915,1338.945,1141.612,1322.486,1199.934,1292.632z M1330.324,773.359l109.715-152.003
		c16.173-22.419,42.354-35.796,70.042-35.796c18.181,0,35.616,5.642,50.428,16.32c18.699,13.495,31.025,33.448,34.701,56.196
		c3.677,22.76-1.722,45.581-15.185,64.283l-295.793,409.908c-27.03,37.475-68.585,71.753-116.983,96.529
		c-48.407,24.757-100.492,38.4-146.689,38.4l-390.538,0.031c-1.094-0.118-2.359-0.192-3.761-0.192l-69.021,0.161l-385.257,308.946
		c-10.01,8.032-22.069,12.273-34.841,12.273c-17.021,0-32.896-7.631-43.531-20.922c-9.319-11.604-13.549-26.148-11.934-40.929
		c1.638-14.792,8.926-28.082,20.561-37.411l466.411-374.006c3.783-3.05,8.479-5.609,14.769-8.085l3.835-1.774
		c13.25-7.088,26.85-10.68,40.471-10.68v-0.012h392.856c39.408,0,100.673-31.333,123.677-63.271L1249.872,884.9H858.93
		c-30.75,0-55.761-25.012-55.761-55.761c0-6.895,1.381-13.834,4.081-20.623l2.167-5.429l0.393-169.451l120.607-0.021v139.743
		H1330.324z"/>
	<path d="M1972.967,1030.283l-6.609,0.075c-69.924,0-134.015-35.594-171.799-95.711l-5.48-6.917l3.611-4.952
		c76.162-104.328,142.26-194.429,165.072-225.528l8.425-11.485c12.315-16.789,8.704-40.472-8.054-52.818
		c-6.279-4.601-13.866-7.022-21.962-7.022c-12.282,0-23.79,5.652-30.738,15.12c-2.527,3.41-321.229,437.404-443.291,610.372
		c-113.902,161.32-231.129,230.162-391.984,230.162H660.919c-20.783,0-37.699,16.937-37.699,37.74
		c0,20.772,16.917,37.688,37.699,37.688h409.238c185.729,0,325.618-80.836,453.535-262.092
		c42.469-60.139,113.063-158.039,209.815-290.991l6.27-8.605l6.619,8.318c53.796,67.513,133.972,106.231,219.951,106.231l7.172-0.17
		v-73.909L1972.967,1030.283z"/>
</g>
</svg>
