<?xml version="1.0" encoding="utf-8"?>
<!-- Generator: Adobe Illustrator 16.0.0, SVG Export Plug-In . SVG Version: 6.00 Build 0)  -->
<!DOCTYPE svg PUBLIC "-//W3C//DTD SVG 1.1//EN" "http://www.w3.org/Graphics/SVG/1.1/DTD/svg11.dtd">
<svg version="1.1" id="Layer_1" xmlns="http://www.w3.org/2000/svg" xmlns:xlink="http://www.w3.org/1999/xlink" x="0px" y="0px"
	 width="2000px" height="2000px" viewBox="0 0 2000 2000" enable-background="new 0 0 2000 2000" xml:space="preserve">
<g>
	<g>
		<g>
			<path fill="#2BACE2" d="M1510.169,616.36c-105.87,0-191.999-86.151-191.999-192.032s86.129-192.021,191.999-192.021
				c105.891,0,192.042,86.15,192.042,192.021C1702.211,530.219,1616.06,616.36,1510.169,616.36z M1510.169,292.718
				c-72.569,0-131.62,59.051-131.62,131.61c0,72.58,59.051,131.62,131.62,131.62c72.58,0,131.62-59.04,131.62-131.62
				C1641.8,351.769,1582.749,292.718,1510.169,292.718z"/>
			<path fill="#2BACE2" d="M1510.169,621.759c-108.843,0-197.398-88.566-197.398-197.431s88.556-197.42,197.398-197.42
				c108.866,0,197.441,88.565,197.441,197.42C1707.61,533.192,1619.035,621.759,1510.169,621.759z M1510.169,237.706
				c-102.886,0-186.601,83.716-186.601,186.623c0,102.917,83.704,186.633,186.601,186.633c102.917,0,186.644-83.716,186.644-186.633
				C1696.812,321.421,1613.086,237.706,1510.169,237.706z M1510.169,561.348c-75.543,0-137.02-61.466-137.02-137.02
				c0-75.543,61.477-137.009,137.02-137.009c75.563,0,137.021,61.465,137.021,137.009
				C1647.2,499.882,1585.732,561.348,1510.169,561.348z M1510.169,298.117c-69.595,0-126.221,56.615-126.221,126.211
				c0,69.606,56.626,126.222,126.221,126.222c69.617,0,126.222-56.616,126.222-126.222
				C1636.402,354.732,1579.786,298.117,1510.169,298.117z"/>
		</g>
	</g>
	<g>
		<g>
			<path fill="#2BACE2" d="M968.019,677.488h32.73v138.686h297.427l89.21-123.554c28.345-39.343,74.288-62.837,122.868-62.837
				c31.93,0,62.552,9.901,88.534,28.619c32.815,23.662,54.433,58.702,60.905,98.635c6.476,39.944-2.992,80.004-26.656,112.819
				l-293.557,406.819c-32.815,45.479-82.334,86.615-139.486,115.857c-57.143,29.251-119.483,45.363-175.562,45.363H587.729
				L223.427,1730.04c-21.469,17.178-48.358,26.627-75.744,26.627c-36.991,0-71.462-16.557-94.555-45.417
				c-20.236-25.192-29.442-56.816-25.899-88.989c3.543-32.161,19.403-61.011,44.658-81.258c0,0,481.319-383.716,493.002-388.439
				c22.302-11.673,45.733-17.578,69.68-17.578h389.884c18,0,58.84-20.89,69.353-35.473l29.589-41.02H864.004
				c-66.802,0-121.161-54.348-121.161-121.16c0-13.223,2.235-26.331,6.58-39.08V677.499h110.657 M634.548,1195.396
				c-14.425,0-28.788,3.787-42.706,11.241l-1.582,0.854l-1.645,0.654c-6.77,2.657-11.874,5.452-16.07,8.836l-462.896,371.168
				c-12.654,10.155-20.616,24.622-22.386,40.733c-1.771,16.114,2.856,31.951,13.001,44.595c11.599,14.5,28.871,22.788,47.43,22.788
				c13.898,0,27.038-4.619,37.941-13.371l380.868-305.41h36.411v-0.169h30.2c1.192,0,2.257,0.063,3.206,0.169h388.112
				c46.673,0,99.248-13.749,148.04-38.71c48.811-24.979,90.694-59.588,118.027-97.444l293.557-406.809
				c14.204-19.719,19.898-43.803,16.018-67.814c-3.88-24.01-16.882-45.058-36.622-59.293
				c-15.616-11.262-34.007-17.219-53.188-17.219c-29.231,0-56.848,14.119-73.888,37.771l-107.282,148.619H940.369V737.899
				l-130.492,0.021v171.564l-2.14,5.388c-2.942,7.393-4.451,14.931-4.451,22.481c0,33.501,27.249,60.738,60.739,60.738h377.442
				l-98.646,136.767c-22.019,30.548-80.648,60.549-118.366,60.549H634.548V1195.396z"/>
			<path fill="#2BACE2" d="M147.673,1762.064c-38.636,0-74.636-17.282-98.762-47.431c-21.153-26.33-30.771-59.345-27.058-92.963
				c3.701-33.575,20.246-63.712,46.639-84.864c80.489-64.166,482.552-384.453,494.363-389.23
				c22.587-11.863,46.872-17.979,71.693-17.979h389.884c16.091,0,55.57-20.193,64.978-33.237l23.409-32.468H864.004
				c-69.786,0-126.559-56.783-126.559-126.559c0-13.466,2.214-26.9,6.58-39.965V672.11h116.055v10.797H754.823l-0.285,217.108
				c-4.176,12.2-6.295,24.759-6.295,37.329c0,63.828,51.922,115.75,115.761,115.75h269.926l-35.758,49.593
				c-11.441,15.858-54.169,37.718-73.74,37.718H634.548c-23.061,0-45.659,5.705-67.17,16.956
				c-14.13,7.592-360.032,282.56-492.148,387.882c-24.127,19.338-39.268,46.913-42.644,77.618
				c-3.385,30.738,5.4,60.94,24.739,85.023c22.08,27.575,55.001,43.393,90.348,43.393c26.151,0,51.86-9.037,72.37-25.444
				l365.778-293.336h438.602c55.243,0,116.72-15.912,173.093-44.772c56.395-28.841,105.258-69.406,137.589-114.212l293.557-406.819
				c22.81-31.645,31.94-70.281,25.688-108.791c-6.231-38.52-27.09-72.294-58.724-95.124c-25.055-18.063-54.58-27.617-85.371-27.617
				c-46.861,0-91.149,22.66-118.481,60.601l-90.834,125.789H995.35V682.855h-27.332v-10.798h38.13v138.696h289.254l87.596-121.307
				c29.357-40.745,76.926-65.083,127.246-65.083c33.077,0,64.786,10.25,91.687,29.642c33.975,24.517,56.383,60.791,63.079,102.158
				c6.706,41.356-3.101,82.851-27.606,116.836l-293.568,406.819c-33.312,46.166-83.536,87.901-141.405,117.502
				c-57.881,29.629-121.097,45.964-178.018,45.964H589.606l-362.815,290.953C204.362,1752.195,176.271,1762.064,147.673,1762.064z
				 M147.673,1701.654c-20.204,0-39.016-9.037-51.627-24.802c-11.041-13.763-16.07-31.013-14.151-48.559
				c1.94-17.548,10.587-33.302,24.379-44.372l462.887-371.169c4.65-3.722,10.197-6.78,17.472-9.638l2.647-1.233
				c14.731-7.878,29.958-11.883,45.269-11.883h389.875c35.651,0,93.173-29.432,113.979-58.314l92.479-128.214H864.004
				c-36.464,0-66.138-29.673-66.138-66.137c0-8.214,1.624-16.45,4.819-24.475l1.771-4.429V732.511l141.291-0.021v138.685h380.563
				l105.669-146.372c18.063-25.055,47.325-40.007,78.274-40.007c20.309,0,39.796,6.305,56.351,18.231
				c20.9,15.079,34.671,37.371,38.796,62.805c4.102,25.424-1.92,50.943-16.968,71.832l-293.567,406.82
				c-27.807,38.54-70.397,73.739-119.936,99.089c-49.521,25.34-102.982,39.301-150.497,39.301H636.32
				c-1.328-0.105-2.214-0.157-3.206-0.157l-64.702,0.157L189.02,1687.111C177.135,1696.623,162.848,1701.654,147.673,1701.654z
				 M634.548,1200.795c-13.519,0-27.016,3.565-40.165,10.599l-3.807,1.761c-6.243,2.457-10.903,4.997-14.657,8.024l-462.885,371.178
				c-11.547,9.258-18.78,22.449-20.405,37.128c-1.603,14.669,2.594,29.104,11.843,40.619c10.554,13.191,26.309,20.764,43.202,20.764
				c12.675,0,24.643-4.209,34.577-12.181l382.344-306.61l68.5-0.16c1.391,0,2.646,0.074,3.732,0.191l387.585-0.031
				c45.849,0,97.539-13.54,145.581-38.109c48.032-24.59,89.273-58.609,116.099-95.8l293.557-406.809
				c13.361-18.56,18.718-41.209,15.069-63.797c-3.648-22.576-15.881-42.379-34.439-55.771c-14.7-10.598-32.003-16.196-50.046-16.196
				c-27.479,0-53.462,13.275-69.512,35.525l-108.886,150.854H934.95V743.288l-119.695,0.021l-0.39,168.169l-2.15,5.388
				c-2.679,6.738-4.05,13.624-4.05,20.467c0,30.517,24.822,55.339,55.34,55.339h387.986l-104.815,145.318
				c-22.83,31.698-83.632,62.794-122.742,62.794H634.548V1200.795z"/>
		</g>
	</g>
	<g>
		<g>
			<g>
				<path fill="#2BACE2" d="M667.491,1590.248c-17.652,0-32.015,14.373-32.015,32.057c0,17.651,14.363,32.002,32.015,32.002h406.144
					c182.404,0,319.866-79.529,445.72-257.841c42.327-59.927,112.396-157.107,208.271-288.845l10.386-14.267l10.998,13.803
					c52.346,65.706,130.366,103.394,214.062,103.394c0.568,0,1.149,0,1.717-0.021v-68.1c-0.567,0-1.148,0.011-1.717,0.011
					c-71.263,0-136.578-36.273-174.719-97.033l-8.004-10.081l6.012-8.225c79.064-108.316,147.205-201.185,166.692-227.715
					l5.504-7.518c10.483-14.289,7.402-34.397-6.822-44.869c-13.845-10.122-34.64-6.906-44.783,6.896
					c-2.638,3.544-318.602,433.835-439.856,605.653c-114.179,161.715-231.848,230.71-393.438,230.71H667.491V1590.248z"/>
				<path fill="#2BACE2" d="M1073.635,1659.695H667.491c-20.625,0-37.414-16.787-37.414-37.402
					c0-20.646,16.788-37.455,37.414-37.455h406.144c159.639,0,275.979-68.321,389.02-228.422
					c121.14-171.659,437.432-602.372,439.94-605.757c6.896-9.396,18.316-15.006,30.506-15.006c8.035,0,15.564,2.404,21.796,6.97
					c16.63,12.253,20.215,35.757,7.993,52.419l-8.362,11.398c-22.639,30.865-88.238,120.285-163.824,223.824l-3.584,4.914
					l5.44,6.865c37.498,59.662,101.104,94.987,170.499,94.987l6.559-0.074l0.549,5.463v73.35l-7.117,0.169
					c-85.33,0-164.9-38.426-218.288-105.428l-6.57-8.256l-6.222,8.541c-96.021,131.946-166.081,229.106-208.229,288.791
					C1396.791,1579.471,1257.959,1659.695,1073.635,1659.695z M667.491,1595.646c-14.679,0-26.615,11.958-26.615,26.659
					c0,14.656,11.937,26.604,26.615,26.604h406.144c180.464,0,316.566-78.812,441.312-255.554
					c42.189-59.726,112.27-156.928,208.312-288.907l14.551-20.003l15.417,19.339c50.552,63.448,125.525,100.25,206.151,101.347
					v-57.321c-71.684-1.234-137.136-38.236-175.613-99.522l-10.208-12.822l8.436-11.547
					c75.586-103.54,141.194-192.97,163.836-223.835l8.36-11.398c8.711-11.863,6.16-28.608-5.672-37.318
					c-11.051-8.088-29.167-5.241-37.233,5.747c-2.521,3.396-318.717,433.962-439.794,605.568
					c-115.297,163.318-234.283,233.01-397.855,233.01H667.491V1595.646z"/>
			</g>
		</g>
	</g>
</g>
</svg>
