<?xml version="1.0" encoding="utf-8"?>
<!-- Generator: Adobe Illustrator 16.0.0, SVG Export Plug-In . SVG Version: 6.00 Build 0)  -->
<!DOCTYPE svg PUBLIC "-//W3C//DTD SVG 1.1//EN" "http://www.w3.org/Graphics/SVG/1.1/DTD/svg11.dtd">
<svg version="1.1" id="Layer_1" xmlns="http://www.w3.org/2000/svg" xmlns:xlink="http://www.w3.org/1999/xlink" x="0px" y="0px"
	 width="2000px" height="2000px" viewBox="0 0 2000 2000" enable-background="new 0 0 2000 2000" xml:space="preserve">
<g>
	<g>
		<path d="M1147.566,503.34c-131.1,0-237.762-106.651-237.762-237.745c0-131.088,106.662-237.739,237.762-237.739
			c131.109,0,237.766,106.651,237.766,237.739C1385.332,396.689,1278.676,503.34,1147.566,503.34z M1147.566,85.515
			c-99.309,0-180.104,80.784-180.104,180.081c0,99.297,80.795,180.086,180.104,180.086c99.313,0,180.107-80.789,180.107-180.086
			C1327.674,166.298,1246.88,85.515,1147.566,85.515z"/>
	</g>
	<g>
		<path d="M1428.812,1973.877c-14.387,0-35.969,0-55.018-12.123c-56.041-31.238-78.221-98.609-51.57-157.214
			c0.146-0.327,0.298-0.642,0.461-0.963l159.799-319.592l-277.367-136.894h-140.44l-691.442,512.623
			c-0.208,0.152-0.417,0.305-0.625,0.457c-20.434,14.307-44.398,21.875-69.314,21.875c-38.227,0-73.891-18.334-95.395-49.032
			c-37.658-53.812-25.586-127.524,26.858-164.507l610.789-449.204V873.354l-116.871,54.527l64.691,204.906
			c0.18,0.563,0.338,1.126,0.479,1.694c16.104,64.461-17.173,126.219-79.117,146.844c-16.464,5.506-27.99,5.506-37.247,5.506
			c-50.958,0-96.994-34.887-111.983-84.837L449.051,824.531c-4.206-13.643,2.202-28.316,15.085-34.488l494.188-237.041
			c4.69-2.252,9.865-3.176,15.079-2.72l353.567,32.146c5.93,0.541,11.531,2.894,16.07,6.751l429.582,365.364
			c25.394,20.456,40.85,49.162,43.541,80.878c2.636,31.06-7.234,61.021-27.814,84.455c-22.501,27.805-55.39,43.734-90.351,43.734
			c-0.006,0,0,0-0.006,0c-27.612,0-54.218-10.074-74.989-28.368l-233.645-193.594v230.33l381.918,192.867
			c14.109,7.123,19.842,24.279,12.871,38.457l-249.102,506.25c-0.265,0.535-0.541,1.059-0.833,1.576
			C1512.771,1948.657,1470.412,1973.877,1428.812,1973.877z M1374.511,1828.848c-13.847,31.037-1.897,66.583,27.923,82.861
			c0.742,0.399,1.469,0.839,2.173,1.307c4.809,3.203,16.481,3.203,24.206,3.203c20.997,0,43.469-13.53,54.934-32.996
			l236.066-479.773l-372.278-188.002c-9.708-4.904-15.833-14.854-15.833-25.732v-309.39c0-11.171,6.452-21.34,16.564-26.092
			c10.113-4.747,22.051-3.238,30.659,3.891l281.23,233.026c0.259,0.214,0.513,0.428,0.76,0.653
			c10.259,9.121,23.43,14.15,37.084,14.15c17.585,0,34.274-8.261,45.788-22.664c0.316-0.395,0.643-0.783,0.975-1.16
			c10.305-11.582,15.26-26.436,13.953-41.83c-1.357-15.952-9.336-30.513-22.467-41.014c-0.225-0.18-0.45-0.366-0.67-0.558
			l-422.926-359.705l-336.558-30.597L511.473,831.282l109.196,353.933c9.077,30.271,35.8,43.959,56.813,43.959
			c7.106,0,11.391,0,18.987-2.539c32.906-10.957,49.922-42.703,41.633-77.389l-72.022-228.115
			c-4.358-13.801,2.19-28.688,15.298-34.809l180.807-84.353c8.936-4.155,19.364-3.48,27.68,1.813
			c8.305,5.293,13.339,14.459,13.339,24.313v405.792c0,9.167-4.364,17.793-11.757,23.227l-622.776,458.028
			c-0.174,0.13-0.354,0.259-0.535,0.383c-26.667,18.688-32.506,56.555-13.007,84.421c10.878,15.529,28.429,24.443,48.165,24.443
			c12.9,0,25.321-3.891,35.946-11.245l698.746-518.04c4.966-3.682,10.985-5.67,17.168-5.67h156.69c4.426,0,8.789,1.02,12.76,2.979
			l309.383,152.693c6.881,3.395,12.123,9.393,14.566,16.661c2.443,7.274,1.893,15.22-1.543,22.083L1374.511,1828.848z"/>
	</g>
</g>
</svg>
