<?xml version="1.0" encoding="utf-8"?>
<!-- Generator: Adobe Illustrator 16.0.0, SVG Export Plug-In . SVG Version: 6.00 Build 0)  -->
<!DOCTYPE svg PUBLIC "-//W3C//DTD SVG 1.1//EN" "http://www.w3.org/Graphics/SVG/1.1/DTD/svg11.dtd">
<svg version="1.1" id="Layer_1" xmlns="http://www.w3.org/2000/svg" xmlns:xlink="http://www.w3.org/1999/xlink" x="0px" y="0px"
	 width="2000px" height="2000px" viewBox="0 0 2000 2000" enable-background="new 0 0 2000 2000" xml:space="preserve">
<g>
	<path d="M1158.391,674.517c-22.25,277.66-4.351,552.927,5.605,828.292c4.571,126.398,9.387,252.797,12.457,379.23
		c1.343,55.49-46.935,88.93-92.458,66.307c-22.943-11.407-34.628-30.604-37.162-56.407
		c-18.044-184.221-36.444-368.419-54.777-552.622c-4.777-47.998-9.725-95.982-20.545-145.082
		c-1.286,7.716-3.016,15.391-3.795,23.153c-22.3,223.072-44.374,446.175-66.852,669.235c-4.449,44.129-30.938,70-67.946,68.425
		c-38.26-1.63-63.419-30.979-61.95-76.967c6.277-196.304,15.118-392.538,19.947-588.873c5.028-204.438,6.519-408.971,9.56-613.461
		c-3.659-0.165-7.315-0.339-10.974-0.512c-4.416,41.723-8.98,83.433-13.217,125.177c-4.263,41.945-8.241,83.921-12.278,125.891
		c-5.028,52.201-9.598,104.463-15.145,156.609c-2.608,24.506-15.075,46.223-39.833,48.667c-18.186,1.798-42.118-4.079-55.134-15.812
		c-11.089-9.99-15.179-33.59-13.894-50.519c7.942-104.578,17.489-209.064,28.107-313.413c6.862-67.481,14.684-134.973,25.34-201.937
		c10.688-67.211,50.859-116.688,113.135-139.73c110.517-40.893,224.487-41.24,334.869,0.229
		c65.811,24.729,106.688,78.109,114.687,149.027c19.021,168.597,35.533,337.481,51.87,506.373
		c4.035,41.776-15.226,66.01-48.793,68.762c-33.928,2.781-57.352-18.328-61.558-58.319c-7.428-70.564-13.418-141.28-20.276-211.912
		C1171.239,801.042,1164.738,737.788,1158.391,674.517"/>
	<path d="M973.698,343.998c-91.93-0.018-165.375-72.745-165.629-164C807.815,90.613,883.75,15.138,973.866,15.18
		c90.233,0.051,165.249,74.812,165.539,164.983C1139.705,270.803,1065.649,344.017,973.698,343.998"/>
</g>
</svg>
