<?xml version="1.0" encoding="utf-8"?>
<!-- Generator: Adobe Illustrator 16.0.0, SVG Export Plug-In . SVG Version: 6.00 Build 0)  -->
<!DOCTYPE svg PUBLIC "-//W3C//DTD SVG 1.1//EN" "http://www.w3.org/Graphics/SVG/1.1/DTD/svg11.dtd">
<svg version="1.1" id="Layer_1" xmlns="http://www.w3.org/2000/svg" xmlns:xlink="http://www.w3.org/1999/xlink" x="0px" y="0px"
	 width="2000px" height="2000px" viewBox="0 0 2000 2000" enable-background="new 0 0 2000 2000" xml:space="preserve">
<path d="M1166.617,1566.106C973.587,1067.539,780.659,569.276,587.73,71.003c2.054-3.612,4.102-7.224,6.15-10.843
	c93.903,24.961,189.745,44.296,281.35,75.923c288.926,99.755,539.67,257.731,729.016,502.352
	c113.752,146.96,185.089,312.194,199.559,499.239c0.844,10.936-5.516,27.816-14.064,33.317
	c-203.301,130.876-407.347,260.562-611.317,390.384C1175.592,1563.188,1172.084,1563.957,1166.617,1566.106 M1250.971,810.886
	c-75.975,11.522-151.988,22.798-227.895,34.74c-21.559,3.393-38.423,13.911-32.27,39.203c5.995,24.65,24.592,24.853,46.496,21.764
	c65.944-9.299,132.045-22.041,198.313-23.602c200.1-4.721,367.996,59.984,480.983,236.017c5.839,9.098,26.181,8.881,39.765,13.003
	c3.648-14.962,15.441-35.642,9.616-43.954c-34.75-49.536-67.642-102.877-112.196-142.564
	C1540.234,844.349,1398.938,819.276,1250.971,810.886"/>
<path d="M1870.188,1777.105v161.111c-32.756-7.92-64.998-10.921-93.017-23.383c-83.138-36.993-164.011-37.088-247.081,0.014
	c-65.465,29.222-133.052,26.262-197.942-2.636c-77.474-34.521-153.251-33.966-230.462,0.189
	c-67.676,29.925-136.756,29.979-204.451,0.04c-77.201-34.154-152.985-34.83-230.462-0.216
	c-68.652,30.654-138.996,30.005-207.816-0.527c-76.095-33.749-150.721-33.331-227.31-0.188
	c-31.009,13.421-65.732,18.232-102.279,27.883v-160.922c52.648-16.206,103.526-33.52,155.347-47.36
	c55.021-14.706,110.176-10.34,162.216,12.827c77.167,34.357,153.448,34.601,230.726,1.297
	c70.351-30.316,141.111-29.248,211.185,1.068c73.811,31.911,147.143,31.965,220.967,0.04c71.317-30.83,143.182-31.101,214.52-0.202
	c73.785,31.951,147.109,32.303,220.941,0.364c71.311-30.843,142.351-29.708,214.715-0.96
	C1794.762,1759.359,1832.201,1766.469,1870.188,1777.105"/>
<path d="M505.614,1127.482c29.391,65.959,56.781,129.093,86.212,191.239c3.386,7.149,18.058,12.395,27.62,12.597
	c56.483,1.176,113.109-1.445,169.441,1.649c21.362,1.162,46.87,8.772,62.241,22.612c65.063,58.592,127.352,120.293,189.972,181.548
	c34.892,34.128,37.332,77.284,7.771,106.628c-29.56,29.371-69.171,27.91-104.438-5.703
	c-48.394-46.131-94.862-94.315-144.209-139.365c-12.803-11.691-33.107-20.773-50.199-21.192
	c-86.442-2.122-172.972-2.001-259.434-0.622c-57.72,0.92-96.62-24.086-119.201-76.406c-32.841-76.082-66.127-151.988-98.613-228.232
	c-32.503-76.298,16.182-153.812,99.245-157.205c40.294-1.648,80.944-3.136,121.019,0.23c83.992,7.055,162.085-7.985,234.838-51.146
	c16.747-9.931,35.071-17.425,53.203-24.721c29.12-11.715,57.832-0.422,69.563,26.248c11.215,25.508,2.741,56.118-24.305,67.621
	c-99.272,42.224-191.171,110.345-308.615,91.774C515.609,1124.699,513.247,1125.875,505.614,1127.482"/>
<path d="M419.5,885.955c-0.041,59.487-45.347,106.378-103.408,107.013c-58.656,0.646-106.604-48.303-106.101-108.321
	c0.49-58.055,48.462-105.824,105.659-105.209C373.849,780.063,419.543,826.926,419.5,885.955"/>
</svg>
