<?xml version="1.0" encoding="utf-8"?>
<!-- Generator: Adobe Illustrator 16.0.0, SVG Export Plug-In . SVG Version: 6.00 Build 0)  -->
<!DOCTYPE svg PUBLIC "-//W3C//DTD SVG 1.1//EN" "http://www.w3.org/Graphics/SVG/1.1/DTD/svg11.dtd">
<svg version="1.1" id="Layer_1" xmlns="http://www.w3.org/2000/svg" xmlns:xlink="http://www.w3.org/1999/xlink" x="0px" y="0px"
	 width="2000px" height="2000px" viewBox="0 0 2000 2000" enable-background="new 0 0 2000 2000" xml:space="preserve">
<g>
	<path d="M1213.617,1600.605c-5.687,0-11.365-1.168-16.674-3.497c-10.112-4.437-18.04-12.721-22.026-23.02
		C1014.403,1159.51,853.961,745.14,693.531,330.8l-97.5-251.812c-4.502-11.626-3.538-24.661,2.625-35.499
		c2.04-3.586,4.073-7.174,6.106-10.767c9.302-16.437,28.529-24.521,46.779-19.669c29.099,7.735,59.074,15.091,88.062,22.206
		c64.663,15.869,131.526,32.278,196.171,54.597c152.759,52.742,291.208,120.592,411.5,201.666
		c129.492,87.273,242.805,193.091,336.789,314.512c60.307,77.911,108.291,160.113,142.622,244.323
		c36.081,88.503,58.117,181.739,65.496,277.117c1.788,23.185-9.163,56.088-32.981,71.416
		c-183.155,117.907-369.951,236.781-550.596,351.74l-60.897,38.756c-5.915,3.771-11.357,5.664-15.338,7.049
		c-1.291,0.45-2.407,0.838-3.572,1.296C1223.915,1599.648,1218.763,1600.605,1213.617,1600.605z M697.156,110.294l73.775,190.536
		c154.634,399.37,309.266,798.733,463.974,1198.319l29.137-18.543c178.925-113.865,363.872-231.562,545.263-348.309
		c-6.834-86.245-26.843-170.559-59.478-250.608c-31.49-77.241-75.699-152.893-131.398-224.853
		c-45.021-58.163-95.012-112.89-148.587-162.661c-51.925-48.239-108.77-93.265-168.955-133.828
		c-114.308-77.04-246.263-141.65-392.2-192.037c-61.042-21.075-126.023-37.022-188.866-52.444
		C712.323,114.026,704.759,112.17,697.156,110.294z"/>
</g>
<g>
	<path d="M1001.862,1699.099c-30.211,0.003-59.971-13.14-86.062-38.006c-19.522-18.609-38.926-37.737-57.692-56.235
		c-27.901-27.503-56.752-55.943-85.865-82.521c-6.491-5.928-17.453-10.213-23.235-10.354c-44.355-1.089-89.517-1.618-138.069-1.618
		c-38.202,0-77.352,0.328-119.688,1.004c-1.243,0.02-2.485,0.029-3.713,0.029c-36.129,0.001-67.621-8.674-93.6-25.783
		c-25.938-17.083-46.345-42.553-60.652-75.703c-11.647-26.982-23.557-54.417-35.073-80.948
		c-20.95-48.263-42.614-98.169-63.616-147.461c-20.949-49.176-17.502-101.841,9.455-144.493
		c26.917-42.59,72.943-68.266,126.276-70.444c24.453-1,46.562-1.829,69.488-1.829c20.771,0,39.317,0.709,56.697,2.169
		c12.01,1.009,23.95,1.521,35.488,1.521c64.244,0,121.39-15.375,174.703-47.003c20.113-11.926,41.611-20.578,58.884-27.529
		c12.552-5.049,25.457-7.608,38.362-7.608c37.136,0,69.584,21.323,84.682,55.647c10.372,23.588,11.051,50.41,1.866,73.593
		c-8.771,22.139-25.788,39.515-47.916,48.926c-21.68,9.222-42.907,19.698-65.381,30.789
		c-63.893,31.534-129.848,64.09-207.575,67.193c18.354,41.413,36.014,81.061,54.495,120.468c9.296,0.166,19.248,0.243,30.949,0.243
		c10.561,0,21.364-0.064,31.811-0.127c10.566-0.064,21.493-0.13,32.297-0.13c19.6,0,45.496,0.187,71.984,1.642
		c33.881,1.843,66.687,14.258,87.734,33.209c58.121,52.34,114.656,107.724,169.33,161.285c7.296,7.147,14.593,14.296,21.893,21.438
		c26.12,25.547,40.57,57.091,40.688,88.819c0.105,28.571-11.507,55.892-32.699,76.928
		C1056.459,1687.718,1030.089,1699.097,1001.862,1699.099z M610.94,1427.364c49.237,0,95.066,0.538,140.104,1.644
		c26.27,0.644,56.559,13.219,77.165,32.035c30.283,27.645,59.709,56.652,88.167,84.705c18.522,18.258,37.675,37.138,56.691,55.265
		c10.207,9.729,20.432,15.087,28.788,15.086c2.208,0,8.927-0.001,17.767-8.783c5.536-5.496,8.21-11.29,8.186-17.728
		c-0.034-9.327-5.619-19.908-15.726-29.793c-7.316-7.157-14.627-14.319-21.938-21.481
		c-54.062-52.961-109.963-107.726-166.786-158.896c-5.737-5.166-20.56-11.133-36.725-12.013
		c-24.494-1.345-48.914-1.518-67.454-1.518c-10.554,0-21.354,0.065-31.798,0.128c-10.57,0.063-21.5,0.129-32.31,0.129
		c-13.898,0-25.493-0.106-36.488-0.335c-16.45-0.348-51.031-8.387-64.263-36.326c-22.825-48.195-44.019-96.042-66.457-146.698
		c-6.645-15.001-13.346-30.13-20.156-45.412c-5.103-11.451-4.755-24.595,0.945-35.761c5.701-11.166,16.143-19.156,28.411-21.739
		c2.067-0.436,3.563-0.821,5.011-1.195c3.596-0.929,8.521-2.199,14.896-2.199c2.439,0,4.889,0.193,7.282,0.574
		c10.99,1.737,22.21,2.622,33.304,2.622c63.646,0,121.579-28.592,182.913-58.862c22.515-11.112,45.797-22.603,69.628-32.74
		c1.732-0.737,2.64-1.611,3.237-3.119c0.812-2.051,1.061-5.653-0.679-9.61c-1.843-4.189-4.528-6.06-8.705-6.06
		c-2.21,0-4.762,0.556-7.379,1.609c-18.626,7.496-33.957,13.871-47.525,21.916c-65.559,38.893-138.585,58.616-217.044,58.616
		c-13.847,0-28.124-0.609-42.435-1.812c-15.046-1.264-31.32-1.878-49.75-1.878c-21.356,0-42.57,0.797-66.098,1.76
		c-25.685,1.049-47.372,12.659-59.504,31.855c-12.172,19.26-13.36,43.905-3.258,67.619c20.891,49.031,42.498,98.807,63.393,146.942
		c11.534,26.569,23.459,54.044,35.142,81.107c7.894,18.289,17.739,31.136,30.099,39.276c12.364,8.143,28.047,12.102,47.946,12.101
		c0.792,0,1.592-0.007,2.393-0.02C532.709,1427.696,572.292,1427.364,610.94,1427.364z"/>
</g>
<g>
	<path d="M314.943,953.474c-38.837,0-75.45-15.351-103.091-43.226c-28.3-28.538-43.699-66.52-43.359-106.949
		c0.327-38.797,15.696-75.431,43.274-103.157c28.086-28.237,65.153-43.634,104.33-43.201c39.261,0.421,75.853,16.005,103.033,43.883
		c27.029,27.723,41.899,64.714,41.87,104.162c-0.057,82.374-63.509,147.595-144.455,148.48
		C316.014,953.471,315.478,953.474,314.943,953.474z M314.558,739.933c-33.894,0-62.775,29.338-63.068,64.065
		c-0.152,18.126,6.701,35.105,19.298,47.807c11.938,12.039,27.62,18.669,44.156,18.669l0.691-0.004
		c16.902-0.185,32.554-6.853,44.076-18.776c11.782-12.194,18.278-28.803,18.29-46.768c0.013-17.652-6.486-34.044-18.298-46.161
		c-11.661-11.959-27.463-18.647-44.496-18.83L314.558,739.933z"/>
</g>
<g>
	<path fill="none" d="M215.163,1878.423c43.557-18.848,87.469-28.404,130.52-28.404c43.326,0,87.098,9.67,130.1,28.742
		c29.387,13.037,59.043,19.646,88.147,19.646c28.666-0.001,57.575-6.419,85.924-19.078c43.496-19.432,87.745-29.286,131.51-29.286
		c43.864,0,88.498,9.906,132.662,29.444c28.329,12.529,57.049,18.882,85.362,18.882c28.347-0.001,57.119-6.367,85.515-18.924
		c44.091-19.504,88.686-29.395,132.539-29.395c43.76,0,88.035,9.843,131.598,29.253c29.16,12.986,58.313,19.572,86.645,19.571
		c26.264-0.001,52.335-5.695,77.49-16.924c46.643-20.832,93.87-31.397,140.364-31.397c46.462,0,93.734,10.553,140.504,31.363
		c10.067,4.478,21.902,7.585,34.646,10.322v-78.127c-1.434-0.362-2.862-0.722-4.285-1.08c-26.24-6.611-53.374-13.446-79.739-23.921
		c-32.071-12.74-62.357-18.934-92.588-18.934c-30.575,0-60.122,6.351-90.33,19.416c-41.702,18.04-84.211,27.188-126.345,27.188
		c-42.414,0-85.332-9.271-127.562-27.558c-30.076-13.027-60.479-19.632-90.367-19.632c-30.056,0-60.738,6.677-91.195,19.843
		c-41.927,18.132-84.614,27.326-126.874,27.326c-42.288,0-85.027-9.208-127.03-27.366c-30.479-13.187-61.054-19.87-90.881-19.87
		c-29.019,0-58.429,6.332-87.411,18.822c-43.29,18.655-87.202,28.115-130.518,28.115c-44.459,0-89.379-9.963-133.512-29.612
		c-26.471-11.784-53.942-17.76-81.65-17.76c-17.49,0-35.312,2.394-52.97,7.113c-31.26,8.349-61.917,17.916-93.931,28.063v79.312
		C206.233,1882.001,210.81,1880.308,215.163,1878.423z"/>
</g>
<g>
	<g>
		<path d="M1775.308,1714.976c-41.421-16.455-82.883-24.798-123.232-24.798c-41.551,0-83.027,8.827-123.282,26.237
			c-31.239,13.515-62.661,20.366-93.393,20.366c-31.002,0-62.823-6.972-94.576-20.722c-40.547-17.562-82.049-26.468-123.353-26.468
			c-41.451,0-83.214,8.969-124.136,26.659c-31.469,13.609-63.072,20.51-93.933,20.51c-30.893,0-62.55-6.915-94.083-20.548
			c-40.937-17.709-82.598-26.688-123.828-26.688c-40.381,0-80.842,8.612-120.259,25.599c-33.318,14.359-65.267,21.339-97.669,21.339
			c-33.214,0-65.843-7.339-99.755-22.438c-37.166-16.545-75.994-24.935-115.408-24.935c-24.723,0-49.755,3.341-74.395,9.926
			c-24.32,6.495-48.59,13.79-72.506,21.242v87.009c32.014-10.147,62.671-19.715,93.931-28.063c17.658-4.72,35.48-7.113,52.97-7.113
			c27.708,0,55.18,5.976,81.65,17.76c44.133,19.649,89.053,29.612,133.512,29.612c43.315,0,87.228-9.46,130.518-28.115
			c28.982-12.49,58.392-18.822,87.411-18.822c29.828,0,60.402,6.684,90.881,19.87c42.002,18.158,84.742,27.366,127.03,27.366
			c42.259,0,84.947-9.194,126.874-27.326c30.457-13.166,61.14-19.843,91.195-19.843c29.889,0,60.291,6.604,90.367,19.632
			c42.229,18.286,85.147,27.558,127.562,27.558c42.134,0,84.643-9.147,126.345-27.188c30.208-13.065,59.755-19.416,90.33-19.416
			c30.23,0,60.517,6.193,92.588,18.934c11.966,4.754,24.09,8.753,36.217,12.327v-87.332
			C1779.009,1716.412,1777.148,1715.707,1775.308,1714.976z"/>
	</g>
	<g>
		<path d="M1653.538,1853.554c-46.494,0-93.722,10.565-140.364,31.397c-25.155,11.229-51.227,16.923-77.49,16.924
			c-28.331,0.001-57.484-6.585-86.645-19.571c-43.562-19.41-87.838-29.253-131.598-29.253c-43.854,0-88.448,9.891-132.539,29.395
			c-28.396,12.557-57.168,18.923-85.515,18.924c-28.313,0-57.034-6.353-85.362-18.882c-44.164-19.538-88.798-29.444-132.662-29.444
			c-43.766,0-88.014,9.854-131.51,29.286c-28.349,12.659-57.258,19.077-85.924,19.078c-29.104,0-58.76-6.609-88.147-19.646
			c-43.002-19.072-86.774-28.742-130.1-28.742c-43.051,0-86.963,9.557-130.52,28.404c-4.353,1.885-8.93,3.578-13.663,5.155v86.362
			c15.643-3.984,31.335-8.726,46.628-15.345c33.553-14.52,65.463-21.577,97.554-21.577c32.106,0,63.655,7.07,96.446,21.613
			c40.049,17.768,81.03,26.776,121.803,26.775c40.402-0.001,80.697-8.846,119.771-26.293c33.244-14.852,65.189-22.071,97.662-22.071
			c32.679,0,65.089,7.311,99.086,22.351c38.974,17.236,78.991,25.977,118.939,25.976c39.98-0.001,80.045-8.753,119.086-26.017
			c33.924-15.007,66.297-22.302,98.967-22.302c32.496,0,64.492,7.219,97.823,22.07c39.865,17.754,80.381,26.755,120.422,26.754
			c37.997-0.002,75.45-8.121,111.327-24.136c36.437-16.274,71.281-24.186,106.524-24.186c35.251,0,70.173,7.914,106.768,24.197
			c6.807,3.027,13.678,5.562,20.574,7.76v-89.175C1738.419,1862.221,1695.646,1853.554,1653.538,1853.554z"/>
	</g>
</g>
</svg>
