<?xml version="1.0" encoding="utf-8"?>
<!-- Generator: Adobe Illustrator 16.0.0, SVG Export Plug-In . SVG Version: 6.00 Build 0)  -->
<!DOCTYPE svg PUBLIC "-//W3C//DTD SVG 1.1//EN" "http://www.w3.org/Graphics/SVG/1.1/DTD/svg11.dtd">
<svg version="1.1" id="Layer_1" xmlns="http://www.w3.org/2000/svg" xmlns:xlink="http://www.w3.org/1999/xlink" x="0px" y="0px"
	 width="2000px" height="2000px" viewBox="0 0 2000 2000" enable-background="new 0 0 2000 2000" xml:space="preserve">
<g>
	<rect x="29.702" y="1340.987" fill="#010101" width="1942.596" height="61.998"/>
	<polygon fill="#010101" points="835.673,741.676 773.675,741.676 753.009,805.968 691.011,805.968 670.345,870.259 
		608.348,870.259 587.682,934.551 525.684,934.551 505.018,998.842 443.021,998.842 422.354,1063.155 360.357,1063.155 
		339.691,1127.446 277.693,1127.446 257.027,1191.738 195.029,1191.738 174.363,1256.029 112.366,1256.029 91.7,1320.321 
		753.009,1320.321 	"/>
	<polygon fill="#010101" points="1248.991,1320.321 1910.301,1320.321 1889.635,1256.029 1827.637,1256.029 1806.971,1191.738 
		1744.973,1191.738 1724.307,1127.446 1662.31,1127.446 1641.644,1063.155 1579.646,1063.155 1558.979,998.842 1496.982,998.842 
		1476.316,934.551 1414.318,934.551 1393.652,870.259 1331.654,870.259 1310.988,805.968 1248.991,805.968 1228.325,741.676 
		1166.327,741.676 	"/>
	<polygon fill="#010101" points="773.675,1320.321 835.673,1320.321 897.67,741.676 856.339,741.676 	"/>
	<polygon fill="#010101" points="1228.325,1320.321 1145.661,741.676 1104.33,741.676 1166.327,1320.321 	"/>
	<polygon fill="#010101" points="835.673,721.01 918.336,721.01 918.336,679.678 959.668,679.678 980.334,679.678 1021.666,679.678 
		1042.332,679.678 1083.664,679.678 1083.664,721.01 1166.327,721.01 1166.327,679.678 1186.993,679.678 1186.993,659.013 
		1166.327,659.013 1166.327,638.347 1186.993,638.347 1186.993,597.015 1001,597.015 815.007,597.015 815.007,638.347 
		835.673,638.347 835.673,659.013 815.007,659.013 815.007,679.678 835.673,679.678 	"/>
	<polygon fill="#010101" points="907.259,845.006 1094.741,845.006 1092.529,824.34 909.492,824.34 	"/>
	<polygon fill="#010101" points="882.915,1072.331 880.704,1092.996 1121.317,1092.996 1119.085,1072.331 	"/>
	<polygon fill="#010101" points="862.994,1258.324 1139.028,1258.324 1136.795,1237.658 865.205,1237.658 	"/>
	<polygon fill="#010101" points="911.703,803.674 1090.297,803.674 1088.086,783.008 913.914,783.008 	"/>
	<polygon fill="#010101" points="918.336,741.676 916.125,762.342 1085.875,762.342 1083.664,741.676 	"/>
	<polygon fill="#010101" points="878.472,1113.662 876.26,1134.328 1125.74,1134.328 1123.528,1113.662 	"/>
	<polygon fill="#010101" points="869.627,1196.326 867.416,1216.972 1134.584,1216.972 1132.373,1196.326 	"/>
	<polygon fill="#010101" points="902.837,886.337 1099.163,886.337 1096.952,865.672 905.048,865.672 	"/>
	<polygon fill="#010101" points="887.337,1030.999 885.126,1051.665 1116.874,1051.665 1114.662,1030.999 	"/>
	<polygon fill="#010101" points="898.415,927.669 1103.586,927.669 1101.374,907.003 900.626,907.003 	"/>
	<polygon fill="#010101" points="874.049,1154.994 871.838,1175.681 1130.162,1175.681 1127.951,1154.994 	"/>
	<polygon fill="#010101" points="893.971,969.001 1108.029,969.001 1105.797,948.335 896.204,948.335 	"/>
	<polygon fill="#010101" points="891.76,989.667 889.549,1010.333 1112.451,1010.333 1110.24,989.667 	"/>
	<polygon fill="#010101" points="1141.239,1278.99 860.761,1278.99 858.55,1299.656 1143.45,1299.656 	"/>
</g>
</svg>
