<?xml version="1.0" encoding="utf-8"?>
<!-- Generator: Adobe Illustrator 16.0.0, SVG Export Plug-In . SVG Version: 6.00 Build 0)  -->
<!DOCTYPE svg PUBLIC "-//W3C//DTD SVG 1.1//EN" "http://www.w3.org/Graphics/SVG/1.1/DTD/svg11.dtd">
<svg version="1.1" id="Layer_1" xmlns="http://www.w3.org/2000/svg" xmlns:xlink="http://www.w3.org/1999/xlink" x="0px" y="0px"
	 width="2000px" height="2000px" viewBox="0 0 2000 2000" enable-background="new 0 0 2000 2000" xml:space="preserve">
<g>
	<path fill="#010101" d="M763.269,1370.439H4.517l39.418-122.632h65.376l21.793-67.796h65.378l21.792-67.797h65.378l21.792-67.796
		h65.375l21.794-67.819h65.377l21.793-67.796h65.378l21.792-67.797h65.377l21.792-67.796h65.378l21.792-67.797h116.977
		L763.269,1370.439z M79.741,1315.604h635.97l79.336-555.355h-13.779l-21.793,67.797h-65.378l-21.792,67.796h-65.377l-21.792,67.797
		h-65.378l-21.793,67.796H432.59l-21.795,67.819h-65.378l-21.792,67.796h-65.378l-21.792,67.797h-65.378l-21.793,67.796H83.908
		L79.741,1315.604z"/>
</g>
<g>
	<path fill="#010101" d="M1997.484,1370.439h-758.753l-95.004-665.025h116.977l21.793,67.797h65.376l21.793,67.796h65.379
		l21.792,67.797h65.378l21.793,67.796h65.377l21.795,67.819h65.377l21.792,67.796h65.376l21.793,67.797h65.378l21.792,67.796h65.378
		L1997.484,1370.439z M1286.29,1315.604h635.97l-4.167-12.962h-65.377l-21.792-67.796h-65.379l-21.793-67.797h-65.375
		l-21.793-67.796h-65.38l-21.794-67.819h-65.374l-21.793-67.796h-65.379l-21.793-67.797h-65.376l-21.794-67.796h-65.377
		l-21.793-67.797h-13.778L1286.29,1315.604z"/>
</g>
<g>
	<path fill="#010101" d="M1202.758,664.64h-142.005v-43.585H941.247v43.585H799.243v-87.169h-21.456l-1.733-140.089h447.105
		l1.731,140.089h-22.133V664.64z M1115.588,609.805h32.335v-87.169h21.451l-0.376-30.419H831.571l0.376,30.419h22.129v87.169h32.335
		V566.22h229.176V609.805z"/>
</g>
<g>
	<polygon fill="#010101" points="1118.039,867.63 883.942,867.63 889.83,813.147 1112.208,813.147 	"/>
</g>
<g>
	<polygon fill="#010101" points="1146.082,1144.958 855.959,1144.958 861.788,1090.476 1140.197,1090.476 	"/>
</g>
<g>
	<polygon fill="#010101" points="1164.76,1329.844 837.284,1329.844 843.112,1275.361 1158.871,1275.361 	"/>
</g>
<g>
	<polygon fill="#010101" points="1108.689,775.187 893.311,775.187 899.14,720.705 1102.859,720.705 	"/>
</g>
<g>
	<polygon fill="#010101" points="1127.367,960.072 874.636,960.072 880.464,905.59 1121.535,905.59 	"/>
</g>
<g>
	<polygon fill="#010101" points="1155.389,1237.422 846.611,1237.422 852.437,1182.918 1149.563,1182.918 	"/>
</g>
<g>
	<polygon fill="#010101" points="1136.714,1052.516 865.286,1052.516 871.115,998.033 1130.886,998.033 	"/>
</g>
</svg>
