<?xml version="1.0" encoding="utf-8"?>
<!-- Generator: Adobe Illustrator 16.0.0, SVG Export Plug-In . SVG Version: 6.00 Build 0)  -->
<!DOCTYPE svg PUBLIC "-//W3C//DTD SVG 1.1//EN" "http://www.w3.org/Graphics/SVG/1.1/DTD/svg11.dtd">
<svg version="1.1" id="Layer_1" xmlns="http://www.w3.org/2000/svg" xmlns:xlink="http://www.w3.org/1999/xlink" x="0px" y="0px"
	 width="2000px" height="2000px" viewBox="0 0 2000 2000" enable-background="new 0 0 2000 2000" xml:space="preserve">
<g>
	<path d="M1031.391,1696.763c-84.577,0-205.01-32.8-289.381-124.864c-81.05-88.434-116.543-214.541-105.604-375.002
		c-68.189-47.023-146.553-96.367-169.76-104.044c-34.049,9.569-67.384,14.415-99.183,14.415
		c-249.239,0-352.691-288.148-352.691-442.414c0-86.958,62.257-179.324,170.825-253.414
		c97.318-66.414,217.509-107.673,313.676-107.673c93.762,0,177.839,52.204,236.741,146.992
		c48.245,77.647,77.051,180.512,77.051,275.166c0,29.333-4.212,58.335-12.349,86.292c96.869-75.877,261.323-165.194,498.777-165.194
		c60.438,0,123.288,5.979,186.787,17.764c60.829,11.287,132.569,28.66,203.486,71.916
		c79.422,48.449,142.202,121.406,186.712,216.943c2.837,1.024,6.727,1.971,11.399,1.971c11.204,0,23.19-5.403,35.62-16.061
		c6.939-5.938,16.232-8.335,25.146-6.479c8.941,1.85,16.515,7.734,20.514,15.934c2.596,5.32,24.808,53.412,6.434,103.843
		c-10.225,28.07-30.516,50.385-60.381,66.48c-4.845,13.816-14.472,35.694-32.448,59.367
		c-25.728,33.895-74.347,78.191-160.271,97.986c-1.957,1.209-4.943,3.971-5.962,9.886c-2.089,12.107,0.397,60.513,119.973,175.002
		c11.429,10.939,14.933,26.683,9.149,41.087c-13.517,33.662-73.897,45.598-121.504,45.598h-0.017
		c-65.974,0-231.147-22.039-367.015-221.832c-38.709,7.77-125.358,24.25-184.168,28.52c27.108,42.334,76.136,106.121,147.807,151.65
		c10.035,6.376,15.255,18.16,13.229,29.877c-2.02,11.716-10.887,21.072-22.481,23.719c-2.745,0.622-134.952,30.47-278.207-33.76
		c18.495,48.929,40.31,96.908,56.094,111.686c9.403,8.805,12.458,22.12,7.792,33.934
		C1090.154,1689.834,1071.707,1696.763,1031.391,1696.763z M465.932,1033.289c26.177,0,99.545,42.018,218.045,124.904
		c8.626,6.03,13.379,16.216,12.464,26.706c-13.229,151.495,16.717,268.31,89.015,347.19
		c81.05,88.434,190.332,103.106,232.54,105.362c-32-58.183-59.212-144.44-65.64-165.524c-3.648-11.952,0.645-24.905,10.709-32.316
		c10.064-7.406,23.713-7.66,34.037-0.639c83.07,56.502,169.846,69.242,229.197,69.725
		c-88.077-78.414-130.187-169.225-132.294-173.845c-5.271-11.555-2.537-25.187,6.779-33.824c8.926-8.263,21.947-10.162,32.789-4.948
		c1.254,0.275,5.316,0.973,14.414,0.973c63.811,0,215.093-32.001,216.611-32.322c11.992-2.544,24.342,2.6,30.947,12.947
		c122.178,191.021,270.49,211.656,328.587,211.656h0.022c21.585,0,38.618-2.658,50.587-5.8
		c-89.256-89.751-127.079-158.855-115.53-210.794c8.654-38.917,40.734-50.8,44.36-52.025c1.007-0.34,2.037-0.627,3.079-0.857
		c131.395-29.061,154.344-123.581,155.252-127.598c2.061-9.058,8.327-16.85,16.814-20.618c21.936-9.748,35.511-22.493,41.513-38.963
		c3.038-8.332,3.844-16.964,3.499-24.95c-11.729,4.533-23.697,6.812-35.845,6.812c-29.56,0-48.682-13.707-52.215-16.458
		c-3.804-2.963-6.843-6.822-8.81-11.229c-85.441-191.155-225.537-240.789-351.328-264.132
		c-59.973-11.129-119.196-16.774-176.038-16.774c-374.305,0-555.274,242.84-557.063,245.294
		c-9.443,12.994-27.558,16.015-40.724,6.802l-14.823-10.378c-6.986-4.894-11.515-12.576-12.395-21.064
		c-0.898-8.485,1.939-16.941,7.757-23.179c46.357-49.648,71.895-112.685,71.895-177.499c0-152.281-88.571-363.233-254.867-363.233
		c-175.802,0-425.576,156.271-425.576,302.162c0,59.94,19.036,160.536,72.689,246.771
		c38.813,62.369,108.666,136.718,221.077,136.718c27.857,0,57.458-4.568,88.002-13.586
		C458.762,1033.783,462.284,1033.289,465.932,1033.289z"/>
</g>
</svg>
