<?xml version="1.0" encoding="utf-8"?>
<!-- Generator: Adobe Illustrator 16.0.0, SVG Export Plug-In . SVG Version: 6.00 Build 0)  -->
<!DOCTYPE svg PUBLIC "-//W3C//DTD SVG 1.1//EN" "http://www.w3.org/Graphics/SVG/1.1/DTD/svg11.dtd">
<svg version="1.1" id="Layer_1" xmlns="http://www.w3.org/2000/svg" xmlns:xlink="http://www.w3.org/1999/xlink" x="0px" y="0px"
	 width="2000px" height="2000px" viewBox="0 0 2000 2000" enable-background="new 0 0 2000 2000" xml:space="preserve">
<path d="M1742.134,392.903c-38.679,0-160.55,0-317.27,0.167c10.503-60.352,38.179-301.927-188.558-302.594
	C975.559,89.81,870.693,89.81,870.693,89.81S649.042,71.47,666.88,393.903c-193.81,0.333-335.688,0.5-335.688,0.5
	S224.66,390.235,224.66,519.275h1644.014C1868.674,519.275,1884.345,392.903,1742.134,392.903z M882.613,209.013
	c100.781-5.835,357.527,0,357.527,0s80.691-4.501,64.02,184.224c-158.633,0.167-337.271,0.333-497.737,0.667
	C802.755,354.391,796.003,214.181,882.613,209.013z"/>
<path fill="none" d="M983.395,1657.304c0,35.012,28.342,63.354,63.187,63.354c34.927,0,63.27-28.342,63.27-63.354V898.726H983.395
	V1657.304z"/>
<path fill="none" d="M1362.846,1657.304c0,35.012,28.342,63.354,63.02,63.354c35.01,0,63.353-28.342,63.353-63.354V898.726h-126.372
	V1657.304z"/>
<path fill="none" d="M604.027,1657.304c0,35.012,28.259,63.354,63.186,63.354c34.928,0,63.27-28.342,63.27-63.354V898.726H604.027
	V1657.304z"/>
<path d="M1615.595,645.648H477.572H351.116v1138.195c0,69.855,56.601,126.539,126.456,126.539h126.456h885.19h126.377
	c70.022,0,126.539-56.684,126.539-126.539V645.648H1615.595z M730.483,1657.304c0,35.012-28.342,63.354-63.27,63.354
	c-34.927,0-63.186-28.342-63.186-63.354V898.726h126.456V1657.304z M1109.851,1657.304c0,35.012-28.343,63.354-63.27,63.354
	c-34.845,0-63.187-28.342-63.187-63.354V898.726h126.456V1657.304z M1489.218,1657.304c0,35.012-28.343,63.354-63.353,63.354
	c-34.678,0-63.02-28.342-63.02-63.354V898.726h126.372V1657.304z"/>
</svg>
