<?xml version="1.0" encoding="utf-8"?>
<!-- Generator: Adobe Illustrator 16.0.0, SVG Export Plug-In . SVG Version: 6.00 Build 0)  -->
<!DOCTYPE svg PUBLIC "-//W3C//DTD SVG 1.1//EN" "http://www.w3.org/Graphics/SVG/1.1/DTD/svg11.dtd">
<svg version="1.1" id="Layer_1" xmlns="http://www.w3.org/2000/svg" xmlns:xlink="http://www.w3.org/1999/xlink" x="0px" y="0px"
	 width="2000px" height="2000px" viewBox="0 0 2000 2000" enable-background="new 0 0 2000 2000" xml:space="preserve">
<path d="M1508.487,1259.755c143.37,143.46,281.173,285.055,423.535,421.896c50.561,48.588,48.648,90.418,9.346,139.818
	c-7.991,10.008-15.966,20.074-24.634,29.494c-139.352,151.449-156.492,152.021-298.973,9.374
	c-116.015-116.136-231.879-232.437-351.235-352.136c-214.498,131.121-442.284,164.089-680.061,89.004
	c-179.574-56.713-321.275-167.912-423.612-327.294C-40.705,952.835,10.605,519.442,281.336,268.868
	C572.23-0.365,994.938-25.6,1305.139,206.573C1600.456,427.625,1735.506,857.043,1508.487,1259.755 M1356.254,843.742
	c0.481-293.753-233.097-530.778-524.593-532.366c-288.23-1.564-529.107,239.004-529.919,529.25
	c-0.813,292.325,235.068,529.591,526.956,530.056C1122.84,1371.133,1355.788,1138.474,1356.254,843.742"/>
</svg>
