<?xml version="1.0" encoding="utf-8"?>
<!-- Generator: Adobe Illustrator 16.0.0, SVG Export Plug-In . SVG Version: 6.00 Build 0)  -->
<!DOCTYPE svg PUBLIC "-//W3C//DTD SVG 1.1//EN" "http://www.w3.org/Graphics/SVG/1.1/DTD/svg11.dtd">
<svg version="1.1" id="Layer_1" xmlns="http://www.w3.org/2000/svg" xmlns:xlink="http://www.w3.org/1999/xlink" x="0px" y="0px"
	 width="2000px" height="2000px" viewBox="0 0 2000 2000" enable-background="new 0 0 2000 2000" xml:space="preserve">
<g>
	<path fill="none" d="M169.621,639.528c0,7.212,0,12.674,0,18.142c0,369.653-0.108,739.301,0.078,1108.956
		c0.045,89.924,66.397,155.363,156.949,155.379c447.917,0.078,895.83,0.053,1343.745,0.021
		c95.562-0.006,159.985-64.752,159.998-160.838c0.044-366.16,0.02-732.318,0.02-1098.477c0-7.445,0-14.894,0-23.183
		C1276.209,639.528,724.419,639.528,169.621,639.528z M679.46,260.068c0-13.576,0.069-25.992-0.013-38.408
		c-0.303-45.406,0.774-90.882-1.494-136.193c-1.491-29.768-25.836-50.066-54.417-50.586c-28.503-0.52-52.322,19.603-56.225,48.707
		c-1.66,12.387-1.441,25.069-1.484,37.621c-0.156,45.938-0.062,91.877-0.062,140.039c-9.769,0-17.293,0-24.82,0
		c-73.379,0.004-146.761-0.373-220.138,0.114c-73.639,0.488-135.805,50.939-147.273,123.831c-5.7,36.222-3.096,73.773-3.833,110.735
		c-0.442,22.061-0.082,44.141-0.082,65.865c555.178,0,1107.509,0,1660.789,0c0-49.771,0.29-97.946-0.062-146.116
		c-0.647-88.785-66.742-154.175-155.924-154.393c-71.983-0.172-143.962-0.032-215.945-0.037c-7.47,0-14.943,0-24.214,0
		c0-10.176,0-17.752,0-25.333c0-41.929,0.021-83.862-0.009-125.792c-0.028-48.523-19.778-74.87-56.34-75.243
		c-36.622-0.373-57.285,26.331-57.339,74.169c-0.032,27.257-0.008,54.514-0.008,81.766c0,22.822,0,45.64,0,69.252
		C1105.809,260.068,893.72,260.068,679.46,260.068z"/>
	<path fill-rule="evenodd" clip-rule="evenodd" d="M169.621,639.528c554.799,0,1106.588,0,1660.79,0c0,8.289,0,15.737,0,23.183
		c0,366.159,0.024,732.317-0.02,1098.477c-0.013,96.086-64.437,160.832-159.998,160.838
		c-447.915,0.031-895.829,0.057-1343.745-0.021c-90.552-0.016-156.904-65.455-156.949-155.379
		c-0.186-369.654-0.078-739.303-0.078-1108.956C169.621,652.202,169.621,646.74,169.621,639.528z M1416.793,1507.805
		c0,101.104,0,200.416,0,299.076c100.857,0,200.175,0,299.014,0c0-100.539,0-199.361,0-299.076
		C1615.829,1507.805,1517.012,1507.805,1416.793,1507.805z M1338.123,1807.6c0-100.836,0-200.15,0-299.078
		c-100.768,0-200.081,0-299.188,0c0,100.451,0,199.27,0,299.078C1138.82,1807.6,1237.643,1807.6,1338.123,1807.6z M661.419,1807.113
		c100.955,0,200.271,0,299.077,0c0-100.805,0-200.123,0-299.107c-100.489,0-199.309,0-299.077,0
		C661.419,1607.93,661.419,1706.752,661.419,1807.113z M582.997,1808.137c0-99.982,0-199.777,0-299.82
		c-100.028,0-199.344,0-298.328,0c0,100.748,0,200.064,0,299.82C384.595,1808.137,482.914,1808.137,582.997,1808.137z
		 M1416.248,1429.74c100.878,0,200.195,0,299.075,0c0-100.783,0-200.102,0-299.16c-100.46,0-199.282,0-299.075,0
		C1416.248,1230.479,1416.248,1329.301,1416.248,1429.74z M1338.11,1430.211c0-100.873,0-200.186,0-299.078
		c-100.779,0-200.094,0-299.163,0c0,100.465,0,199.281,0,299.078C1138.845,1430.211,1237.667,1430.211,1338.11,1430.211z
		 M661.426,1429.721c100.937,0,200.252,0,299.077,0c0-100.801,0-200.119,0-299.121c-100.483,0-199.305,0-299.077,0
		C661.426,1230.516,661.426,1329.338,661.426,1429.721z M583.799,1130.969c-100.937,0-200.253,0-299.077,0
		c0,100.801,0,200.117,0,299.119c100.482,0,199.304,0,299.077,0C583.799,1330.174,583.799,1231.352,583.799,1130.969z
		 M1416.293,1052.385c100.739,0,200.053,0,299.079,0c0-100.73,0-200.048,0-299.255c-100.415,0-199.233,0-299.079,0
		C1416.293,852.979,1416.293,951.801,1416.293,1052.385z M1038.77,1052.262c101.11,0,200.429,0,299.078,0
		c0-100.858,0-200.179,0-299.005c-100.542,0-199.364,0-299.078,0C1038.77,853.233,1038.77,952.051,1038.77,1052.262z
		 M661.427,1052.318c100.931,0,200.247,0,299.077,0c0-100.795,0-200.113,0-299.124c-100.48,0-199.303,0-299.077,0
		C661.427,853.111,661.427,951.933,661.427,1052.318z M583.224,1052.893c0-101.125,0-200.441,0-299.079
		c-100.861,0-200.181,0-298.995,0c0,100.545,0,199.368,0,299.079C384.21,1052.893,483.03,1052.893,583.224,1052.893z"/>
	<path fill-rule="evenodd" clip-rule="evenodd" d="M679.46,260.068c214.26,0,426.348,0,641.107,0c0-23.613,0-46.431,0-69.252
		c0-27.252-0.024-54.509,0.008-81.766c0.054-47.839,20.717-74.542,57.339-74.169c36.562,0.373,56.312,26.72,56.34,75.243
		c0.029,41.929,0.009,83.863,0.009,125.792c0,7.58,0,15.156,0,25.333c9.271,0,16.744,0,24.214,0
		c71.983,0.004,143.962-0.135,215.945,0.037c89.182,0.217,155.276,65.607,155.924,154.393c0.352,48.17,0.062,96.344,0.062,146.116
		c-553.28,0-1105.611,0-1660.789,0c0-21.725-0.36-43.805,0.082-65.865c0.737-36.962-1.867-74.513,3.833-110.735
		c11.468-72.892,73.634-123.343,147.273-123.831c73.377-0.487,146.759-0.11,220.138-0.114c7.527,0,15.051,0,24.82,0
		c0-48.162-0.094-94.101,0.062-140.039c0.043-12.552-0.176-25.234,1.484-37.621c3.903-29.104,27.722-49.227,56.225-48.707
		c28.582,0.52,52.926,20.819,54.417,50.586c2.269,45.312,1.191,90.787,1.494,136.193C679.529,234.076,679.46,246.492,679.46,260.068
		z M1320.592,317.357c-46.209,25.508-66.382,79.255-51.271,128.56c15.267,49.809,65.767,83.854,117.521,79.235
		c53.285-4.758,95.93-46.037,103.023-99.731c5.732-43.391-19.812-93.413-55.603-105.915c0,13.067,0.176,25.553-0.042,38.031
		c-0.367,21.629,1.18,43.571-1.957,64.808c-6.299,42.646-57.052,60.726-90.623,33.591c-16.103-13.014-20.991-30.594-21.033-50.218
		C1320.543,377.182,1320.592,348.644,1320.592,317.357z M565.793,318.356c-41.981,19.75-64,70.963-53.242,118.45
		c11.798,52.073,57.28,88.658,110.167,88.613c53.66-0.045,99.053-37.38,110.483-90.861c9.904-46.352-12.922-97.646-53.741-115.993
		c0,9.255,0.11,17.352-0.021,25.447c-0.42,25.82,1.214,51.901-1.906,77.393c-4.724,38.579-46.948,58.895-81.203,40.828
		c-22.23-11.725-30.437-31.544-30.515-55.562C565.722,377.662,565.793,348.652,565.793,318.356z"/>
</g>
</svg>
