<?xml version="1.0" encoding="utf-8"?>
<!-- Generator: Adobe Illustrator 16.0.0, SVG Export Plug-In . SVG Version: 6.00 Build 0)  -->
<!DOCTYPE svg PUBLIC "-//W3C//DTD SVG 1.1//EN" "http://www.w3.org/Graphics/SVG/1.1/DTD/svg11.dtd">
<svg version="1.1" id="Layer_1" xmlns="http://www.w3.org/2000/svg" xmlns:xlink="http://www.w3.org/1999/xlink" x="0px" y="0px"
	 width="2000px" height="2000px" viewBox="0 0 2000 2000" enable-background="new 0 0 2000 2000" xml:space="preserve">
<g>
	<path d="M1924.184,1080.803H876.818c32.995,76.582,62.012,147.599,95.156,216.645c4.661,9.705,29.492,13.605,45.009,13.648
		c285.356,0.785,570.731,0.572,856.096,0.572c15.911,0,31.831,0,51.077,0v127.949c-14.228,0.717-29.542,2.15-44.846,2.168
		c-314.489,0.129-628.987-0.555-943.467,1.025c-34.71,0.178-50.591-10.627-64.078-41.911
		C706.561,1017.869,539.492,635.623,374.42,252.532c-13.478-31.284-28.057-44.053-63.441-42.696
		c-81.346,3.128-162.896,0.995-248.014,0.995V80.64c91.324,0,181.858,6.905,270.812-1.985
		c85.229-8.514,134.438,18.881,151.351,102.283c20.127,99.283,78.242,122.996,178.588,121.195
		c401.716-7.209,803.636-2.979,1205.488-2.979h54.979V1080.803z"/>
	<path d="M1776.669,1791.477c-83.445,0.554-153.473-69.207-152.694-152.142c0.75-81.241,69.146-149.784,150.398-150.722
		c82.045-0.948,153.702,70.667,152.916,152.848C1926.505,1722.85,1858.168,1790.92,1776.669,1791.477"/>
	<path d="M1194.901,1639.335c0.29,84.676-66.835,152.174-151.304,152.123c-81.708-0.032-148.568-67.245-149.119-149.903
		c-0.568-84.127,67.88-153.138,151.294-152.541C1127.571,1489.603,1194.619,1557.171,1194.901,1639.335"/>
</g>
</svg>
