<?xml version="1.0" encoding="utf-8"?>
<!-- Generator: Adobe Illustrator 16.0.0, SVG Export Plug-In . SVG Version: 6.00 Build 0)  -->
<!DOCTYPE svg PUBLIC "-//W3C//DTD SVG 1.1//EN" "http://www.w3.org/Graphics/SVG/1.1/DTD/svg11.dtd">
<svg version="1.1" id="Layer_1" xmlns="http://www.w3.org/2000/svg" xmlns:xlink="http://www.w3.org/1999/xlink" x="0px" y="0px"
	 width="2000px" height="2000px" viewBox="0 0 2000 2000" enable-background="new 0 0 2000 2000" xml:space="preserve">
<path d="M1082.543,989.999l834.355-834.355c22.796-22.795,22.796-59.747,0-82.542c-22.766-22.795-59.776-22.795-82.542,0
	l-834.355,834.355L165.646,73.101c-22.766-22.795-59.777-22.795-82.543,0c-22.796,22.796-22.796,59.747,0,82.542l834.355,834.355
	L83.103,1824.354c-22.796,22.797-22.796,59.747,0,82.543c11.384,11.412,26.326,17.104,41.271,17.104s29.888-5.691,41.272-17.104
	l834.355-834.355l834.355,834.355c11.384,11.412,26.328,17.104,41.271,17.104c14.943,0,29.889-5.691,41.271-17.104
	c22.796-22.796,22.796-59.746,0-82.543L1082.543,989.999z"/>
</svg>
