<?xml version="1.0" encoding="utf-8"?>
<!-- Generator: Adobe Illustrator 16.0.0, SVG Export Plug-In . SVG Version: 6.00 Build 0)  -->
<!DOCTYPE svg PUBLIC "-//W3C//DTD SVG 1.1//EN" "http://www.w3.org/Graphics/SVG/1.1/DTD/svg11.dtd">
<svg version="1.1" id="Layer_1" xmlns="http://www.w3.org/2000/svg" xmlns:xlink="http://www.w3.org/1999/xlink" x="0px" y="0px"
	 width="2000px" height="2000px" viewBox="0 0 2000 2000" enable-background="new 0 0 2000 2000" xml:space="preserve">
<path fill="#010101" d="M524.761,645.167c-73.3-21.004-102.799-33.959-101.481-48.919c1.134-13.142,20.555-25.12,76.916-20.239
	c62.456,5.411,102.271,19.71,123.459,27.231l30.633-50.688c-29.709-10.131-68.126-20.555-125.28-26.438l3.589-41.241l-85.016-7.363
	l-3.853,44.515c-93.618,1.318-150.216,28.97-153.832,70.661c-3.958,45.464,57.312,74.382,148.688,99.318
	c64.037,17.363,90.82,31.031,89.263,48.814c-1.584,18.26-36.333,26.123-86.652,21.742c-56.359-4.908-106.678-19.181-142.193-33.115
	l-30.794,52.535c32.112,12.691,87.734,26.491,145.729,32.957l-3.878,44.512l85.86,7.468l4.197-48.259
	c100.531-0.266,157.392-31.188,161.031-72.879C664.817,703.083,626.269,673.795,524.761,645.167z"/>
<path fill="#010101" d="M1442.784,922.034c42.614,33.591,94.302,13.194,153.694-29.683c41.51-30.107,65.125-38.338,81.771-25.199
	c17.126,13.484,11.373,41.612-12.268,71.584c-26.494,33.565-59.74,56.812-86.939,70.584l39.156,55.994
	c24.694-12.379,59.473-39.399,88.129-73.04l41.688,32.903l40.32-51.134l-45.23-35.675c38.473-65.99,30.347-124.33-8.705-155.124
	c-39.972-31.504-83.25-26.228-150.137,20.739c-48.63,33.696-72.561,44.199-86.598,33.141c-12.32-9.71-16.467-30.581,10-64.169
	c29.314-37.257,58.551-53.564,74.014-62.324l-37.414-54.593c-21.242,12.561-46.178,30.607-73.908,64.066l-38.684-30.478
	l-39.92,50.635l41.715,32.878C1398.691,835.385,1403.76,891.296,1442.784,922.034z"/>
<path fill="#010101" d="M1987.545,919.713c-19.072-86.995-65.882-173.963-133.169-249.718c-2.321-2.663-4.458-5.381-6.831-7.994
	c-4.779-5.171-9.921-10.131-14.857-15.2c-5.49-5.645-10.764-11.45-16.516-16.913c-0.264-0.237-0.526-0.447-0.769-0.661
	c-0.185-0.184-0.342-0.368-0.526-0.526c-107.681-102.483-244.229-163.647-365.235-163.647c-74.46,0-138.369,22.536-186.493,65.095
	c-14.727,10.423-28.553,21.955-41.004,35.015l-136.732,143.698c-44.62,46.888-68.762,104.857-74.383,168.131
	c-17.152-16.278-36.73-31.346-58.208-45.304V710.525c0-31.162-5.726-61.243-15.463-90.134
	c-73.655-250.037-460.303-259.244-460.701-259.244c-0.184,0-0.369,0-0.553,0c-248.002,0-451.122,129.714-467.243,301.382
	c-3.484,17.862-5.91,29.42-5.91,48.022v198.37c0,106.204,59.685,196.312,158.316,256.525v139.264
	c0,194.811,199.741,336.184,474.948,336.184c275.207,0,474.947-141.373,474.947-336.184v-123.484
	c24.694,33.771,53.325,66.939,86.571,98.602c113.248,107.733,247.107,169.531,367.293,169.531c83.066,0,155.18-29.631,208.53-85.703
	l136.732-143.695c21.373-22.457,38.13-48.129,51.188-75.965C1996.703,1082.619,2006.281,1005.147,1987.545,919.713z
	 M1305.257,599.071c2.958-3.089,6.179-5.937,9.342-8.76c38.157-25.305,85.492-38.499,139.29-38.499
	c104.781,0,216.551,49.132,306.896,134.753c5.621,5.384,10.874,10.976,16.231,16.491c3.879,3.984,7.994,7.89,11.715,11.979
	c1.821,2.005,3.484,4.118,5.273,6.123c59.688,67.337,99.555,145.625,113.387,224.677c10.446,60.027,4.536,115.015-15.942,160.95
	c-6.226,10.558-13.247,20.583-21.688,29.452c-34.115,35.856-84.066,54.83-144.411,54.83c-101.16,0-217.313-53.041-310.643-141.854
	c-77.413-73.616-130.638-162.616-149.921-250.561C1246.812,716.278,1261.169,645.404,1305.257,599.071z M1024.145,1073.598
	c0,138.206-174.81,250.666-389.671,250.666c-119.712,0-229.637-35.777-302.066-93.408c5.594,1.164,11.505,1.9,17.205,2.906
	c2.929,0.552,5.858,1,8.787,1.504c11.979,1.947,24.115,3.664,36.491,4.984c4.803,0.553,9.605,1.079,14.46,1.559
	c3.192,0.289,6.332,0.578,9.55,0.842c5.042,0.395,10.055,0.742,15.173,1.031c14.486,0.869,29.078,1.426,43.828,1.426
	c16.491,0,32.691-0.531,48.604-1.536c0.395-0.021,0.79-0.053,1.187-0.073c5.381-0.369,10.555-1.059,15.883-1.531
	c9.974-0.848,20.028-1.611,29.739-2.827c0.79-0.104,1.555-0.231,2.321-0.337c6.068-0.795,11.9-1.957,17.863-2.904
	c8.26-1.295,16.649-2.432,24.696-3.984c1.111-0.237,2.192-0.531,3.3-0.711c6.121-1.242,12.004-2.826,18.02-4.227
	c7.153-1.657,14.46-3.142,21.426-5.016c1.426-0.389,2.797-0.815,4.25-1.236c5.937-1.663,11.581-3.615,17.386-5.41
	c6.281-1.953,12.744-3.742,18.868-5.885c1.687-0.578,3.297-1.268,4.96-1.867c5.647-2.037,11.029-4.358,16.518-6.548
	c5.513-2.216,11.187-4.221,16.544-6.6c1.9-0.815,3.718-1.769,5.618-2.637c5.252-2.399,10.266-5.016,15.357-7.573
	c4.829-2.4,9.842-4.643,14.486-7.147c2.084-1.137,4.037-2.347,6.068-3.511c4.855-2.742,9.447-5.621,14.115-8.5
	c4.171-2.557,8.523-4.957,12.56-7.6c2.192-1.447,4.197-2.979,6.334-4.452c4.405-3.036,8.576-6.205,12.797-9.368
	c3.537-2.668,7.281-5.174,10.686-7.916c2.216-1.768,4.274-3.693,6.437-5.488c3.905-3.326,7.626-6.731,11.373-10.163
	c2.981-2.742,6.147-5.353,8.997-8.147c2.192-2.168,4.171-4.41,6.255-6.6c3.429-3.562,6.673-7.179,9.92-10.842
	c2.453-2.747,5.04-5.441,7.387-8.263c2.087-2.532,3.905-5.147,5.913-7.726c2.9-3.779,5.697-7.6,8.389-11.484
	c1.953-2.768,4.037-5.484,5.884-8.283c1.9-2.906,3.537-5.964,5.332-8.947c2.374-3.959,4.668-7.969,6.832-12.031
	c1.479-2.742,3.089-5.432,4.46-8.232c1.663-3.326,3.008-6.777,4.486-10.184c1.848-4.115,3.64-8.258,5.276-12.51
	c1.055-2.716,2.189-5.353,3.139-8.124c1.321-3.747,2.271-7.573,3.432-11.373c1.292-4.326,2.61-8.603,3.694-12.981
	c0.632-2.639,1.371-5.223,1.926-7.889c0.895-4.142,1.424-8.418,2.137-12.639c0.737-4.434,1.529-8.839,2.058-13.352
	c0.184-1.502,0.553-2.929,0.713-4.458c32.031,30.238,55.143,64.566,68.18,100.978
	C1022.588,1049.03,1024.145,1061.271,1024.145,1073.598z M865.827,677.806c0,138.211-174.808,250.668-389.669,250.668
	S86.515,816.017,86.515,677.806c0-3.853,0.634-7.626,0.897-11.45c29.712-135.02,192.617-238.769,389.274-239.163
	c7.968,0,15.752,0.447,23.589,0.766c5.513,0.21,11.107,0.21,16.57,0.579c3.192,0.211,6.279,0.661,9.444,0.924
	C689.225,443.79,821.499,529.2,861.103,640.999C863.9,653.083,865.827,665.274,865.827,677.806z M82.11,855.805
	c83.511,91.165,228.767,151.827,394.048,151.827c167.658,0,314.653-62.456,397.532-155.837v57.127
	c0,146.551-170.163,257.025-395.79,257.025c-12.745,0-25.252-0.474-37.628-1.163c-1.9-0.104-3.745-0.289-5.618-0.421
	c-3.958-0.264-7.863-0.605-11.768-0.947c-6.387-0.559-12.747-1.084-19-1.769c-1.689-0.21-3.376-0.452-5.065-0.632
	c-5.25-0.637-10.45-1.373-15.621-2.137c-4.908-0.742-9.815-1.505-14.644-2.352c-1.689-0.29-3.379-0.58-5.066-0.9
	c-5.305-0.947-10.528-1.979-15.752-3.084c-5.066-1.053-10.082-2.242-15.042-3.432c-1.292-0.316-2.611-0.579-3.905-0.921
	c-4.221-1.026-8.389-2.11-12.534-3.247c-2.689-0.711-5.276-1.579-7.942-2.348c-5.674-1.663-11.397-3.295-16.939-5.115
	c-0.555-0.189-1.108-0.374-1.689-0.559c-4.645-1.558-9.181-3.273-13.747-4.957c-5.647-2.084-11.265-4.2-16.729-6.463
	c-3.984-1.664-7.889-3.379-11.768-5.096C146.147,1074.756,82.11,998.661,82.11,908.922V855.805z M636.216,1561.74
	c-225.627,0-395.79-110.508-395.79-257.029v-51.982c84.092,92.645,229.927,150.69,394.048,150.69
	c167.658,0,314.653-62.45,397.534-155.832v57.124C1032.008,1451.26,861.842,1561.74,636.216,1561.74z M1565.027,1370.199
	c-98.576,0-215.492-55.225-312.727-147.732c-163.463-155.543-210.557-352.886-109.555-459.011l35.752-37.573
	c-0.526,28.654,2.195,58.577,9.025,89.684c22.615,103.223,83.935,206.58,172.643,290.988
	c107.712,102.48,244.255,163.647,365.235,163.647c9.842,0,19.473-0.452,28.946-1.222l-38.125,40.084
	C1677.645,1349.646,1626.773,1370.199,1565.027,1370.199z"/>
</svg>
