<?xml version="1.0" encoding="utf-8"?>
<!-- Generator: Adobe Illustrator 16.0.0, SVG Export Plug-In . SVG Version: 6.00 Build 0)  -->
<!DOCTYPE svg PUBLIC "-//W3C//DTD SVG 1.1//EN" "http://www.w3.org/Graphics/SVG/1.1/DTD/svg11.dtd">
<svg version="1.1" id="Layer_1" xmlns="http://www.w3.org/2000/svg" xmlns:xlink="http://www.w3.org/1999/xlink" x="0px" y="0px"
	 width="2000px" height="2000px" viewBox="0 0 2000 2000" enable-background="new 0 0 2000 2000" xml:space="preserve">
<path d="M986.961,1797.334c-100.453-78.527-201.266-156.287-300.917-235.502c-137.599-109.374-274.133-220.175-390.601-352.876
	C188.832,1087.487,103.542,953.68,70.835,792.611c-44.911-221.14,35.489-413.951,214.237-519.818
	c180.54-106.915,419.221-86.542,582.866,50.938c24.461,20.542,46.827,44.21,67.116,68.934c19.453,23.71,34.95,50.668,54.101,79.04
	c6.219-9.714,12.126-18.743,17.836-27.896c102.996-164.878,256.649-242.462,445.944-237.856
	c199.161,4.839,348.755,100.564,430.366,286.084c58.749,133.534,43.569,269.678-6.048,402.882
	c-60.688,162.936-162.22,300.258-291.454,412.486c-190.616,165.556-389.735,321.329-585.287,481.202
	C997.098,1791.396,993.07,1793.43,986.961,1797.334"/>
</svg>
