<?xml version="1.0" encoding="utf-8"?>
<!-- Generator: Adobe Illustrator 16.0.0, SVG Export Plug-In . SVG Version: 6.00 Build 0)  -->
<!DOCTYPE svg PUBLIC "-//W3C//DTD SVG 1.1//EN" "http://www.w3.org/Graphics/SVG/1.1/DTD/svg11.dtd">
<svg version="1.1" id="Layer_1" xmlns="http://www.w3.org/2000/svg" xmlns:xlink="http://www.w3.org/1999/xlink" x="0px" y="0px"
	 width="2000px" height="2000px" viewBox="0 0 2000 2000" enable-background="new 0 0 2000 2000" xml:space="preserve">
<g>
	<g>
		<path d="M1023.816,1813.449V347.378l13.432-8.667c202.93-130.923,546.049-150.474,732.516-150.474
			c79.83,0,133.223,3.447,141.137,3.988c37.657,0.625,68.096,31.455,68.096,69.259v1319.841c0,38.195-31.068,69.27-69.26,69.27
			l-0.63-0.006c-0.184-0.006-5.083-0.103-14.153-0.103c-74.702,0-465.908,7.116-831.267,147.628L1023.816,1813.449z
			 M1082.492,379.661v1348.892c363.117-129.957,738.635-136.741,812.461-136.741c8.395,0,13.506,0.081,14.973,0.104
			c5.655-0.104,10.395-4.905,10.395-10.589V261.485c0-5.742-4.842-10.592-10.584-10.592l-2.103-0.074
			c-0.544-0.04-55.353-3.905-137.87-3.905C1593.914,246.914,1274.568,264.405,1082.492,379.661z"/>
	</g>
	<g>
		<path d="M976.979,1813.473l-39.87-15.334c-365.352-140.512-756.547-147.629-831.255-147.629c-9.071,0-13.97,0.098-14.159,0.104
			l-0.625,0.006c-38.19,0-69.265-31.074-69.265-69.265V261.508c0-37.81,30.45-68.643,68.119-69.256
			c8.887-0.602,75.906-4.876,172.984-3.767l29,0.332v720.941l121.947-121.989l121.958,121.992V206.162l33.549,4.862
			c167.924,24.344,300.545,67.302,394.18,127.685l13.437,8.667V1813.473z M105.855,1591.834c73.826,0,449.343,6.785,812.449,136.742
			V379.667c-79.361-47.582-188.1-82.962-323.815-105.378v777.158L413.855,870.762l-180.622,180.685v-804.47
			c-83.538-0.138-139.532,3.83-140.082,3.868l-2.08,0.074c-5.741,0-10.589,4.851-10.589,10.589v1319.846
			c0,5.679,4.744,10.479,10.4,10.583C92.355,1591.915,97.46,1591.834,105.855,1591.834z"/>
	</g>
</g>
</svg>
