<?xml version="1.0" encoding="utf-8"?>
<!-- Generator: Adobe Illustrator 16.0.0, SVG Export Plug-In . SVG Version: 6.00 Build 0)  -->
<!DOCTYPE svg PUBLIC "-//W3C//DTD SVG 1.1//EN" "http://www.w3.org/Graphics/SVG/1.1/DTD/svg11.dtd">
<svg version="1.1" id="Layer_1" xmlns="http://www.w3.org/2000/svg" xmlns:xlink="http://www.w3.org/1999/xlink" x="0px" y="0px"
	 width="2000px" height="2000px" viewBox="0 0 2000 2000" enable-background="new 0 0 2000 2000" xml:space="preserve">
<path d="M767.525,897.43c-19.309-76.553-39.549-152.893-57.598-229.751c-11.069-47.182-18.841-95.141-28.012-142.778
	c-1.122-5.781-4.127-12.53-2.306-17.349c33.565-88.856-19.205-169.711-22.891-254.954c-1.262-29.251-2.349-59.711,4.534-87.629
	c3.756-15.206,24.428-26.233,37.467-39.144c10.138,15.677,27.115,30.53,29.109,47.183c5.381,44.821,2.79,90.552,6.64,135.641
	c1.572,18.463,6.667,40.763,18.549,53.526c65.627,70.537,55.49,160.065,66.205,244.651c13.92,109.839,39.524,216.557,89.125,322.278
	c8.531-9.982,14.611-16.853,20.447-23.937c46.908-57.047,97.942-63.655,157.645-19.612
	c71.777,52.957,134.104,114.471,178.688,193.006c62.943,110.854,42.822,184.426-72.846,244.96
	c58.77,140.478,121.238,275.081,291.212,314.407c19.128,4.438,34.135,26.63,51.043,40.602
	c-16.787,14.974-31.189,35.751-50.817,43.832c-56.717,23.402-177.124-21.691-228.997-83.468
	c-31.751-37.821-60.988-77.769-92.543-118.284c-22.099,87.819-3.558,154.604,80.36,196.33
	c38.046,18.91,74.771,41.862,108.267,67.906c15.017,11.676,20.638,35.422,30.526,53.694c-19.576,9.463-39.49,27.184-58.65,26.407
	c-27.839-1.141-59.282-9.673-81.889-25.51c-66.188-46.353-130.692-95.677-191.701-148.627
	c-20.422-17.721-30.041-49.101-41.311-75.628c-6.744-15.873-10.896-34.68-9.81-51.761c8.972-139.994-61.058-242.941-151.953-338.568
	c-51.638-54.366-96.265-115.31-146.021-171.559C592.731,931.99,534.201,787.212,494.463,633.169
	c-4.387-16.985-10.423-36.248-6.502-52.192c14.066-57.269-17.401-96.67-41.113-143.819c-28.937-57.548-41.018-124.191-55.084-188.07
	c-2.772-12.556,18.549-30.418,28.764-45.831c12.531,13.211,34.058,25.202,36.044,39.842c8.843,65.036,12.693,139.57,63.944,178.847
	c77.354,59.282,76.083,143.724,103.034,220.825c25.051,71.648,57.588,140.878,90.108,209.61
	c9.275,19.593,29.99,33.768,45.456,50.415C761.912,901.016,764.718,899.219,767.525,897.43 M1179.76,1221.816
	c5.881-0.051,11.753-0.085,17.625-0.139c1.856-21.347,11.822-46.284,4.223-63.451c-39.075-88.135-104.132-154.566-188.696-209.471
	c-9.731,14.226-18.091,26.453-26.45,38.685C1052.883,1067.983,1116.317,1144.899,1179.76,1221.816"/>
<path d="M1533.276,667.688c-25.776-7.517-77.684-18.454-126.16-37.934c-52.657-21.153-100.496-31.312-148.818,8.568
	c-7.212,5.952-23.636,3.244-34.671,0.315c-2.859-0.758-5.709-20.892-1.338-26.452c38.986-49.651,13.928-90.204-14.604-132.221
	c-6.701-9.889-4.887-25.556-6.986-38.562c12.842,1.007,30.198-3.027,37.823,3.808c65.36,58.581,136.548,57.822,214.368,29.782
	c99.789-35.952,191.106-15.979,272.276,51.412c34.653,28.763,35.007,42.26,2.616,74.693
	C1681.526,647.413,1624.585,667.105,1533.276,667.688"/>
<path d="M438.905,1648.239c-43.048-14.645-95.8-28.011-144.407-50.36c-55.102-25.317-102.492-33.4-145.702,19.725
	c-6.002,7.372-22.66,6.077-34.376,8.806c-1.839-10.294-8.937-24.472-4.672-30.223c34.792-46.871,6.39-75.644-26.933-103.794
	c-4.473-3.783-11.339-6.512-13.186-11.262c-3.792-9.791-4.932-20.587-7.168-30.965c11.709-1.744,27.987-9.344,34.438-4.317
	c77.128,60.014,157.565,41.464,238.71,12.866c66.5-23.437,134.001-29.932,195.242,8.928c31.596,20.051,54.411,53.937,81.188,81.568
	c-31.182,27.252-60.273,57.598-94.382,80.497C499.661,1641.798,472.918,1640.867,438.905,1648.239"/>
<path d="M1820.466,1001.192c-50.283-14.47-90.618-22.89-128.389-37.815c-39.471-15.594-75.229-23.163-112.084,5.415
	c-6.962,5.392-22.332,5.4-30.698,1.385c-4.818-2.297-7.902-20.502-4.007-26.686c22.078-35.111-1.011-53.309-22.806-74.824
	c-9.663-9.55-13.1-25.422-19.37-38.417c15.346,0.315,34.205-5.052,45.422,1.916c56.933,35.344,113.312,22.366,169.959,2.776
	c78.104-27.002,150.71-18.657,217.329,31.295c41.95,31.46,44.878,50.942,0.88,80.963
	C1900.695,971.772,1856.827,984.831,1820.466,1001.192"/>
<path d="M1554.666,1416.385c-0.441,45.264-19.033,70.912-52.234,87.232c-72.354,35.578-176.045,1.33-212.858-70.444
	c-23.557-45.925-8.988-95.179,35.785-120.998c72.933-42.036,188.833-3.868,221.449,73.484
	C1551.798,1397.492,1553.291,1410.807,1554.666,1416.385"/>
</svg>
