<?xml version="1.0" encoding="utf-8"?>
<!-- Generator: Adobe Illustrator 16.0.0, SVG Export Plug-In . SVG Version: 6.00 Build 0)  -->
<!DOCTYPE svg PUBLIC "-//W3C//DTD SVG 1.1//EN" "http://www.w3.org/Graphics/SVG/1.1/DTD/svg11.dtd">
<svg version="1.1" id="Layer_1" xmlns="http://www.w3.org/2000/svg" xmlns:xlink="http://www.w3.org/1999/xlink" x="0px" y="0px"
	 width="2000px" height="2000px" viewBox="0 0 2000 2000" enable-background="new 0 0 2000 2000" xml:space="preserve">
<g>
	<g>
		<path d="M910.157,1679.029c-37.566,0-77.487-4.014-118.67-11.924c-169.65-32.584-304.945-113.814-402.136-241.439
			c-81.73-107.32-122.23-226.868-151.816-314.158c-16.183-47.77-31.472-92.891-45.391-107.526
			c-21.165-22.26-41.487-45.95-60.41-70.408C43.601,819.538,8.581,731.248,24.655,663.637
			C70.985,468.508,410.011,322.7,682.184,322.7c38.053,0,74.558,2.821,108.5,8.381c206.763,33.874,433.367,179.092,673.529,431.619
			c13.981,14.684,27.115,29.265,39.279,43.585c21.051-20.896,45.007-40.828,71.52-59.501c2.58-1.812,5.097-3.626,7.613-5.438
			c6.925-4.987,14.091-10.144,22.174-15.12c53.829-33.169,120.258-49.991,197.425-49.991c49.971,0,94.599,7.254,123.239,13.34
			c18.424,3.935,34.619,15.343,44.456,31.303c9.814,15.879,12.761,35.444,8.083,53.663
			c-18.785,71.881-66.682,202.392-176.725,270.269c-16.137,9.952-33.168,19.17-51.479,27.85
			c12.439,15.947,23.516,31.839,33.479,47.993c67.954,110.043,52.115,248.187,36.619,320.733
			c-3.989,18.43-15.396,34.602-31.293,44.444c-11.139,6.776-23.665,10.296-36.42,10.296l0,0c-5.87,0-11.729-0.751-17.416-2.23
			c-71.789-18.785-202.257-66.721-270.102-176.839c-9.758-15.827-17.812-31.518-24.588-44.983
			c-7.916-15.736-14.962-31.301-21.102-46.652c-2.098,4.735-4.213,9.527-6.352,14.366
			C1335.378,1414.699,1218.65,1679.029,910.157,1679.029z M682.184,381.402c-125.183,0-269.49,33.771-386.01,90.343
			C177.205,529.503,99.052,604.394,81.763,677.209c-7.939,33.395,2.345,98.744,96.411,220.456
			c17.702,22.881,36.717,45.046,56.512,65.87c22.816,23.997,37.766,68.095,58.45,129.13
			c56.787,167.599,151.833,448.11,509.427,516.794c37.537,7.211,73.738,10.868,107.595,10.868
			c270.257,0,373.433-233.649,448.771-404.251c13.449-30.469,26.164-59.252,38.764-84.264c3.285-6.518,8.88-11.574,15.695-14.193
			c0.047-0.018,0.225-0.086,0.367-0.138c7.934-3.142,16.848-2.683,24.422,1.278c7.732,4.047,13.27,11.328,15.1,19.863
			c7.182,33.576,20.385,69.6,39.233,107.057c6.231,12.371,13.592,26.73,22.128,40.574c24.518,39.791,87.628,112.285,234.934,150.837
			c2.637,0.683,5.795,0.246,8.34-1.302c2.23-1.381,3.979-3.881,4.598-6.747c31.793-148.882-4.637-237.812-29.179-277.561
			c-14.566-23.606-31.925-46.721-53.066-70.66c-6.317-7.154-8.765-16.923-6.569-26.198c2.207-9.287,8.776-16.916,17.621-20.471
			c29.725-11.941,55.612-24.793,79.156-39.312c39.75-24.518,112.192-87.654,150.704-235.016c0.699-2.717,0.27-5.724-1.21-8.12
			c-1.49-2.408-3.938-4.119-6.735-4.718c-25.854-5.492-66.132-12.05-111.006-12.05c-66.126,0-122.196,13.887-166.646,41.275
			c-6.289,3.869-12.296,8.194-18.648,12.769c-2.706,1.946-5.405,3.89-8.14,5.816c-33.129,23.326-61.609,48.649-84.619,75.249
			c-5.744,6.635-14.062,10.272-22.931,10.138c-8.771-0.218-16.985-4.351-22.392-11.267c-16.527-21.145-35.76-43.267-57.16-65.756
			c-231.154-243.053-446.649-382.39-640.497-414.151C750.378,383.961,717.061,381.402,682.184,381.402z"/>
	</g>
	<g>
		<g>
			<path d="M1087.134,1443.729h-0.006c-3.474,0-6.948-0.424-10.33-1.25c-28.267-6.965-79.809-25.234-107.927-69.404
				c-3.778-5.91-6.879-11.723-9.729-17.157c-2.809-5.389-5.348-10.737-7.619-16.028c-34.321,10.984-78.181,21.016-130.927,29.912
				c-18.728,3.159-37.835,4.759-56.804,4.759c-91.4,0-180.433-37.388-244.266-102.591c-8.014-8.169-15.765-16.934-23.028-26.031
				c-35.56-44.651-49.61-80.904-42.983-110.875c8.593-38.614,43.258-74.689,97.609-101.615
				c47.844-23.71,104.62-37.305,155.766-37.305c12.95,0,25.481,0.889,37.245,2.64c77.521,11.557,162.06,63.608,251.265,154.717
				c0.556,0.562,1.106,1.124,1.651,1.686c4.054-3.405,8.307-6.725,12.737-9.952l2.557-1.874c2.861-2.127,5.733-4.226,8.84-6.208
				c22.627-14.4,50.379-21.699,82.492-21.699c18.184,0,34.311,2.432,44.635,4.467c11.591,2.252,21.921,9.31,28.262,19.354
				c6.294,9.813,8.329,22.127,5.491,33.639c-6.913,28.192-25.132,79.774-69.324,107.922c-0.149,0.092-0.304,0.194-0.458,0.286
				c0.092,0.144,0.184,0.286,0.27,0.425c28.181,44.175,22.896,98.646,17.237,127.183c-2.351,11.66-9.372,21.91-19.284,28.216
				C1103.294,1441.43,1095.297,1443.729,1087.134,1443.729z M969.788,1272.795c4.655,0,9.287,1.1,13.523,3.296
				c7.647,3.973,13.162,11.104,15.088,19.497c2.311,10.083,6.724,21.543,12.767,33.14c2.315,4.431,4.643,8.788,7.193,12.778
				c13.203,20.74,37.956,32.756,56.335,39.164c1.966-19.33,1.576-46.857-11.626-67.547c-4.689-7.344-10.312-14.601-17.191-22.18
				c-6.404-7.051-8.983-16.773-6.932-26.083c2.07-9.298,8.52-17.021,17.301-20.706c9.494-3.984,17.656-8.186,24.966-12.841
				c20.688-13.174,32.665-37.915,39.062-56.294c-5.113-0.516-10.725-0.865-16.596-0.865c-20.769,0-37.909,4.207-50.951,12.514
				c-1.908,1.215-3.657,2.539-5.423,3.847l-3.038,2.229c-10.33,7.51-19.136,15.564-26.129,23.889
				c-5.646,6.724-14.178,10.633-22.788,10.473c-8.776-0.092-17.054-4.104-22.558-10.949c-5.412-6.73-11.935-14.01-19.371-21.635
				c-80.021-81.713-153.358-128.055-217.936-137.68c-8.902-1.324-18.528-2-28.594-2c-85.232,0-186.017,47.775-196.066,92.936
				c-0.39,1.721-2.803,18.402,31.569,61.562c6.002,7.516,12.422,14.773,19.066,21.549c52.872,54.008,126.616,84.969,202.332,84.969
				c15.708,0,31.529-1.324,47.036-3.938c64.062-10.812,115.185-23.59,147.849-36.947
				C962.244,1273.517,966.021,1272.795,969.788,1272.795z"/>
		</g>
	</g>
	<path d="M477.954,596.575c0-21.274-17.255-38.52-38.523-38.52c-21.279,0-38.523,17.246-38.523,38.52
		c0,21.276,17.244,38.52,38.523,38.52C460.699,635.095,477.954,617.851,477.954,596.575z"/>
	<path d="M677.787,1148.34c0-21.268-17.25-38.518-38.518-38.518c-21.273,0-38.523,17.25-38.523,38.518
		c0,21.279,17.25,38.523,38.523,38.523C660.537,1186.863,677.787,1169.619,677.787,1148.34z"/>
</g>
</svg>
