<?xml version="1.0" encoding="utf-8"?>
<!-- Generator: Adobe Illustrator 16.0.0, SVG Export Plug-In . SVG Version: 6.00 Build 0)  -->
<!DOCTYPE svg PUBLIC "-//W3C//DTD SVG 1.1//EN" "http://www.w3.org/Graphics/SVG/1.1/DTD/svg11.dtd">
<svg version="1.1" id="Layer_1" xmlns="http://www.w3.org/2000/svg" xmlns:xlink="http://www.w3.org/1999/xlink" x="0px" y="0px"
	 width="2000px" height="2000px" viewBox="0 0 2000 2000" enable-background="new 0 0 2000 2000" xml:space="preserve">
<path d="M42.958,722.771c106.847-15.594,208.349-30.469,309.873-45.19c103.212-14.971,206.613-28.761,309.478-45.848
	c14.117-2.347,30.56-18.218,37.506-32.058c84.835-168.979,168.09-338.757,251.779-508.309c6.414-12.979,13.086-25.83,23.187-45.751
	c9.035,16.696,15.893,28.444,21.903,40.616c84.212,170.654,168.744,341.144,251.902,512.307c11.496,23.66,26.1,32.73,51.938,36.326
	c200.514,27.953,400.778,57.745,608.449,88.036c-44.028,43.535-83.792,83.387-124.113,122.654
	c-106.932,104.144-213.794,208.354-321.509,311.678c-15.972,15.318-19.43,29.546-15.652,51.028
	c34.018,193.42,66.755,387.07,99.812,580.662c1.395,8.146,2.199,16.39,4.205,31.606c-51.703-26.982-98.418-51.19-144.982-75.691
	c-134.101-70.545-268.387-140.735-401.939-212.293c-21.974-11.772-39.008-10.422-60.359,0.947
	c-167.973,89.433-336.502,177.813-504.912,266.422c-11.649,6.132-23.732,11.431-41.207,19.782
	c11.691-69.173,22.426-133.26,33.353-197.312c23.443-137.415,46.04-274.993,71.33-412.075c4.719-25.566-2.579-40.312-19.567-56.717
	c-137.01-132.387-273.433-265.384-409.938-398.296C64.186,746.231,55.664,736.35,42.958,722.771"/>
</svg>
