<?xml version="1.0" encoding="utf-8"?>
<!-- Generator: Adobe Illustrator 16.0.0, SVG Export Plug-In . SVG Version: 6.00 Build 0)  -->
<!DOCTYPE svg PUBLIC "-//W3C//DTD SVG 1.1//EN" "http://www.w3.org/Graphics/SVG/1.1/DTD/svg11.dtd">
<svg version="1.1" id="Layer_1" xmlns="http://www.w3.org/2000/svg" xmlns:xlink="http://www.w3.org/1999/xlink" x="0px" y="0px"
	 width="2000px" height="2000px" viewBox="0 0 2000 2000" enable-background="new 0 0 2000 2000" xml:space="preserve">
<path d="M233.547,663.835c-1.113,22.913-3.134,45.815-3.192,68.726c-0.326,120.721-0.031,241.445-0.301,362.166
	c-0.038,16.73-0.554,33.722-3.467,50.136c-5.121,28.931-27.427,46.074-58.588,46.868c-29.374,0.751-51.729-10.956-60.04-40.281
	c-4.502-15.895-6.139-33.076-6.179-49.68c-0.409-186.856-0.344-373.72-0.213-560.573c0.049-74.875,15.57-92.949,88.984-93.333
	c178.431-0.932,356.884-0.501,535.324,0.745c61.833,0.428,80.491,19.226,80.894,82.219c1.041,163.741,1.966,327.522-0.867,491.23
	c-0.996,57.331,18.658,96.444,68.421,123.191c104.479,56.152,206.28,52.961,307.019-9.732
	c37.654-23.431,53.581-56.004,53.292-99.822c-1.071-161.646-1.2-323.305-1.255-484.958
	c-0.031-87.332,15.335-103.125,102.332-103.375c169.01-0.479,338.02-0.202,507.037-0.034c14.657,0.012,29.532,0.27,43.935,2.678
	c27.596,4.599,45.836,19.932,49.071,49.291c1.487,13.531,3.359,27.126,3.369,40.692c0.228,187.909,0.291,375.815-0.099,563.724
	c-0.036,15.538-1.938,31.557-6.04,46.519c-7.892,28.795-31.145,43.222-62.377,41.326c-31.079-1.895-52.072-19.119-56.773-48.923
	c-2.601-16.486-3.002-33.429-3.114-50.174c-0.86-134.328-1.357-268.666-2.195-403.009c-0.055-8.844-1.999-17.673-4.164-35.704
	c-8.741,11.391-14.566,15.628-15.428,20.706c-2.983,17.512-5.876,35.313-5.906,53.01c-0.592,364.253-0.721,728.51-1.224,1092.766
	c-0.024,15.606-1.187,31.563-4.528,46.759c-9.837,44.637-43.517,73.697-82.542,72.97c-42.778-0.785-79.442-32.596-82.5-79.915
	c-4.312-66.887-4.164-134.123-4.244-201.213c-0.197-163.738,0.824-327.477,0.166-491.208c-0.025-7.462-13.171-21.888-17.428-20.91
	c-10.139,2.319-23.271,10.162-26.6,19.015c-4.472,11.886-0.726,26.815-0.726,40.435c0.03,199.461,0.547,398.915-0.566,598.364
	c-0.159,28.818-5.001,58.562-13.429,86.123c-9.843,32.167-36.609,48.64-70.012,48.807c-34.068,0.172-62.494-14.604-74.429-47.749
	c-7.973-22.146-12.481-46.796-12.556-70.351c-1.119-373.7-1.162-747.399-2.079-1121.104c-0.037-12.706-6.638-25.4-10.175-38.093
	c-4.884,12.241-13.835,24.422-14.02,36.737c-1.574,108-1.612,216.017-2.049,324.04c-0.129,29.394-0.03,58.785-0.11,88.179
	c-0.099,37.045-16.363,63.473-49.692,80.837c-39.949,20.824-78.834,43.708-118.327,65.417
	c-52.731,28.987-56.078,38.301-38.521,95.068c28.476,92.027,56.06,184.333,84.85,279.266c-32.499,4.656-62.354,8.943-96.139,13.785
	c0,58.921,0.505,117.318-0.227,175.709c-0.326,26.021-0.634,52.48-5.47,77.887c-5.277,27.755-27.417,38.022-54.188,38.133
	c-27.603,0.105-46.304-13.3-53.016-40.04c-3.776-15.072-5.321-31.035-5.487-46.631c-0.614-58.778-0.135-117.569-0.363-176.354
	c-0.03-9.485-1.568-18.966-2.404-28.444l-9.16-0.043c-0.855,10.415-2.39,20.829-2.427,31.249
	c-0.246,61.935,0.445,123.876-0.354,185.805c-0.553,42.224-15.369,66.032-42.393,72.7c-44.313,10.92-75.321-15.077-76.132-66.136
	c-1.021-64.003-0.265-128.027-0.277-192.043c0-9.361,0-18.73,0-31.231c-31.521-4.712-62.037-9.263-95.68-14.291
	c28.624-94.519,56.094-186.694,84.517-278.569c17.75-57.364,14.57-66.523-37.753-95.302c-35.824-19.69-70.439-41.886-107.358-59.185
	c-43.381-20.33-62.211-51.581-61.688-99.343c1.347-122.725,0.572-245.481,0.301-368.227c-0.037-16.732-1-33.625-3.639-50.111
	c-1.074-6.685-7.782-12.467-11.919-18.664c-3.66,6.211-8.769,12.03-10.565,18.74c-1.833,6.853-0.427,14.583-0.434,21.934
	c-0.372,372.645-0.584,745.298-1.531,1117.946c-0.049,21.629-3.206,44.162-9.871,64.672c-11.301,34.793-42.382,54.859-76.812,54.436
	c-33.797-0.413-62.175-19.241-73.001-54.504c-7.253-23.628-10.886-49.287-10.957-74.054c-0.578-209.942,0.038-419.886,0.252-629.835
	c0.006-6.268,2.008-15.354-1.246-18.264c-8.342-7.419-18.648-14.455-29.193-16.578c-3.755-0.764-15.105,13.041-15.13,20.227
	c-0.593,167.94,0.062,335.885,0.102,503.83c0.019,58.73,1.058,117.583-2.571,176.122c-1.335,21.647-10.344,45.903-23.484,63.147
	c-33.286,43.656-101.136,39.721-127.511-8.238c-12.962-23.566-19.747-53.574-19.855-80.71
	c-1.377-364.243-0.994-728.499-1.467-1092.754c-0.024-18.728-3.589-37.488-6.084-56.157c-0.757-5.679-3.46-11.088-5.269-16.626
	C242.117,658.407,237.832,661.119,233.547,663.835"/>
<path d="M624.566,237.441c-0.03,93.601-75.905,167.817-171.642,167.888c-95.169,0.061-169.739-75.152-168.7-170.165
	C285.246,142.304,359.896,66.73,452.004,65.3C544.604,63.87,624.597,143.663,624.566,237.441"/>
<path d="M1587.061,404.84c-96.058-0.397-171.096-74.343-170.788-168.303c0.296-92.853,77.283-170.41,170.104-171.366
	c92.146-0.944,169.595,76.693,170.191,170.609C1757.165,330.968,1682.711,405.231,1587.061,404.84"/>
<path d="M1143.38,1023.792c-3.18,70.388-62.058,131-125.561,129.27c-65.097-1.782-123.023-67.857-120.397-137.335
	c2.553-67.483,62.362-127.227,125.478-125.345C1088.206,892.333,1146.406,956.771,1143.38,1023.792"/>
</svg>
