<?xml version="1.0" encoding="utf-8"?>
<!-- Generator: Adobe Illustrator 16.0.0, SVG Export Plug-In . SVG Version: 6.00 Build 0)  -->
<!DOCTYPE svg PUBLIC "-//W3C//DTD SVG 1.1//EN" "http://www.w3.org/Graphics/SVG/1.1/DTD/svg11.dtd">
<svg version="1.1" id="Layer_1" xmlns="http://www.w3.org/2000/svg" xmlns:xlink="http://www.w3.org/1999/xlink" x="0px" y="0px"
	 width="2000px" height="2000px" viewBox="0 0 2000 2000" enable-background="new 0 0 2000 2000" xml:space="preserve">
<g>
	<g>
		<path d="M1512.381,1615.664c-0.055,0-0.1,0-0.16,0c-11.148-0.067-21.237-6.629-25.785-16.807
			c-47.073-105.461,10.633-194.581,42.391-232.524C1189.86,943.959,741.445,849.705,651.509,834.649
			c-9.618,26.404,1.925,90.51,21.448,141.937c1.847,3.769,2.884,8.006,2.884,12.485c0,15.683-12.712,28.396-28.398,28.396
			c-0.044,0-0.078,0-0.122,0c-2.318,0-4.653-0.283-6.966-0.865c-122.011-30.914-168.274-117.07-179.75-176.439
			c-45.963,6.453-87.845,34.08-116.287,57.728c-32.292,26.842-53.773,53.57-58.449,59.577
			c-37.05,64.658-68.832,79.246-80.113,82.484c-7.421,2.396-14.615,3.605-21.387,3.605c-14.754,0-28.126-5.835-37.661-16.439
			c-19.374-21.564-16.8-55.917-16.084-62.583c0.177-1.67,0.504-3.32,0.976-4.931c10.599-36.349,1.875-94.537-2.507-114.548
			c-29.917-116.129,14.471-189.331,24.727-204.196c46.263-91.888,123.082-158.931,228.37-199.279
			c75.537-28.95,163.925-43.628,262.697-43.628c61.876,0,110.78,5.907,133.587,9.265c71.583-61.477,148.772-92.631,229.634-92.631
			c147.792,0,256.119,104.065,271.4,119.535c5.896,5.206,9.611,12.815,9.611,21.295c0,15.492-12.401,28.085-27.814,28.393
			c-3.34,0.066-6.611-0.411-9.852-1.511c-32.164-10.957-61.754-16.512-87.949-16.512c-59.908,0-91.112,29.621-105.777,50.828
			c204.51,112.848,359.889,314.628,455.57,467.045c84.367,134.399,136.926,251.679,156.648,298.557
			c26.784-4.021,52.236-6.062,75.914-6.062c102.327,0,158.324,37.993,187.277,69.853c27.499,30.262,36.534,60.623,38.996,71.217
			c0.827,2.662,1.271,5.502,1.271,8.436c0,15.68-12.713,28.398-28.398,28.398c-0.033-0.006-0.078,0-0.078,0
			c-5.763,0-11.48-1.73-16.373-5.176c-17.121-12.047-34.737-18.158-52.354-18.158c-20.244,0-34.071,8.152-34.199,8.236
			c-1.158,0.748-2.368,1.414-3.621,1.99c-34.205,15.675-65.077,23.629-91.771,23.629c-14.877,0-27.168-2.43-37.207-6.002
			c-20.91,30.129-60.09,45.925-86.025,51.111c-0.843,0.172-1.691,0.299-2.54,0.394c-33.162,3.55-70.002,61.511-82.647,89.026
			C1533.553,1609.186,1523.469,1615.664,1512.381,1615.664z M638.719,775.615c1.082,0,2.18,0.061,3.272,0.189
			c5.652,0.657,140.714,16.986,325.555,95.97c170.21,72.733,416.123,214.806,621.043,478.602c9.062,11.659,7.671,28.32-3.2,38.315
			c-2.878,2.684-56.602,53.717-59.552,123.203c21.681-27.122,51.415-53.496,87.15-58.077c6.473-1.597,52.854-13.978,53.924-39.856
			c0.549-13.245,9.367-25.963,22.407-28.365c12.734-2.362,24.626,2.674,30.051,14.277c1.975,1.946,9.468,7.908,27.239,7.908
			c18.147,0,40.577-5.995,66.701-17.826c7.344-4.26,30.55-16.029,62.891-16.029c1.477,0,2.94,0.028,4.41,0.078
			c-24.904-21.57-66.33-41.055-134.752-41.055c-26.861,0-56.596,3.018-88.394,8.963c-13.438,2.507-26.767-4.914-31.704-17.666
			c-0.555-1.431-56.584-144.957-161.168-311.35c-95.66-152.19-252.736-355.362-457.795-458.971
			c-12.485-6.309-18.514-20.769-14.215-34.08c11.842-36.659,59.608-104.551,157.159-110.447
			c-38.675-20.575-87.439-38.018-141.635-38.018c-70.229,0-138.134,29.285-201.824,87.041c-6.572,5.957-15.552,8.505-24.266,6.883
			c-0.555-0.103-58.094-10.558-137.131-10.558c-277.101,0-392.884,116.057-441.215,213.417c-0.832,1.681-1.831,3.275-2.979,4.759
			c-1.592,2.138-42.38,58.515-16.49,158.393c0.078,0.321,0.161,0.643,0.233,0.968c0.754,3.395,17.993,82.465,2.529,140.217
			c-0.222,4.567,0.216,9.878,1.042,13.5c0.194-0.061,0.399-0.127,0.61-0.197c1.653-0.552,0.976-0.588,1.525-0.646
			c4.465-2.427,22.94-14.44,47.306-57.428c0.583-1.032,1.231-2.027,1.941-2.981c4.426-5.929,111.478-147.369,247.555-142.661
			c15.286,0.538,27.399,13.084,27.399,28.381c0.05,3.902,2.247,86.131,88.322,131.615c-13.372-52.796-22.075-125.394,17.494-159.563
			C625.341,778.042,631.947,775.615,638.719,775.615z"/>
	</g>
	<g>
		<path d="M1188.43,1687.285c-89.887,0.006-187.41-44.649-198.104-168.818c-12.247-7.465-48.925-23.345-139.338-23.345
			c-36.08,0-77.207,2.546-122.499,7.582c-0.533,17.903,2.979,44.716,24.942,62.509c8.081,6.556,11.941,17.006,10.044,27.244
			c-1.896,10.238-9.251,18.613-19.146,21.83c-2.535,0.822-16.246,4.938-37.056,4.938c-31.077,0-88.782-9.834-141.34-72.281
			c-34.255,9.334-111.406,25.935-226.873,25.935c-44.583,0-91.012-2.513-138.168-7.477c-19.662,13.577-65.032,42.94-98.854,49.718
			c-3.229,0.649-6.761,0.977-10.516,0.977c-16.995,0-48.976-7.26-61.044-34.477c-6.567-14.82-8.581-38.902,19.119-69.464
			c13.505-14.909,19.529-25.28,22.108-32.103c-2.679-20.223-5.507-75.1,30.767-128.778
			c36.745-54.372,101.206-90.618,191.763-107.851c22.735-45.498,103.808-177.836,277.429-177.836
			c14.604,0,29.679,0.976,44.826,2.906c12.269,1.563,22.114,10.887,24.344,23.051c2.229,12.169-3.672,24.377-14.587,30.184
			c-0.965,0.521-86.563,47.961-96.531,102.82c7.271-0.399,15.763-0.666,25.475-0.666c80.989,0,255.154,19.059,519.077,145.096
			c18.536-9.617,52.702-23.633,94.545-23.633c44.282,0,109.737,16.162,170.088,93.152c8.558,10.922,7.97,26.424-1.387,36.674
			c-4.448,4.863-43.812,44.893-139.821,50.483c14.199,29.44,29.092,72.631,34.172,130.142c1.365,15.441-9.917,29.131-25.336,30.739
			C1205.789,1686.613,1199.028,1687.285,1188.43,1687.285z M850.988,1438.326c146.97,0,183.305,39.297,190.937,51.332
			c2.69,4.249,4.204,9.125,4.394,14.145c3.705,98.682,73.557,122.211,124.955,126.06c-13.238-76.437-45.441-113.524-45.808-113.936
			c-7.654-8.63-9.407-21.12-4.321-31.471c5.092-10.344,15.914-16.64,27.355-15.885c9.041,0.621,17.943,0.937,26.49,0.937
			c48.271,0,80.074-10.033,98.904-19.041c-31.98-32.092-67.217-48.326-105.083-48.326c-43.929,0-76.874,22.098-77.207,22.319
			c-8.403,5.741-19.362,6.617-28.53,2.169c-261.35-126.992-430.39-145.949-507.885-145.949c-30.566,0-46.241,3.017-46.396,3.05
			c-14.637,2.884-29.191-6.04-33.068-20.472c-14.792-55.127,15.597-102.737,49.985-136.737
			c-132.971,24.683-184.963,151.374-185.529,152.788c-3.688,9.279-11.98,15.936-21.831,17.533
			c-81.849,13.289-138.457,42.02-168.247,85.393c-31.193,45.415-21.997,91.634-21.592,93.58c0.826,3.949,0.849,8.248-0.028,12.191
			c-4.293,19.312-16.329,39.69-36.795,62.287c-3.05,3.361-5.03,6.034-6.312,8.031c1.985,0.565,4.259,0.977,6.14,0.977
			c-0.017,0.005-0.055,0.011-0.111,0.021c22.447-4.77,64-30.816,85.094-46.235c5.757-4.204,12.879-6.106,19.962-5.302
			c48.753,5.502,96.736,8.297,142.6,8.297c146.105-0.006,226.8-28.381,227.599-28.664c11.897-4.281,25.264-0.188,32.668,10.056
			c28.004,38.698,57.284,55.359,81.86,61.649c-16.612-43.186-6.24-86.381-5.607-88.91c2.851-11.37,12.396-19.828,24.027-21.281
			C755.911,1441.893,806.844,1438.326,850.988,1438.326z"/>
	</g>
</g>
</svg>
