<?xml version="1.0" encoding="utf-8"?>
<!-- Generator: Adobe Illustrator 16.0.0, SVG Export Plug-In . SVG Version: 6.00 Build 0)  -->
<!DOCTYPE svg PUBLIC "-//W3C//DTD SVG 1.1//EN" "http://www.w3.org/Graphics/SVG/1.1/DTD/svg11.dtd">
<svg version="1.1" id="Layer_1" xmlns="http://www.w3.org/2000/svg" xmlns:xlink="http://www.w3.org/1999/xlink" x="0px" y="0px"
	 width="2000px" height="2000px" viewBox="0 0 2000 2000" enable-background="new 0 0 2000 2000" xml:space="preserve">
<g>
	<path fill="#010101" d="M132.384,470.688c-40.716,0-74.657-13.529-108.577-27.102v162.866
		c33.92,13.572,67.861,27.101,108.577,27.101c72.008,0,122.887-42.323,190.01-52.117V418.57
		C255.271,428.363,204.392,470.688,132.384,470.688z"/>
	<path fill="#010101" d="M1869.616,470.688c-81.433,0-135.722-54.289-217.154-54.289s-135.721,54.289-217.153,54.289
		c-81.434,0-135.722-54.289-217.153-54.289c-81.433,0-135.723,54.289-217.155,54.289s-135.721-54.289-217.154-54.289
		c-81.433,0-135.722,54.289-217.153,54.289c-9.425,0-18.393-0.869-27.145-2.172v162.865c8.752,1.303,17.72,2.172,27.145,2.172
		c81.433,0,135.721-54.289,217.153-54.289c81.434,0,135.722,54.289,217.154,54.289s135.722-54.289,217.154-54.289
		c81.432,0,135.721,54.289,217.154,54.289c81.433,0,135.721-54.289,217.152-54.289s135.723,54.289,217.154,54.289
		c40.717,0,74.656-13.571,108.577-27.145V443.542C1944.273,457.115,1910.333,470.688,1869.616,470.688z"/>
	<path fill="#010101" d="M609.73,1300.91c-21.216,21.216-21.216,55.57,0,76.764c5.299,5.299,11.424,9.272,17.981,11.923
		c6.536,2.648,13.485,3.975,20.435,3.975c6.948,0,13.897-1.325,20.435-3.975s12.639-6.624,17.938-11.923l70.184-70.184v86.102
		c0,74.831-60.869,135.722-135.721,135.722c-74.811,0-135.722-60.891-135.722-135.722c0-0.044,0-0.087,0-0.131V616.896V454.031
		V90.667H376.682V418.57v162.865v812.156c0,134.724,109.576,244.298,244.299,244.298c134.722,0,244.298-109.574,244.298-244.298
		v-348.207L609.73,1300.91z"/>
	<path fill="#010101" d="M1206.167,1212.094c-5.319,5.646-8.013,13.291-7.318,20.979c0.652,7.73,4.604,14.789,10.814,19.414
		l292.008,218.001c10.922,7.253,14.657,27.101,15.049,31.702c0,14.941-12.204,27.146-27.146,27.146h-272.269
		c-11.031,0-20.934,6.668-25.124,16.853c-4.146,10.185-1.759,21.89,6.104,29.642l54.438,53.572
		c171.747,181.802,481.17,279.934,725.47,279.934c0,0,0-12.139,0-27.146V904.995c0-14.983,0-27.146,0-27.146
		C1761.039,877.851,1383.887,1023.865,1206.167,1212.094z M1666.034,1244.299c-30.011,0-54.288-24.277-54.288-54.289
		c0-30.01,24.277-54.288,54.288-54.288c30.012,0,54.289,24.278,54.289,54.288
		C1720.323,1220.021,1696.046,1244.299,1666.034,1244.299z"/>
</g>
</svg>
