<?xml version="1.0" encoding="utf-8"?>
<!-- Generator: Adobe Illustrator 16.0.0, SVG Export Plug-In . SVG Version: 6.00 Build 0)  -->
<!DOCTYPE svg PUBLIC "-//W3C//DTD SVG 1.1//EN" "http://www.w3.org/Graphics/SVG/1.1/DTD/svg11.dtd">
<svg version="1.1" id="Layer_1" xmlns="http://www.w3.org/2000/svg" xmlns:xlink="http://www.w3.org/1999/xlink" x="0px" y="0px"
	 width="2000px" height="2000px" viewBox="0 0 2000 2000" enable-background="new 0 0 2000 2000" xml:space="preserve">
<g>
	<g>
		<path d="M1373.628,791.225c-5,0-9.944-0.787-14.701-2.342c-35.49-11.703-99.563-40.03-130.74-98.526
			c-4.385-8.213-7.883-16.231-10.827-23.103c-4.467-10.458-8.227-20.761-11.242-30.844c-47.74,12.129-110.145,21.72-186.109,28.585
			c-13.305,1.203-26.819,1.812-40.168,1.812c-132.448,0-257.189-58.146-342.222-159.53c-9.69-11.564-18.893-23.76-27.369-36.258
			c-40.89-60.333-55.447-107.138-44.504-143.088c28.715-94.346,183.531-152.745,310.501-152.745c28.078,0,54.488,2.786,78.492,8.276
			c99.873,22.837,205.346,99.791,313.49,228.717c2.926,3.496,5.765,6.968,8.515,10.414c7.993-6.195,16.569-12.104,25.661-17.692
			l3.631-2.268c3.459-2.173,7.373-4.64,11.785-6.993c24.869-13.26,54.111-19.982,86.913-19.982c30.745,0,58.552,5.951,76.462,10.943
			c12.401,3.481,22.939,11.941,28.971,23.222c6.026,11.259,7.213,24.722,3.255,36.923c-11.714,35.537-40.014,99.629-98.477,130.829
			c-3.47,1.854-7.019,3.639-10.644,5.363c2.051,3.442,3.991,6.894,5.849,10.364c31.232,58.457,19.054,127.466,9.009,163.397
			c-3.531,12.417-11.975,22.923-23.201,28.946C1388.928,789.338,1381.289,791.225,1373.628,791.225z M1227.105,572.539
			c5.233,0,10.422,1.447,14.957,4.266c7.084,4.391,11.885,11.669,13.11,19.907c2.206,14.685,7.179,31.36,14.386,48.224
			c2.467,5.773,5.394,12.476,8.72,18.718c19.847,37.239,63.413,58.338,88.741,67.895c6.16-26.254,12.961-74.256-6.945-111.506
			c-5.787-10.846-12.867-21.606-21.653-32.909c-5.66-7.285-7.439-16.861-4.745-25.687c2.683-8.822,9.49-15.793,18.249-18.685
			c13.582-4.487,25.45-9.479,36.288-15.264c37.209-19.857,58.291-63.418,67.843-88.761c-13.881-3.268-31.986-6.312-51.322-6.312
			c-23.394,0-43.64,4.474-60.192,13.299c-2.605,1.394-5.361,3.124-8.271,4.956c-1.385,0.87-2.771,1.741-4.168,2.6
			c-15.312,9.408-28.6,19.799-39.471,30.878c-5.943,6.045-14.285,9.125-22.74,8.39c-8.447-0.74-16.12-5.225-20.921-12.218
			c-6.896-10.051-15.051-20.708-24.242-31.679c-100.007-119.226-195.101-189.832-282.64-209.852
			c-19.868-4.543-42.015-6.847-65.841-6.847c-116.16,0-238.274,53.629-256.197,112.513c-2.517,8.266-3.93,34.035,37.192,94.707
			c7.395,10.907,15.428,21.551,23.876,31.635c74.217,88.484,183.099,139.235,298.722,139.235c11.652,0,23.438-0.532,35.058-1.58
			c88.691-8.019,157.161-19.646,203.516-34.559C1221.252,572.988,1224.179,572.539,1227.105,572.539z"/>
	</g>
	<g>
		<path d="M848.861,1175.043L848.861,1175.043c-5.006,0-9.951-0.787-14.702-2.344c-35.484-11.703-99.557-40.031-130.734-98.527
			c-4.224-7.927-7.7-15.787-10.832-23.105c-4.468-10.455-8.221-20.76-11.237-30.844c-47.747,12.129-110.151,21.72-186.109,28.588
			c-13.305,1.203-26.82,1.812-40.169,1.812c-132.453,0-257.183-58.146-342.228-159.53c-9.685-11.561-18.898-23.754-27.363-36.252
			c-40.895-60.348-55.452-107.155-44.509-143.097c28.727-94.346,183.537-152.743,310.507-152.743
			c28.073,0,54.482,2.786,78.492,8.277c99.868,22.837,205.34,99.79,313.49,228.717c2.921,3.49,5.76,6.962,8.509,10.411
			c8-6.192,16.564-12.102,25.656-17.689l3.625-2.259c3.459-2.181,7.395-4.654,11.824-7.015
			c24.852-13.247,54.089-19.968,86.89-19.968c30.745,0,58.552,5.951,76.452,10.943c12.429,3.487,22.973,11.955,28.999,23.247
			c6.009,11.27,7.185,24.722,3.221,36.906c-11.691,35.521-39.986,99.61-98.459,130.82c-3.476,1.854-7.018,3.639-10.644,5.361
			c2.051,3.448,3.997,6.899,5.849,10.366c31.238,58.46,19.053,127.466,9.008,163.399c-3.537,12.43-11.991,22.935-23.228,28.949
			C864.189,1173.148,856.539,1175.043,848.861,1175.043z M702.344,956.355c5.233,0,10.422,1.447,14.968,4.269
			c7.079,4.393,11.869,11.675,13.1,19.915c2.201,14.674,7.168,31.346,14.369,48.209c3.049,7.107,5.699,13.022,8.742,18.727
			c19.84,37.242,63.413,58.341,88.736,67.893c6.165-26.26,12.961-74.256-6.946-111.51c-5.771-10.821-12.856-21.583-21.659-32.917
			c-5.66-7.281-7.428-16.858-4.74-25.681c2.678-8.82,9.485-15.788,18.244-18.682c13.587-4.491,25.462-9.482,36.294-15.267
			c37.214-19.86,58.291-63.419,67.837-88.758c-13.876-3.268-31.981-6.312-51.317-6.312c-23.388,0-43.645,4.477-60.192,13.299
			c-2.628,1.4-5.377,3.129-8.288,4.959c-1.38,0.87-2.761,1.741-4.158,2.597c-15.312,9.407-28.6,19.799-39.465,30.872
			c-5.938,6.054-14.264,9.119-22.729,8.396c-8.448-0.737-16.126-5.217-20.927-12.21c-6.924-10.089-15.084-20.75-24.248-31.687
			C599.96,713.241,504.86,642.632,417.321,622.614c-19.862-4.543-42.015-6.846-65.835-6.846
			c-116.16,0-238.274,53.626-256.202,112.51c-2.517,8.26-3.925,34.029,37.197,94.715c7.39,10.904,15.422,21.548,23.871,31.629
			c74.218,88.484,183.104,139.235,298.727,139.235c11.647,0,23.444-0.532,35.058-1.58c88.692-8.019,157.161-19.646,203.516-34.559
			C696.49,956.804,699.423,956.355,702.344,956.355z"/>
	</g>
	<g>
		<path d="M1822.004,1546.918c-5.006,0-9.955-0.793-14.713-2.35c-35.479-11.697-99.545-40.02-130.729-98.521
			c-4.406-8.271-7.899-16.264-10.826-23.105c-4.474-10.455-8.227-20.755-11.242-30.844
			c-47.747,12.129-110.151,21.719-186.109,28.588c-13.305,1.203-26.82,1.812-40.169,1.812
			c-132.452,0-257.188-58.146-342.228-159.533c-9.657-11.52-18.859-23.715-27.363-36.244
			c-40.895-60.353-55.458-107.157-44.51-143.102c28.727-94.347,183.543-152.743,310.514-152.743c28.072,0,54.482,2.786,78.491,8.276
			c99.868,22.837,205.34,99.791,313.483,228.717c2.922,3.487,5.76,6.963,8.516,10.411c7.982-6.188,16.559-12.096,25.65-17.684
			l3.619-2.262c3.471-2.185,7.396-4.657,11.819-7.008c24.863-13.26,54.101-19.979,86.907-19.979
			c30.738,0,58.545,5.953,76.457,10.942c12.423,3.487,22.967,11.958,28.987,23.255c6.003,11.248,7.185,24.691,3.231,36.871
			c-11.707,35.557-40.008,99.646-98.471,130.851c-3.476,1.852-7.018,3.637-10.643,5.354c2.057,3.449,4.002,6.896,5.854,10.367
			c31.221,58.463,19.047,127.469,9.002,163.396c-3.531,12.424-11.979,22.935-23.211,28.955
			C1837.316,1545.022,1829.666,1546.918,1822.004,1546.918z M1675.482,1328.229c5.232,0,10.422,1.446,14.967,4.269
			c7.074,4.396,11.869,11.675,13.105,19.918c2.195,14.674,7.162,31.344,14.375,48.201c2.461,5.76,5.377,12.435,8.73,18.732
			c19.852,37.242,63.413,58.335,88.736,67.887c6.158-26.254,12.955-74.262-6.94-111.51c-5.766-10.799-12.851-21.564-21.67-32.918
			c-5.655-7.278-7.429-16.857-4.734-25.683c2.683-8.82,9.496-15.788,18.249-18.677c13.571-4.484,25.451-9.479,36.289-15.262
			c37.197-19.857,58.285-63.418,67.831-88.764c-13.864-3.266-31.976-6.309-51.306-6.309c-23.395,0-43.65,4.479-60.198,13.299
			c-2.622,1.397-5.377,3.133-8.293,4.967l-4.152,2.59c-15.322,9.412-28.599,19.801-39.454,30.866
			c-5.941,6.054-14.219,9.153-22.723,8.404c-8.454-0.737-16.126-5.211-20.933-12.207c-6.962-10.134-15.128-20.8-24.253-31.687
			c-100.018-119.232-195.106-189.835-282.646-209.858c-19.862-4.543-42.015-6.847-65.835-6.847
			c-116.16,0-238.286,53.623-256.209,112.508c-2.511,8.26-3.93,34.031,37.198,94.717c7.417,10.932,15.45,21.582,23.864,31.632
			c74.224,88.481,183.111,139.233,298.733,139.233c11.653,0,23.444-0.533,35.058-1.58c88.697-8.021,157.16-19.646,203.516-34.559
			C1669.628,1328.679,1672.561,1328.229,1675.482,1328.229z"/>
	</g>
	<g>
		<path d="M1035.187,1826.548h-0.005c-5.012,0-9.968-0.787-14.729-2.351c-35.452-11.686-99.524-40.008-130.718-98.515
			c-4.369-8.199-7.877-16.221-10.821-23.095c-4.468-10.467-8.221-20.771-11.237-30.85c-47.747,12.123-110.157,21.719-186.115,28.582
			c-13.305,1.203-26.82,1.812-40.169,1.812c-132.442,0-257.178-58.146-342.228-159.527c-9.685-11.564-18.887-23.76-27.357-36.261
			c-40.895-60.336-55.453-107.141-44.51-143.091c28.721-94.346,183.537-152.742,310.496-152.742c28.084,0,54.494,2.783,78.503,8.276
			c99.868,22.834,205.34,99.79,313.484,228.718c2.916,3.492,5.765,6.968,8.509,10.41c8-6.191,16.57-12.102,25.667-17.689l3.604-2.25
			c3.465-2.186,7.395-4.657,11.825-7.02c24.857-13.254,54.094-19.973,86.901-19.973c30.745,0,58.552,5.948,76.463,10.943
			c12.39,3.47,22.934,11.936,28.971,23.222c6.026,11.265,7.206,24.724,3.237,36.926c-11.691,35.528-39.991,99.624-98.459,130.823
			c-3.477,1.857-7.019,3.643-10.645,5.365c2.051,3.438,3.997,6.892,5.849,10.361c31.238,58.463,19.054,127.464,9.009,163.397
			c-3.537,12.429-11.985,22.939-23.223,28.96C1050.486,1824.663,1042.848,1826.548,1035.187,1826.548z M888.664,1607.865
			c5.233,0,10.422,1.446,14.968,4.268c7.079,4.391,11.869,11.676,13.105,19.913c2.195,14.674,7.157,31.349,14.369,48.218
			c2.589,6.043,5.399,12.479,8.72,18.704c19.862,37.253,63.424,58.353,88.747,67.903c6.165-26.26,12.956-74.256-6.946-111.51
			c-5.787-10.843-12.867-21.603-21.653-32.906c-5.66-7.284-7.423-16.863-4.746-25.678c2.689-8.825,9.49-15.793,18.25-18.688
			c13.598-4.496,25.467-9.49,36.288-15.268c37.208-19.861,58.29-63.424,67.837-88.758c-13.881-3.271-31.986-6.314-51.317-6.314
			c-23.394,0-43.645,4.475-60.192,13.299c-2.616,1.398-5.372,3.127-8.282,4.963l-4.152,2.588
			c-15.328,9.419-28.61,19.808-39.459,30.873c-5.943,6.059-14.308,9.113-22.734,8.398c-8.448-0.732-16.126-5.211-20.933-12.207
			c-6.918-10.078-15.079-20.738-24.253-31.688c-100.006-119.227-195.101-189.834-282.64-209.853
			c-19.868-4.54-42.02-6.847-65.847-6.847c-116.154,0-238.263,53.629-256.191,112.508c-2.517,8.266-3.931,34.043,37.192,94.712
			c7.395,10.909,15.428,21.554,23.876,31.632c74.223,88.486,183.105,139.238,298.722,139.238c11.653,0,23.438-0.532,35.058-1.58
			c88.697-8.016,157.172-19.646,203.521-34.559C882.81,1608.313,885.743,1607.865,888.664,1607.865z"/>
	</g>
	<path d="M856.706,345.33c0-23.602-19.131-42.735-42.725-42.735c-23.604,0-42.741,19.134-42.741,42.735
		c0,23.607,19.136,42.738,42.741,42.738C837.575,388.068,856.706,368.937,856.706,345.33z"/>
	<path d="M331.95,729.146c0-23.602-19.136-42.735-42.735-42.735c-23.604,0-42.747,19.133-42.747,42.735
		c0,23.604,19.142,42.735,42.747,42.735C312.813,771.881,331.95,752.75,331.95,729.146z"/>
	<path d="M1305.082,1101.02c0-23.599-19.137-42.734-42.73-42.734c-23.604,0-42.74,19.136-42.74,42.734
		c0,23.605,19.136,42.736,42.74,42.736C1285.945,1143.756,1305.082,1124.625,1305.082,1101.02z"/>
	<path d="M518.264,1380.655c0-23.604-19.137-42.735-42.725-42.735c-23.61,0-42.747,19.131-42.747,42.735
		s19.137,42.735,42.747,42.735C499.127,1423.391,518.264,1404.26,518.264,1380.655z"/>
</g>
</svg>
