<?xml version="1.0" encoding="utf-8"?>
<!-- Generator: Adobe Illustrator 16.0.0, SVG Export Plug-In . SVG Version: 6.00 Build 0)  -->
<!DOCTYPE svg PUBLIC "-//W3C//DTD SVG 1.1//EN" "http://www.w3.org/Graphics/SVG/1.1/DTD/svg11.dtd">
<svg version="1.1" id="Layer_1" xmlns="http://www.w3.org/2000/svg" xmlns:xlink="http://www.w3.org/1999/xlink" x="0px" y="0px"
	 width="2000px" height="2000px" viewBox="0 0 2000 2000" enable-background="new 0 0 2000 2000" xml:space="preserve">
<g>
	<path d="M1718.771,356.115c-169.99-173.561-396.43-271.671-637.587-276.251l-2.089-0.044l-2.076-0.208
		c-0.57-0.06-1.125-0.119-1.674-0.163c-28.434,0.296-41.394,25.283-41.394,48.522c0,17.443,2.86,29.952,8.271,36.162
		c6.564,7.543,22.674,11.871,45.342,12.197l52.383,0.711v2.075c87.329,7.114,172.924,29.019,255.103,65.343
		c95.384,42.149,181.49,101.563,255.948,176.584c155.428,156.606,241.023,361.69,241.023,577.445
		c0,219.312-86.152,426.5-242.58,583.402c-156.577,157.037-363.506,243.528-582.67,243.528
		c-209.359,0-408.782-76.962-561.564-216.718c-153.376-140.305-246.255-331.709-261.535-538.941l-4.209-57.029h57.177h84.587
		L199.641,710.87L18.129,1012.76h74.999h50.078l2.949,49.989c28.403,482.003,431.302,859.565,917.246,859.565
		c506.834,0,919.172-413.324,919.172-921.366C1982.572,758.813,1888.879,529.81,1718.771,356.115z"/>
	<path d="M1005.749,1553.154c0,33.805,27.344,61.03,61.022,61.03c33.568,0,61.031-27.226,61.031-61.03
		c0-33.775-27.463-61.016-61.031-61.016C1033.107,1492.139,1005.771,1519.379,1005.749,1553.154z"/>
	<path d="M1469.834,692.271c33.782,0,61.015-27.24,61.015-60.912c0-33.687-27.232-61.03-61.015-61.03
		c-33.576,0-60.809,27.343-60.809,61.03C1409.025,665.031,1436.258,692.271,1469.834,692.271z"/>
	<path d="M1469.834,1423.98c33.782,0,61.015-27.477,61.015-61.045s-27.232-61.016-61.015-61.016
		c-33.576,0-60.809,27.447-60.809,61.016S1436.258,1423.98,1469.834,1423.98z"/>
	<path d="M1666.41,1003.897c0-33.671-27.24-60.912-61.029-60.912c-33.791,0-60.801,27.24-60.801,60.912
		c0,33.687,27.01,61.03,60.801,61.03C1639.17,1064.928,1666.41,1037.584,1666.41,1003.897z"/>
	<path d="M1083.689,396.797h-18.614c-17.429,0-32.16,16.376-32.16,35.776v511.05v22.038l-15.591,15.562l-250.316,249.871
		c-15.458,15.457-15.08,42.697,0.852,59.459c9.344,9.915,21.238,11.367,27.5,11.367c11.382,0,21.941-4.342,29.774-12.212
		l275.487-275.495c0.156-0.193,0.326-0.4,0.497-0.594c1.394-1.674,3.476-4.179,6.157-6.906c6.062-6.342,9.396-14.687,9.396-23.504
		V432.573v-1.259C1116.013,412.788,1100.881,396.797,1083.689,396.797z"/>
</g>
</svg>
