<?xml version="1.0" encoding="utf-8"?>
<!-- Generator: Adobe Illustrator 16.0.0, SVG Export Plug-In . SVG Version: 6.00 Build 0)  -->
<!DOCTYPE svg PUBLIC "-//W3C//DTD SVG 1.1//EN" "http://www.w3.org/Graphics/SVG/1.1/DTD/svg11.dtd">
<svg version="1.1" id="Layer_1" xmlns="http://www.w3.org/2000/svg" xmlns:xlink="http://www.w3.org/1999/xlink" x="0px" y="0px"
	 width="2000px" height="2000px" viewBox="0 0 2000 2000" enable-background="new 0 0 2000 2000" xml:space="preserve">
<g>
	<path fill="none" d="M997.927,89.405C498.512,89.456,89.61,496.322,89.402,993.404c-0.211,507.778,404.948,917.029,908.032,917.191
		c504.467,0.166,913.258-408.381,913.163-912.615C1910.503,496.248,1501.768,89.349,997.927,89.405z"/>
	<path fill-rule="evenodd" clip-rule="evenodd" d="M997.927,89.405c503.841-0.056,912.576,406.843,912.671,908.575
		c0.095,504.234-408.696,912.781-913.163,912.615c-503.084-0.162-908.244-409.413-908.032-917.191
		C89.61,496.322,498.512,89.456,997.927,89.405z M288.625,1016.647c11.405,391.368,339.015,705.249,736.968,691.439
		c385.023-13.363,696.099-338.27,682.532-736.592c-12.757-374.347-322.354-693.67-729.667-682.443
		C592.822,299.682,279.685,617.792,288.625,1016.647z"/>
	<path fill-rule="evenodd" clip-rule="evenodd" fill="none" d="M1124.871,1109.364c46.501,0,93.005,0.254,139.506-0.062
		c61.611-0.424,102.58-43.17,102.054-105.939c-0.49-59.047-39.257-95.834-101.213-95.886c-74.135-0.06-148.273,0.467-222.393-0.593
		c-9.812-0.138-21.774-5.845-28.846-12.887c-23.357-23.26-44.942-48.303-67.185-72.685
		c-68.089-74.642-136.298-149.172-204.182-223.995c-26.216-28.895-56.795-44.936-96.836-36.388
		c-66.269,14.147-119.553,99.783-54.208,169.152c104.829,111.282,208.314,223.864,310.504,337.573
		c27.376,30.459,57.766,43.354,97.455,42.027C1041.264,1108.282,1083.085,1109.364,1124.871,1109.364z M683.688,1386.87
		c0.158-27.738-25.256-53.136-53.229-53.196c-28.336-0.058-53.207,24.463-53.43,52.679c-0.215,27.473,25.45,53.593,52.924,53.865
		C656.788,1440.483,683.531,1413.931,683.688,1386.87z M1047.958,1531.781c-0.261-27.397-26.486-52.998-53.982-52.688
		c-27.93,0.315-53.097,25.92-52.721,53.632c0.377,27.849,26.198,53.268,53.666,52.827
		C1022.56,1585.109,1048.216,1559.103,1047.958,1531.781z M1333.671,1369.841c0.111,28.233,24.911,53.021,53.076,53.058
		c27.509,0.035,53.472-25.857,53.424-53.27c-0.047-27.008-26.761-53.571-53.649-53.357
		C1358.639,1316.498,1333.561,1341.919,1333.671,1369.841z M1369.695,557.974c-28.235,0.02-53.61,25.074-53.392,52.725
		c0.212,27.417,26.18,53.254,53.518,53.242c27.667-0.008,53.029-25.505,53.076-53.353
		C1422.945,582.499,1398.124,557.954,1369.695,557.974z M1587.561,994.364c0.075-28.441-24.481-53.199-52.634-53.061
		c-27.825,0.138-53.223,25.521-53.18,53.151c0.044,27.263,26.142,53.436,53.282,53.436
		C1562.905,1047.891,1587.485,1022.845,1587.561,994.364z M1050.202,465.329c0.285-28.267-24.182-52.903-52.678-53.037
		c-28.446-0.134-53.285,24.094-53.613,52.294c-0.32,27.326,25.404,53.356,52.893,53.527
		C1024.757,518.287,1049.921,493.414,1050.202,465.329z M515.081,994.637c0.081-28.224-24.459-53.009-52.789-53.313
		c-27.923-0.305-53.076,24.71-53.187,52.886c-0.111,27.757,25.214,53.503,52.795,53.673
		C489.332,1048.057,515,1022.354,515.081,994.637z"/>
	<path fill-rule="evenodd" clip-rule="evenodd" d="M1124.871,1109.364c-41.786,0-83.607-1.082-125.344,0.317
		c-39.689,1.327-70.079-11.568-97.455-42.027c-102.19-113.708-205.676-226.291-310.504-337.573
		c-65.344-69.369-12.061-155.004,54.208-169.152c40.042-8.547,70.62,7.493,96.836,36.388
		c67.883,74.823,136.093,149.353,204.182,223.995c22.243,24.382,43.828,49.425,67.185,72.685
		c7.071,7.042,19.033,12.749,28.846,12.887c74.119,1.06,148.258,0.533,222.393,0.593c61.956,0.051,100.723,36.838,101.213,95.886
		c0.526,62.77-40.442,105.516-102.054,105.939C1217.876,1109.618,1171.372,1109.364,1124.871,1109.364z"/>
	<path fill-rule="evenodd" clip-rule="evenodd" d="M683.688,1386.87c-0.157,27.061-26.9,53.613-53.734,53.348
		c-27.475-0.272-53.14-26.393-52.924-53.865c0.224-28.216,25.094-52.736,53.43-52.679
		C658.432,1333.734,683.846,1359.132,683.688,1386.87z"/>
	<path fill-rule="evenodd" clip-rule="evenodd" d="M1047.958,1531.781c0.258,27.321-25.398,53.328-53.038,53.771
		c-27.467,0.44-53.288-24.979-53.666-52.827c-0.375-27.712,24.792-53.316,52.721-53.632
		C1021.472,1478.783,1047.697,1504.384,1047.958,1531.781z"/>
	<path fill-rule="evenodd" clip-rule="evenodd" d="M1333.671,1369.841c-0.11-27.922,24.968-53.343,52.851-53.569
		c26.889-0.214,53.603,26.35,53.649,53.357c0.048,27.412-25.915,53.305-53.424,53.27
		C1358.582,1422.862,1333.782,1398.074,1333.671,1369.841z"/>
	<path fill-rule="evenodd" clip-rule="evenodd" d="M1369.695,557.974c28.429-0.02,53.25,24.524,53.202,52.614
		c-0.047,27.848-25.409,53.345-53.076,53.353c-27.338,0.012-53.306-25.825-53.518-53.242
		C1316.085,583.048,1341.46,557.994,1369.695,557.974z"/>
	<path fill-rule="evenodd" clip-rule="evenodd" d="M1587.561,994.364c-0.075,28.48-24.655,53.526-52.531,53.526
		c-27.141,0-53.238-26.173-53.282-53.436c-0.043-27.631,25.354-53.013,53.18-53.151
		C1563.079,941.166,1587.636,965.923,1587.561,994.364z"/>
	<path fill-rule="evenodd" clip-rule="evenodd" d="M1050.202,465.329c-0.281,28.084-25.445,52.958-53.397,52.784
		c-27.489-0.17-53.213-26.201-52.893-53.527c0.328-28.2,25.167-52.428,53.613-52.294
		C1026.021,412.426,1050.487,437.062,1050.202,465.329z"/>
	<path fill-rule="evenodd" clip-rule="evenodd" d="M515.081,994.637c-0.081,27.718-25.75,53.42-53.181,53.246
		c-27.581-0.17-52.906-25.916-52.795-53.673c0.111-28.176,25.264-53.191,53.187-52.886
		C490.622,941.628,515.162,966.413,515.081,994.637z"/>
</g>
</svg>
