<?xml version="1.0" encoding="utf-8"?>
<!-- Generator: Adobe Illustrator 16.0.0, SVG Export Plug-In . SVG Version: 6.00 Build 0)  -->
<!DOCTYPE svg PUBLIC "-//W3C//DTD SVG 1.1//EN" "http://www.w3.org/Graphics/SVG/1.1/DTD/svg11.dtd">
<svg version="1.1" id="Layer_1" xmlns="http://www.w3.org/2000/svg" xmlns:xlink="http://www.w3.org/1999/xlink" x="0px" y="0px"
	 width="2000px" height="2000px" viewBox="0 0 2000 2000" enable-background="new 0 0 2000 2000" xml:space="preserve">
<path d="M1820.067,1253.387v302.854h159.898v-452.777H191.867V448.414c0-43.82-35.122-79.683-79.454-79.683l0,0
	c-43.82,0-79.189,35.863-79.189,79.683V1556.24h158.643v-302.854H1820.067z"/>
<path d="M435.959,767.714c79.435,0,143.699-64.245,143.699-143.946c0-79.188-64.265-143.451-143.699-143.451
	c-79.454,0-143.719,64.263-143.719,143.451C292.24,703.451,356.486,767.714,435.959,767.714z"/>
<path d="M1982.459,984.415l-0.494-197.778c-0.496-62.761-53.281-106.085-114.556-113.547L738.566,560.495
	c-2.247-0.495-4.244-1.504-6.224-1.504c-39.12,0-70.718,31.884-70.718,70.716v213.217H366.46c-39.595,0-71.23,31.884-71.23,70.736
	c0,39.346,31.636,70.754,71.23,70.754H1982.459z"/>
</svg>
