<?xml version="1.0" encoding="utf-8"?>
<!-- Generator: Adobe Illustrator 16.0.0, SVG Export Plug-In . SVG Version: 6.00 Build 0)  -->
<!DOCTYPE svg PUBLIC "-//W3C//DTD SVG 1.1//EN" "http://www.w3.org/Graphics/SVG/1.1/DTD/svg11.dtd">
<svg version="1.1" id="Layer_1" xmlns="http://www.w3.org/2000/svg" xmlns:xlink="http://www.w3.org/1999/xlink" x="0px" y="0px"
	 width="2000px" height="2000px" viewBox="0 0 2000 2000" enable-background="new 0 0 2000 2000" xml:space="preserve">
<g>
	<g>
		<g>
			<path fill="#010101" d="M1442.768,975.698c0,243.942-197.788,441.767-441.768,441.767c-243.961,0-441.71-197.806-441.71-441.767
				c0-55.221,10.575-107.789,29.032-156.539H46.611v658.051c0,263.583,213.668,477.176,477.194,477.176h954.407
				c263.545,0,477.176-213.593,477.176-477.176V819.159h-541.729C1432.155,867.89,1442.768,920.477,1442.768,975.698z"/>
			<circle fill="#010101" cx="1001" cy="975.679" r="265.11"/>
			<path fill="#010101" d="M1478.213,45.646H548.944v497.599H444.591V52.766c-36.305,6.032-71.331,15.824-104.353,29.585v460.914
				H235.905V142.917C121.053,230.053,46.611,367.6,46.611,522.859v139.723h642.838C769.351,583.121,879.43,533.969,1001,533.969
				s231.631,49.151,311.513,128.613h642.876V522.859C1955.389,259.314,1741.758,45.646,1478.213,45.646z M1691.404,496.938
				c0,29.566-24.049,53.637-53.655,53.637h-160.871c-29.663,0-53.656-23.994-53.656-53.637v-160.91
				c0-29.605,23.993-53.656,53.656-53.656h160.871c29.606,0,53.655,23.994,53.655,53.656V496.938z"/>
		</g>
	</g>
</g>
</svg>
