<?xml version="1.0" encoding="utf-8"?>
<!-- Generator: Adobe Illustrator 16.0.0, SVG Export Plug-In . SVG Version: 6.00 Build 0)  -->
<!DOCTYPE svg PUBLIC "-//W3C//DTD SVG 1.1//EN" "http://www.w3.org/Graphics/SVG/1.1/DTD/svg11.dtd">
<svg version="1.1" id="Layer_1" xmlns="http://www.w3.org/2000/svg" xmlns:xlink="http://www.w3.org/1999/xlink" x="0px" y="0px"
	 width="2000px" height="2000px" viewBox="0 0 2000 2000" enable-background="new 0 0 2000 2000" xml:space="preserve">
<g transform="translate(0,-952.36218)">
	<path fill="#010101" d="M1001,965.695c-544.92,0-986.667,441.747-986.667,986.667c0,544.921,441.747,986.667,986.667,986.667
		s986.667-441.746,986.667-986.667C1987.667,1407.442,1545.921,965.695,1001,965.695z M1001,1294.584
		c151.367,0,274.074,122.707,274.074,274.074c0,151.367-122.707,274.074-274.074,274.074s-274.074-122.707-274.074-274.074
		C726.926,1417.291,849.633,1294.584,1001,1294.584z M1001,1952.362c242.188,0,438.519,196.331,438.519,438.519
		s-196.331,219.26-438.519,219.26s-438.519,22.928-438.519-219.26S758.812,1952.362,1001,1952.362z"/>
</g>
</svg>
