<?xml version="1.0" encoding="utf-8"?>
<!-- Generator: Adobe Illustrator 16.0.0, SVG Export Plug-In . SVG Version: 6.00 Build 0)  -->
<!DOCTYPE svg PUBLIC "-//W3C//DTD SVG 1.1//EN" "http://www.w3.org/Graphics/SVG/1.1/DTD/svg11.dtd">
<svg version="1.1" id="Layer_1" xmlns="http://www.w3.org/2000/svg" xmlns:xlink="http://www.w3.org/1999/xlink" x="0px" y="0px"
	 width="2000px" height="2000px" viewBox="0 0 2000 2000" enable-background="new 0 0 2000 2000" xml:space="preserve">
<g>
	<path fill="none" d="M55.896,606.838c0,345.473,0,687.383,0,1028.69c630.644,0,1259.768,0,1888.21,0
		c0-343.027,0-684.326,0-1028.378c-11.248,7.805-20.349,13.985-29.313,20.362c-298.315,212.137-596.671,424.221-894.739,636.708
		c-13.391,9.546-22.42,13.087-37.97,1.962c-231.675-165.756-463.917-330.708-696.047-495.824
		C210.235,716.438,134.378,662.597,55.896,606.838z M66.15,427.471c8.211,6.393,12.323,9.861,16.695,12.959
		C383.7,653.812,684.621,867.102,985.274,1080.767c10.862,7.718,17.938,8.12,29.032,0.236
		c301.217-214.082,602.715-427.762,904.125-641.574c4.075-2.889,7.578-6.59,13.671-11.958
		C1309.471,427.471,690.523,427.471,66.15,427.471z"/>
	<path fill-rule="evenodd" clip-rule="evenodd" d="M55.896,606.838c78.483,55.758,154.34,109.6,230.14,163.52
		c232.13,165.116,464.373,330.068,696.047,495.824c15.55,11.125,24.58,7.584,37.97-1.962
		c298.068-212.486,596.424-424.571,894.739-636.708c8.965-6.377,18.065-12.557,29.313-20.362c0,344.053,0,685.351,0,1028.378
		c-628.442,0-1257.566,0-1888.21,0C55.896,1294.222,55.896,952.311,55.896,606.838z"/>
	<path fill-rule="evenodd" clip-rule="evenodd" d="M66.15,427.471c624.374,0,1243.321,0,1865.953,0
		c-6.093,5.367-9.596,9.068-13.671,11.958c-301.41,213.812-602.908,427.492-904.125,641.574c-11.094,7.884-18.17,7.481-29.032-0.236
		C684.621,867.102,383.7,653.812,82.845,440.43C78.473,437.332,74.361,433.864,66.15,427.471z"/>
</g>
</svg>
