<?xml version="1.0" encoding="utf-8"?>
<!-- Generator: Adobe Illustrator 16.0.0, SVG Export Plug-In . SVG Version: 6.00 Build 0)  -->
<!DOCTYPE svg PUBLIC "-//W3C//DTD SVG 1.1//EN" "http://www.w3.org/Graphics/SVG/1.1/DTD/svg11.dtd">
<svg version="1.1" id="Layer_1" xmlns="http://www.w3.org/2000/svg" xmlns:xlink="http://www.w3.org/1999/xlink" x="0px" y="0px"
	 width="2000px" height="2000px" viewBox="0 0 2000 2000" enable-background="new 0 0 2000 2000" xml:space="preserve">
<g>
	<polygon points="390.293,423.762 56.87,423.762 56.87,541.683 313.157,541.683 725.76,1484.791 1707.338,1484.791 
		1707.338,1366.893 802.9,1366.893 	"/>
	<path d="M941.062,1602.688c-97.63,0-176.856,79.203-176.856,176.834s79.226,176.834,176.856,176.834
		s176.811-79.203,176.811-176.834S1038.692,1602.688,941.062,1602.688z"/>
	<path d="M1530.503,1602.688c-97.63,0-176.834,79.203-176.834,176.834s79.204,176.834,176.834,176.834
		c97.631,0,176.835-79.203,176.835-176.834S1628.134,1602.688,1530.503,1602.688z"/>
	<path d="M1530.503,895.352c227.96,0,412.627-184.792,412.627-412.628c0-227.838-184.667-412.629-412.627-412.629
		c-227.714,0-412.63,184.791-412.63,412.629C1117.873,710.56,1302.789,895.352,1530.503,895.352z M1294.729,423.762h178.998V260.034
		h110.34v163.728h182.205v117.921h-182.205v151.246h-110.34V541.683h-178.998V423.762z"/>
	<path d="M1032.675,659.558H646.33l235.774,589.464h825.234l136.075-340.092c-87.935,64.707-195.462,104.295-312.91,104.295
		C1300.251,1013.225,1105.911,864.963,1032.675,659.558z"/>
</g>
</svg>
