<?xml version="1.0" encoding="utf-8"?>
<!-- Generator: Adobe Illustrator 16.0.0, SVG Export Plug-In . SVG Version: 6.00 Build 0)  -->
<!DOCTYPE svg PUBLIC "-//W3C//DTD SVG 1.1//EN" "http://www.w3.org/Graphics/SVG/1.1/DTD/svg11.dtd">
<svg version="1.1" id="Layer_1" xmlns="http://www.w3.org/2000/svg" xmlns:xlink="http://www.w3.org/1999/xlink" x="0px" y="0px"
	 width="2000px" height="2000px" viewBox="0 0 2000 2000" enable-background="new 0 0 2000 2000" xml:space="preserve">
<g>
	<path d="M1000.131,1977.152c-395.616,0-717.471-321.854-717.471-717.465c0-251.107,117.494-534.281,349.218-841.672
		C803.164,190.794,971.741,38.668,978.829,32.306c12.121-10.875,30.483-10.875,42.604,0
		c7.089,6.363,175.665,158.489,346.951,385.709c231.717,307.391,349.211,590.565,349.211,841.672
		C1717.596,1655.298,1395.741,1977.152,1000.131,1977.152z M1000.131,99.695c-114.809,109.48-653.688,650.632-653.688,1159.992
		c0,360.442,293.246,653.682,653.688,653.682s653.681-293.239,653.681-653.682C1653.812,750.328,1114.94,209.176,1000.131,99.695z"
		/>
</g>
</svg>
