<?xml version="1.0" encoding="utf-8"?>
<!-- Generator: Adobe Illustrator 16.0.0, SVG Export Plug-In . SVG Version: 6.00 Build 0)  -->
<!DOCTYPE svg PUBLIC "-//W3C//DTD SVG 1.1//EN" "http://www.w3.org/Graphics/SVG/1.1/DTD/svg11.dtd">
<svg version="1.1" id="Layer_1" xmlns="http://www.w3.org/2000/svg" xmlns:xlink="http://www.w3.org/1999/xlink" x="0px" y="0px"
	 width="2000px" height="2000px" viewBox="0 0 2000 2000" enable-background="new 0 0 2000 2000" xml:space="preserve">
<g>
	<g>
		<g>
			<path fill="#2BACE2" d="M1733.251,780.233c11.651,0,22.758,5.622,29.679,15.047c6.943,9.379,9.03,21.632,5.552,32.924
				c-14.536,47.67-40.134,187.655,14.863,261.908c10.224,13.808,41.271,55.843,138.187,55.843c20.348,0,36.936,16.566,36.936,36.9
				c0,20.369-16.564,36.924-36.936,36.924c-110.954,0-168.78-46.777-197.682-86.055c-51.866-70.253-52.934-166.694-44.691-235.209
				l5.298-44.331l-43.588,9.471c-120.278,25.968-201.046,102.18-279.218,175.911c-93.901,88.617-191.017,180.225-349.352,180.225
				c-111.014,0-168.805-46.801-197.729-86.031c-51.949-70.474-52.934-167.124-44.576-235.823l5.263-43.566l-43.044,8.533
				c-131.464,26.037-224.658,103.664-323.64,186.101c-100.836,83.969-205.056,170.799-342.491,170.799
				c-20.357,0-36.923-16.566-36.923-36.924c0-20.346,16.566-36.9,36.923-36.9c110.737,0,196.269-71.262,295.389-153.838
				c119.233-99.317,254.406-211.884,462.522-211.884c11.674,0,22.793,5.623,29.713,15.013c6.944,9.401,9.008,21.667,5.53,32.924
				c-14.537,47.658-40.216,187.608,14.954,262.059c10.261,13.771,41.457,55.715,138.038,55.715
				c128.993,0,207.642-74.183,298.866-160.156C1418.144,884.731,1528.881,780.233,1733.251,780.233"/>
			<path fill="#2BACE2" d="M1921.531,1227.721c-114.364,0-174.102-48.551-204.08-89.289
				c-53.421-72.34-54.593-170.915-46.186-240.866l3.975-33.271l-32.691,7.106c-118.133,25.504-198.112,100.986-275.448,173.928
				c-95.017,89.66-193.267,182.381-354.802,182.381c-114.317,0-174.103-48.551-204.128-89.266
				c-53.549-72.607-54.604-171.39-46.059-241.504l3.953-32.668l-32.298,6.387c-129.446,25.644-222.051,102.748-320.069,184.375
				c-102.007,84.929-207.339,172.665-347.603,172.665c-24.739,0-44.865-20.125-44.865-44.865c0-24.738,20.126-44.865,44.865-44.865
				c107.849,0,192.407-70.438,290.299-151.982C476.659,885.81,612.979,772.256,824.007,772.256c14.177,0,27.695,6.818,36.111,18.236
				c8.418,11.408,10.944,26.362,6.724,39.997c-14.19,46.568-39.428,183.192,13.761,254.974
				c9.658,12.997,39.08,52.494,131.649,52.494c125.794,0,203.398-73.141,293.289-157.862
				c108.314-102.25,220.197-207.85,427.733-207.85c14.189,0,27.672,6.829,36.089,18.282c8.417,11.373,10.943,26.315,6.746,39.984
				c-14.201,46.557-39.449,183.145,13.646,254.824c9.656,13.042,38.963,52.621,131.801,52.621c24.738,0,44.875,20.125,44.875,44.865
				C1966.432,1207.561,1946.271,1227.721,1921.531,1227.721z M1693.674,844.041l-6.644,55.426
				c-8.068,67.1-7.118,161.385,43.206,229.552c27.812,37.782,83.574,82.831,191.295,82.831c15.987,0,28.996-13.008,28.996-28.982
				c0-15.963-13.009-28.959-28.996-28.959c-100.835,0-133.734-44.424-144.539-59.031c-57.038-76.988-30.954-220.266-16.092-268.968
				c2.713-8.868,1.101-18.548-4.347-25.898c-5.438-7.418-14.143-11.824-23.29-11.824c-201.23,0-310.762,103.397-416.696,203.398
				c-92.478,87.155-172.226,162.324-304.315,162.324c-100.545,0-133.562-44.343-144.413-58.915
				c-57.118-77.081-31.045-220.394-16.171-269.107c2.723-8.88,1.112-18.549-4.324-25.922c-5.449-7.373-14.167-11.778-23.326-11.778
				c-205.276,0-339.244,111.582-457.445,210.029c-100.268,83.539-186.855,155.681-300.466,155.681
				c-15.975,0-28.971,12.996-28.971,28.959c0,15.975,12.997,28.982,28.971,28.982c134.525,0,237.62-85.834,337.307-168.875
				c99.758-83.085,193.857-161.442,327.293-187.852l53.791-10.676l-6.584,54.452c-8.184,67.227-7.362,161.733,43.068,230.154
				c27.857,37.783,83.666,82.809,191.341,82.809c155.217,0,251.137-90.518,343.891-178.045
				c78.926-74.46,160.541-151.461,282.984-177.904L1693.674,844.041z"/>
		</g>
	</g>
	<g>
		<g>
			<path fill="#2BACE2" d="M1733.251,172.277c11.651,0,22.758,5.634,29.679,15.001c6.943,9.402,9.03,21.679,5.552,32.959
				c-14.536,47.658-40.168,187.642,14.863,261.907c10.224,13.807,41.224,55.844,138.187,55.844
				c20.348,0,36.936,16.565,36.936,36.912c0,20.346-16.564,36.923-36.936,36.923c-110.954,0-168.78-46.778-197.682-86.043
				c-51.866-70.253-52.934-166.694-44.691-235.232l5.298-44.308l-43.636,9.448c-120.288,26.039-200.998,102.215-279.17,175.993
				c-93.936,88.57-191.017,180.154-349.352,180.154c-111.014,0-168.805-46.777-197.729-86.032
				c-51.949-70.449-52.934-167.111-44.587-235.812l5.274-43.531l-43.044,8.498c-131.522,26.037-224.775,103.722-323.72,186.159
				c-100.79,83.933-205.01,170.729-342.421,170.729c-20.357,0-36.923-16.578-36.923-36.923c0-20.346,16.565-36.913,36.923-36.913
				c110.793,0,196.291-71.261,295.435-153.861C480.693,284.855,615.854,172.3,823.983,172.3c11.708,0,22.791,5.634,29.713,14.978
				c6.944,9.437,9.007,21.736,5.529,32.982c-14.538,47.634-40.216,187.562,14.944,261.977
				c10.225,13.795,41.364,55.773,138.048,55.773c128.971,0,207.631-74.148,298.855-160.133
				C1418.098,276.787,1528.822,172.277,1733.251,172.277"/>
			<path fill="#2BACE2" d="M1921.531,619.775c-114.364,0-174.102-48.551-204.08-89.289
				c-53.421-72.352-54.593-170.926-46.186-240.889l3.986-33.272l-32.762,7.095c-118.098,25.586-198.03,101.033-275.332,173.953
				c-95.132,89.729-193.404,182.391-354.859,182.391c-114.342,0-174.115-48.551-204.128-89.277
				c-53.536-72.583-54.604-171.39-46.059-241.493l3.953-32.657l-32.309,6.376C604.192,288.357,511.611,365.496,413.57,447.168
				c-101.867,84.86-207.212,172.583-347.488,172.583c-24.739,0-44.864-20.125-44.864-44.876c0-24.728,20.125-44.841,44.864-44.841
				c107.885,0,192.385-70.415,290.23-151.938C476.659,277.853,612.91,164.312,823.994,164.312c14.179,0,27.674,6.793,36.101,18.201
				c8.441,11.442,10.956,26.409,6.736,40.042c-14.19,46.546-39.438,183.145,13.75,254.906c9.644,13.007,38.964,52.574,131.66,52.574
				c125.818,0,203.479-73.198,293.406-157.978c108.138-102.133,219.963-207.745,427.604-207.745
				c14.179,0,27.661,6.816,36.079,18.236c8.427,11.396,10.966,26.362,6.757,40.019c-14.202,46.569-39.462,183.18,13.645,254.825
				c9.681,13.088,38.976,52.655,131.8,52.655c24.74,0,44.877,20.113,44.877,44.841
				C1966.408,599.65,1946.271,619.775,1921.531,619.775z M1693.674,236.107l-6.644,55.392c-8.068,67.1-7.118,161.42,43.206,229.562
				c27.812,37.793,83.574,82.832,191.295,82.832c15.987,0,28.996-12.995,28.996-28.982c0-15.963-13.009-28.947-28.996-28.947
				c-100.835,0-133.724-44.423-144.528-59.02c-57.06-76.988-30.976-220.289-16.114-269.014c2.725-8.881,1.103-18.549-4.346-25.922
				c-5.439-7.374-14.155-11.779-23.292-11.779c-201.335,0-310.818,103.409-416.707,203.398
				c-92.396,87.097-172.19,162.312-304.304,162.312c-100.697,0-133.608-44.4-144.436-58.997
				c-57.096-77.035-31.01-220.312-16.149-269.025c2.736-8.881,1.114-18.549-4.335-25.957c-5.438-7.362-14.155-11.744-23.313-11.744
				c-205.324,0-339.245,111.583-457.399,210.006C266.282,473.82,179.729,545.94,66.106,545.94
				c-15.987,0-28.982,12.996-28.982,28.948c0,15.986,12.995,28.982,28.982,28.982c134.525,0,237.62-85.857,337.331-168.897
				c99.619-83.005,193.719-161.42,327.257-187.841l53.792-10.63l-6.585,54.417c-8.195,67.24-7.373,161.745,43.068,230.143
				c27.846,37.782,83.654,82.809,191.341,82.809c155.137,0,251.067-90.471,343.847-177.963
				c78.982-74.52,160.551-151.52,282.983-177.999L1693.674,236.107z"/>
		</g>
	</g>
	<g>
		<g>
			<path fill="#2BACE2" d="M1733.251,1388.213c11.674,0,22.758,5.611,29.679,15.014c6.943,9.412,9.03,21.645,5.552,32.922
				c-14.536,47.684-40.134,187.68,14.863,261.91c10.224,13.805,41.224,55.865,138.187,55.865c20.348,0,36.936,16.555,36.936,36.912
				c0,20.346-16.564,36.9-36.936,36.9c-110.954,0-168.78-46.766-197.682-86.031c-51.866-70.277-52.934-166.719-44.691-235.232
				l5.298-44.32l-43.588,9.438c-120.336,26.072-201.046,102.215-279.192,175.945c-93.916,88.594-191.042,180.213-349.354,180.213
				c-111.026,0-168.817-46.768-197.741-86.031c-51.948-70.439-52.934-167.09-44.574-235.777l5.263-43.555l-43.045,8.51
				c-131.556,26.025-224.822,103.744-323.721,186.113c-100.767,83.943-205.009,170.764-342.421,170.764
				c-20.357,0-36.923-16.568-36.923-36.912c0-20.346,16.566-36.912,36.923-36.912c110.737,0,196.269-71.262,295.435-153.861
				c119.188-99.305,254.35-211.85,462.477-211.85c11.71,0,22.793,5.6,29.713,14.967c6.944,9.424,9.008,21.713,5.53,32.959
				c-14.537,47.646-40.216,187.598,14.943,262c10.248,13.771,41.363,55.773,138.049,55.773
				c128.993,0,207.642-74.184,298.866-160.158C1418.144,1492.713,1528.834,1388.213,1733.251,1388.213"/>
			<path fill="#2BACE2" d="M1921.531,1835.688c-114.351,0-174.091-48.551-204.08-89.254
				c-53.421-72.373-54.593-170.949-46.186-240.924l3.975-33.248l-32.691,7.072c-118.179,25.609-198.112,101.031-275.415,173.951
				c-95.061,89.672-193.345,182.393-354.835,182.393c-114.342,0-174.115-48.553-204.128-89.268
				c-53.549-72.594-54.604-171.387-46.059-241.467l3.953-32.682l-32.309,6.375c-129.528,25.633-222.099,102.75-320.092,184.375
				c-101.938,84.906-207.247,172.652-347.581,172.652c-24.739,0-44.864-20.123-44.864-44.852c0-24.74,20.125-44.842,44.864-44.842
				c107.85,0,192.409-70.449,290.323-152.018c120.242-100.176,256.505-213.705,467.588-213.705c14.179,0,27.696,6.795,36.113,18.201
				c8.429,11.42,10.943,26.375,6.724,40.008c-14.19,46.559-39.438,183.191,13.75,254.93c9.667,13.053,39.068,52.572,131.66,52.572
				c125.806,0,203.422-73.186,293.314-157.918c108.288-102.215,220.137-207.793,427.696-207.793c14.189,0,27.672,6.805,36.09,18.25
				c8.416,11.395,10.944,26.348,6.746,39.98c-14.202,46.559-39.45,183.135,13.645,254.814c9.681,13.088,38.987,52.666,131.8,52.666
				c24.74,0,44.877,20.113,44.877,44.854C1966.408,1815.562,1946.271,1835.688,1921.531,1835.688z M1693.674,1452.045l-6.644,55.367
				c-8.068,67.111-7.118,161.42,43.206,229.586c27.812,37.793,83.586,82.809,191.295,82.809c15.987,0,28.996-12.996,28.996-28.959
				c0-15.953-13.009-28.959-28.996-28.959c-100.812,0-133.711-44.414-144.516-59.02c-57.062-77.012-30.978-220.312-16.115-269.002
				c2.713-8.857,1.091-18.539-4.357-25.924c-5.439-7.373-14.145-11.777-23.292-11.777c-201.242,0-310.749,103.385-416.661,203.375
				c-92.489,87.166-172.248,162.348-304.35,162.348c-100.591,0-133.562-44.355-144.401-58.939
				c-57.131-77.082-31.045-220.381-16.184-269.094c2.726-8.871,1.114-18.549-4.335-25.947c-5.438-7.35-14.155-11.742-23.313-11.742
				c-205.324,0-339.245,111.57-457.399,210.004c-100.302,83.564-186.902,155.707-300.501,155.707
				c-15.987,0-28.982,13.008-28.982,28.959s12.995,28.957,28.982,28.957c134.571,0,237.644-85.855,337.331-168.906
				c99.676-83.029,193.754-161.387,327.257-187.795l53.792-10.643l-6.585,54.43c-8.195,67.227-7.373,161.709,43.068,230.107
				c27.846,37.793,83.654,82.807,191.341,82.807c155.171,0,251.114-90.504,343.916-178.031
				c78.891-74.449,160.481-151.393,282.961-177.928L1693.674,1452.045z"/>
		</g>
	</g>
</g>
</svg>
