<?xml version="1.0" encoding="utf-8"?>
<!-- Generator: Adobe Illustrator 16.0.0, SVG Export Plug-In . SVG Version: 6.00 Build 0)  -->
<!DOCTYPE svg PUBLIC "-//W3C//DTD SVG 1.1//EN" "http://www.w3.org/Graphics/SVG/1.1/DTD/svg11.dtd">
<svg version="1.1" id="Layer_1" xmlns="http://www.w3.org/2000/svg" xmlns:xlink="http://www.w3.org/1999/xlink" x="0px" y="0px"
	 width="2000px" height="2000px" viewBox="0 0 2000 2000" enable-background="new 0 0 2000 2000" xml:space="preserve">
<g>
	<path fill="#010101" d="M940.569,398.712c0,90.604-207.244,164.022-462.952,164.022c-255.583,0-462.89-73.438-462.89-164.022
		c0-90.625,207.285-164.042,462.89-164.042C733.325,234.67,940.569,308.087,940.569,398.712"/>
	<path fill="#010101" d="M940.569,539.45"/>
	<path fill="#010101" d="M940.569,710.995"/>
	<path fill="#010101" d="M940.569,514.76c0,90.605-207.244,164.042-462.952,164.042c-255.583,0-462.89-73.438-462.89-164.042
		v171.545c0,90.605,207.285,164.042,462.89,164.042c255.708,0,462.952-73.438,462.952-164.042V514.76z"/>
	<path fill="#010101" d="M940.569,818.236c0,90.605-207.244,164.021-462.952,164.021c-255.583,0-462.89-73.438-462.89-164.021
		v171.545c0,90.584,207.285,164.021,462.89,164.021c255.708,0,462.952-73.438,462.952-164.021V818.236z"/>
	<path fill="#010101" d="M1987.353,1010.026c0,90.646-207.265,164.083-462.972,164.083c-255.564,0-462.87-73.438-462.87-164.083
		c0-90.563,207.306-164,462.87-164C1780.088,846.024,1987.353,919.442,1987.353,1010.026"/>
	<path fill="#010101" d="M1987.353,1126.116c0,90.584-207.265,164.021-462.972,164.021c-255.564,0-462.87-73.438-462.87-164.021
		v171.525c0,90.584,207.306,164.021,462.87,164.021c255.707,0,462.972-73.438,462.972-164.021V1126.116z"/>
	<path fill="#010101" d="M1987.353,1429.571c0,90.625-207.265,164.043-462.972,164.043c-255.564,0-462.87-73.418-462.87-164.043
		v171.525c0,90.625,207.306,164.041,462.87,164.041c255.707,0,462.972-73.416,462.972-164.041V1429.571z"/>
	<path fill="#010101" d="M940.569,1117.289c0,90.623-207.244,164.082-462.952,164.082c-255.583,0-462.89-73.459-462.89-164.082
		v171.545c0,90.623,207.285,164.062,462.89,164.062c255.708,0,462.952-73.439,462.952-164.062V1117.289z"/>
	<path fill="#010101" d="M940.569,1425.188c0,90.625-207.244,164.042-462.952,164.042c-255.583,0-462.89-73.417-462.89-164.042
		v171.524c0,90.625,207.285,164.042,462.89,164.042c255.708,0,462.952-73.417,462.952-164.042V1425.188z"/>
</g>
</svg>
