<?xml version="1.0" encoding="utf-8"?>
<!-- Generator: Adobe Illustrator 16.0.0, SVG Export Plug-In . SVG Version: 6.00 Build 0)  -->
<!DOCTYPE svg PUBLIC "-//W3C//DTD SVG 1.1//EN" "http://www.w3.org/Graphics/SVG/1.1/DTD/svg11.dtd">
<svg version="1.1" id="Layer_1" xmlns="http://www.w3.org/2000/svg" xmlns:xlink="http://www.w3.org/1999/xlink" x="0px" y="0px"
	 width="2000px" height="2000px" viewBox="0 0 2000 2000" enable-background="new 0 0 2000 2000" xml:space="preserve">
<g>
	<path fill="#2BACE2" d="M1948.345,1858.874H888.449v-93.352l94.07,80.639c0.029,0.028,0.049,0.047,0.078,0.076l0.525,0.448
		c0.252,0.224,0.562,0.281,0.806,0.476c2.858,2.362,6.017,4.11,9.381,5.492c1.001,0.427,1.943,0.797,2.964,1.137
		c3.645,1.146,7.357,1.953,11.207,1.953c0.02,0,0.068,0.021,0.098,0.021l0,0c0.029,0,0.029,0,0.029,0
		c0.049,0,0.106-0.021,0.146-0.021c3.168,0,6.298-0.533,9.389-1.36c0.895-0.242,1.788-0.554,2.683-0.875
		c2.517-0.854,4.898-1.973,7.202-3.391c0.477-0.304,1.002-0.4,1.449-0.663l218.74-145.81l373.61,149.436
		c4.588,1.838,9.321,2.684,13.967,2.684c14.931,0,29.063-8.923,34.954-23.649c7.718-19.294-1.662-41.203-20.977-48.892
		l-391.514-156.62c-0.098-0.029-0.205-0.076-0.302-0.126l-0.146-0.048c-0.321-0.137-0.651-0.186-0.973-0.302
		c-1.982-0.699-3.994-1.351-6.074-1.73c-0.777-0.165-1.556-0.136-2.333-0.232c-1.652-0.225-3.305-0.419-4.996-0.419
		c-0.72,0.02-1.468,0.156-2.197,0.224c-1.682,0.098-3.421,0.242-5.093,0.573c-0.622,0.167-1.226,0.408-1.828,0.535
		c-1.71,0.485-3.451,0.934-5.102,1.623c-0.904,0.38-1.701,0.923-2.587,1.399c-1.234,0.612-2.487,1.137-3.664,1.925l-211.49,140.989
		l-121.967-104.559V906.424c95.159-24.611,284.128-69.79,354.355-69.79c77.857,0,302.313,55.667,382.212,77.109l47.396,12.714
		v-49.057c0-356.357-348.368-648.037-783.953-664.017V93.447c0-20.801-16.826-37.626-37.627-37.626
		c-20.81,0-37.636,16.825-37.636,37.626v119.936C379.915,229.275,32.966,518.01,29.332,871.83c-0.078,1.75-0.078,3.587-0.078,5.579
		c0,3.48,0.505,6.921,1.418,10.206c4.433,15.824,18.994,27.421,36.217,27.421c3.732,0,7.329-0.525,10.74-1.556
		c80.453-21.627,302.888-76.837,381.231-76.837c70.198,0,259.196,45.149,354.355,69.79v695.539l-329.889-282.748
		c-15.757-13.549-39.532-11.712-53.062,4.064c-13.53,15.774-11.684,39.531,4.092,53.062l223.747,191.786l-218.079,290.795H66.899
		c-20.792,0-37.637,16.854-37.637,37.637c0,20.762,16.836,37.637,37.637,37.637h1881.484c20.771,0,37.616-16.864,37.616-37.637
		C1985.98,1875.748,1969.126,1858.874,1948.345,1858.874z M850.812,287.829c145.295,0,268.342,221.044,275.303,487.636
		c-107.611,19.469-238.327,53.208-275.283,62.967c-46.657-12.326-242.905-62.938-353.112-74.641
		C510.318,498.385,663.652,287.829,850.812,287.829z M1594.533,828.051c-89.21-22.638-272.997-66.708-351.73-66.708
		c-11.701,0-25.719,0.971-41.387,2.702c-6.483-192.662-66.262-357.631-155.765-455.706
		C1343.562,372.073,1568.212,578.089,1594.533,828.051z M107.179,827.196c25.087-234.137,224.212-429.627,494.488-505.473
		C499.151,421.713,430.051,581.54,422.08,763.597c-47.142,4.772-115.708,17.418-205.083,37.918
		C169.3,812.411,133.725,820.566,107.179,827.196z M715.373,1617.156l97.843,83.873v157.835H534.113L715.373,1617.156z"/>
</g>
</svg>
