<?xml version="1.0" encoding="utf-8"?>
<!-- Generator: Adobe Illustrator 16.0.0, SVG Export Plug-In . SVG Version: 6.00 Build 0)  -->
<!DOCTYPE svg PUBLIC "-//W3C//DTD SVG 1.1//EN" "http://www.w3.org/Graphics/SVG/1.1/DTD/svg11.dtd">
<svg version="1.1" id="Layer_1" xmlns="http://www.w3.org/2000/svg" xmlns:xlink="http://www.w3.org/1999/xlink" x="0px" y="0px"
	 width="2000px" height="2000px" viewBox="0 0 2000 2000" enable-background="new 0 0 2000 2000" xml:space="preserve">
<g>
	<path d="M1454.43,1986.397c-14.85,0-30.211-3.247-45.652-9.655c-137.51-56.988-237.744-137.074-306.238-244.708
		c-0.713-0.748-1.386-1.537-2.023-2.36c-83.814-108.736-200.564-180.06-367.426-224.459c-32.861-8.745-64.568-15.02-95.683-18.893
		c105.147,37.581,209.969,81.871,303.982,152.516c12.676,9.521,15.633,27.323,6.715,40.434
		c-22.238,32.688-50.825,57.535-87.397,75.951c-51.3,25.839-106.753,38.398-169.535,38.398c-28.547,0-58.114-2.574-90.39-7.875
		c-161.121-26.412-296.311-111.443-401.823-252.728c-70.401-94.28-109.78-188.995-120.38-289.55
		c-2.662-25.16-2.754-51.88-0.261-79.406c1.467-16.381,12.467-45.589,35.725-54.125c4.413-1.635,9.313-2.487,14.45-2.487
		c18.017,0,36.833,10.483,47.491,20.876c44.487,43.472,94.333,72.366,152.388,88.359c62.109,17.1,124.862,13.041,187.372-12.09
		c6.744-2.715,13.511-5.404,20.278-8.096c20.203-8.037,41.095-16.34,61.025-25.184c37.97-16.845,77.975-25.387,118.913-25.387
		c152.481,0,283.084,115.678,303.803,269.08c0.295,2.182,0.58,3.932,1.003,5.416c1.792-28.609,6.239-56.594,13.308-83.674
		c6.744-25.855,3.555-34.978-18.996-54.211c-90.72-77.424-138.048-172.951-140.669-283.931
		c-3.009-125.169,44.197-238.475,144.329-346.376c60.01-64.672,134.708-108.275,206.948-150.443l5.085-2.969
		c11.991-7.002,24.099-13.899,36.224-20.803c45.468-25.897,92.482-52.675,132.029-85.095
		c95.545-78.273,156.482-187.743,181.127-325.376c2.528-14.163,13.609-43.122,37.441-51.225c4.199-1.424,8.676-2.14,13.338-2.14
		c18.886,0,38.41,11.835,48.557,22.829c23.839,25.836,43.473,50.048,60.005,74.025c153.107,221.955,208.49,470.896,164.618,739.91
		c-27.59,169.245-98.224,311.057-209.946,421.48c-94.454,93.363-202.117,142.728-319.998,146.723
		c-20.44,0.702-40.84-1.031-60.474-2.69c-8.779-0.742-17.646-1.496-26.656-2.041c-8.177-0.493-15.785-4.349-21.026-10.641
		c-5.242-6.298-7.648-14.485-6.651-22.614c13.714-111.705,41.049-199.868,86.018-277.459c5.491-9.47,11.069-18.852,16.734-28.153
		c-87.809,112.848-131.443,224.042-140.252,355.092c-6.187,92.105,13.98,165.128,63.479,229.817
		c52.188,68.204,122.803,101.563,202.981,135.155c58.138,24.349,68.452,87.983,48.656,135.491
		C1522.541,1965.725,1491.686,1986.392,1454.43,1986.397z M1144.22,1689.146c2.187,1.908,4.111,4.146,5.694,6.687
		c61.779,99.187,153.891,173.13,281.6,226.06c8.199,3.404,15.906,5.127,22.91,5.127c13.406-0.006,22.476-6.141,27.741-18.759
		c7.254-17.401,8.768-47.173-16.787-57.882c-84.921-35.575-166.201-74.113-227.196-153.838
		c-57.964-75.748-82.678-164.027-75.568-269.875c10.682-158.871,67.589-290.42,184.53-426.537
		c70.401-81.917,143.209-166.624,230.044-238.214c5.445-4.517,11.133-7.254,15.285-9.255c1.066-0.516,2.134-1.015,3.16-1.571
		c12.096-6.599,27.16-4.001,36.352,6.286l4.895,5.485c9.428,10.49,10.176,26.164,1.791,37.5c-1.594,2.151-3.148,4.332-4.708,6.506
		c-3.81,5.317-7.747,10.82-12.34,16.341c-77.661,93.637-158.68,196.064-224.871,310.274
		c-36.688,63.292-60.538,135.114-74.212,224.135c17.355,1.455,33.58,2.737,49.631,2.191
		c103.906-3.52,195.583-45.913,280.255-129.605c102.595-101.412,167.558-232.224,193.083-388.81
		c41.321-253.357-10.791-487.741-154.898-696.644c-14.375-20.846-31.521-42.083-52.352-64.843
		c-27.444,151.069-95.26,271.829-201.59,358.948c-43.432,35.601-92.674,63.646-140.286,90.763
		c-11.938,6.799-23.861,13.589-35.667,20.484l-5.098,2.975c-71.653,41.826-139.33,81.329-193.355,139.553
		c-89.084,95.991-131.113,195.617-128.492,304.568c2.209,93.387,42.527,174.192,119.852,240.174
		c33.256,28.373,52.432,58.676,37.906,114.378c-10.165,38.915-14.05,80.149-11.568,122.565c0.65,11.07-4.929,21.578-14.45,27.248
		c-9.515,5.672-21.397,5.578-30.831-0.271c-10.582-6.564-21.438-12.891-32.264-18.806c-24.986-13.679-37.778-32.038-41.495-59.522
		c-16.758-124.086-122.067-217.652-244.958-217.652c-32.588,0-64.499,6.824-94.837,20.283
		c-20.985,9.312-42.429,17.837-63.165,26.082c-6.692,2.662-13.377,5.324-20.058,8.008c-74.524,29.974-150.689,34.793-225.295,14.248
		c-65.919-18.156-124.943-51.99-175.49-100.584c-1.792,22.279-1.618,43.746,0.516,63.885
		c9.446,89.652,45.067,174.776,108.899,260.26c97.354,130.354,216.376,205.48,363.859,229.661
		c29.075,4.772,55.493,7.092,80.781,7.092c53.284,0,100.003-10.483,142.826-32.055c18.411-9.272,33.708-20.284,46.784-33.806
		c-107.809-74.096-228.142-114.814-354.999-157.735c-22.649-7.666-45.305-15.331-67.891-23.2
		c-12.838-4.471-20.997-17.089-19.808-30.629c1.183-13.539,11.417-24.545,24.835-26.714c32.403-5.242,65.716-7.897,99.023-7.897
		c59.802,0,122.52,8.622,186.421,25.623C926.347,1495.194,1052.3,1571.939,1144.22,1689.146z"/>
</g>
</svg>
