<?xml version="1.0" encoding="utf-8"?>
<!-- Generator: Adobe Illustrator 16.0.0, SVG Export Plug-In . SVG Version: 6.00 Build 0)  -->
<!DOCTYPE svg PUBLIC "-//W3C//DTD SVG 1.1//EN" "http://www.w3.org/Graphics/SVG/1.1/DTD/svg11.dtd">
<svg version="1.1" id="Layer_1" xmlns="http://www.w3.org/2000/svg" xmlns:xlink="http://www.w3.org/1999/xlink" x="0px" y="0px"
	 width="2000px" height="2000px" viewBox="0 0 2000 2000" enable-background="new 0 0 2000 2000" xml:space="preserve">
<g>
	<g>
		<path fill="#2BACE2" d="M1552.326,1800.97c-223.884-214.688-785.123-254.552-1030.477,0l-42.939-42.94
			c269.88-279.086,867.927-236.147,1116.347,0L1552.326,1800.97z"/>
	</g>
</g>
<g>
	<g>
		<g>
			<path fill="#2BACE2" d="M914.415,1592.422l-58.267-15.338c174.813-631.77,15.338-1070.332,15.338-1073.407l58.258-21.47
				C935.886,500.621,1095.36,942.249,914.415,1592.422z"/>
		</g>
	</g>
	<g>
		<g>
			<path fill="#2BACE2" d="M1129.103,1592.422l-58.267-15.338c174.812-628.704-73.608-1094.876-76.683-1100.999l55.211-30.667
				C1058.553,466.878,1310.048,939.183,1129.103,1592.422z"/>
		</g>
	</g>
	<g>
		<g>
			<polygon fill="#2BACE2" points="1110.503,1472.652 925.96,1441.902 936.054,1381.396 1120.585,1412.148 			"/>
		</g>
	</g>
	<g>
		<g>
			
				<rect x="960.396" y="1181.663" transform="matrix(0.9864 0.1644 -0.1644 0.9864 213.6588 -156.7791)" fill="#2BACE2" width="187.088" height="61.34"/>
		</g>
	</g>
	<g>
		<g>
			<polygon fill="#2BACE2" points="963.374,1074.263 953.264,1013.768 1137.797,982.951 1147.898,1043.446 			"/>
		</g>
	</g>
	<g>
		<g>
			<polygon fill="#2BACE2" points="971.546,887.866 948.745,830.912 1102.499,769.373 1125.3,826.327 			"/>
		</g>
	</g>
	<g>
		<g>
			<polygon fill="#2BACE2" points="1046.495,587.04 1084.662,638.832 981.603,700.967 943.433,649.184 			"/>
		</g>
	</g>
	<g>
		<g>
			
				<rect x="931.386" y="412.924" transform="matrix(0.2426 0.9701 -0.9701 0.2426 1190.1965 -572.9526)" fill="#2BACE2" width="61.331" height="125.745"/>
		</g>
	</g>
	<g>
		<g>
			<g>
				<path fill="#2BACE2" d="M687.475,1028.127l-30.667-131.874c-9.197-39.874-92.01-392.566,15.319-527.506
					c27.611-33.733,67.475-52.137,113.49-52.137c46.004,0,101.199,18.404,165.599,55.212l42.938,24.525l-39.873,27.611
					C800.937,528.231,721.208,893.187,721.208,896.262L687.475,1028.127z M782.541,377.944c-27.601,0-49.07,9.197-64.408,30.667
					c-52.127,64.409-46.006,220.819-27.602,343.496c33.733-110.414,95.077-263.749,184.002-346.552
					C837.744,387.141,807.076,377.944,782.541,377.944z"/>
			</g>
		</g>
		<g>
			<g>
				<path fill="#2BACE2" d="M1478.711,791.971l-91.999-122.668c-3.077-3.065-187.088-248.42-368.031-248.42
					c-21.472,0-42.94,3.066-64.409,12.272l-101.208,36.808l67.475-85.878c70.549-88.935,144.145-134.949,214.678-134.949
					c202.414,0,300.554,377.228,306.688,395.623L1478.711,791.971z M1027.886,359.54c116.536,3.075,230.017,85.878,306.688,159.476
					c-42.938-101.208-113.479-208.546-196.282-208.546C1101.493,310.469,1064.693,325.808,1027.886,359.54z"/>
			</g>
		</g>
		<g>
			<g>
				<path fill="#2BACE2" d="M982.785,498.906l-57.299-89.568c-36.193-55.604-94.162-83.838-173.901-84.696
					c-95.066-1.043-196.703,37.73-249.072,58.622l-6.168,3l-9.198-0.102c-15.318-0.177-27.498-9.505-33.49-21.843
					c-6.001-12.328-2.74-30.694,6.56-39.789c80.67-85.003,232.467-224.444,355.145-223.093
					c107.337,1.175,164.536,99.94,168.598,290.129L982.785,498.906z M749.191,263.271c64.4,0.689,119.433,16.633,165.093,47.804
					c-14.256-98.301-47.457-147.734-102.66-148.34c-70.53-0.764-163.259,65.695-231.395,126.292
					C632.515,274.267,690.923,262.637,749.191,263.271z"/>
			</g>
		</g>
		<g>
			<g>
				<path fill="#2BACE2" d="M914.415,497.546l3.067-107.339c6.14-190.151,64.407-288.284,171.747-288.284
					c122.667,0,272.945,141.081,352.693,226.95c9.195,12.263,12.264,27.602,6.13,39.865c-6.13,15.329-18.403,21.469-33.741,21.469
					h-6.131l-9.198-3.075c-52.137-21.469-153.344-61.333-248.411-61.333c-79.735,0-141.08,27.592-174.822,82.803L914.415,497.546z
					 M1089.229,163.257c-55.204,0-88.937,49.08-104.272,147.212c42.938-30.667,98.14-45.996,165.614-45.996
					c58.26,0,116.536,12.272,168.673,27.602C1251.77,230.731,1159.77,163.257,1089.229,163.257z"/>
			</g>
		</g>
	</g>
</g>
<g>
	<g>
		<path fill="#2BACE2" d="M1941.818,1902.186c-79.738,0-119.61-36.808-153.344-70.55c-33.734-30.657-58.26-52.127-113.471-52.127
			c-55.213,0-79.738,24.535-113.489,52.127c-36.798,33.742-76.673,70.55-153.334,70.55c-79.738,0-119.611-36.808-153.344-70.55
			c-33.732-30.657-58.278-52.127-113.48-52.127c-55.192,0-79.729,24.535-113.471,52.127c-36.807,33.742-76.68,70.55-153.353,70.55
			c-79.729,0-119.612-36.808-153.335-70.55c-33.732-30.657-58.277-52.127-113.479-52.127c-55.212,0-79.729,24.535-113.471,52.127
			c-36.807,33.742-76.672,70.55-153.343,70.55c-79.729,0-119.612-36.808-153.345-70.55c-33.733-30.657-58.268-52.127-113.47-52.127
			v-61.334c79.737,0,119.611,36.808,153.343,70.54c33.742,30.677,58.268,52.146,113.471,52.146
			c55.202,0,79.746-24.535,113.479-52.146c36.79-33.732,76.662-70.54,153.335-70.54c76.671,0,119.611,36.808,153.343,70.54
			c33.733,30.677,58.26,52.146,113.471,52.146s79.738-24.535,113.489-52.146c36.798-33.732,76.671-70.54,153.334-70.54
			c79.748,0,119.611,36.808,153.354,70.54c33.732,30.677,58.278,52.146,113.479,52.146c55.192,0,79.738-24.535,113.472-52.146
			c36.798-33.732,76.67-70.54,153.353-70.54c79.727,0,119.611,36.808,153.334,70.54c33.732,30.677,58.268,52.146,113.48,52.146
			v61.325H1941.818z"/>
	</g>
</g>
</svg>
