<?xml version="1.0" encoding="utf-8"?>
<!-- Generator: Adobe Illustrator 16.0.0, SVG Export Plug-In . SVG Version: 6.00 Build 0)  -->
<!DOCTYPE svg PUBLIC "-//W3C//DTD SVG 1.1//EN" "http://www.w3.org/Graphics/SVG/1.1/DTD/svg11.dtd">
<svg version="1.1" id="Layer_1" xmlns="http://www.w3.org/2000/svg" xmlns:xlink="http://www.w3.org/1999/xlink" x="0px" y="0px"
	 width="2000px" height="2000px" viewBox="0 0 2000 2000" enable-background="new 0 0 2000 2000" xml:space="preserve">
<g>
	<path fill="none" d="M922.881,1789.927c38.97,42.104,75.499,82.225,112.784,121.643c33.515,35.431,78.321,31.315,104.658-9.357
		c14.985-23.136,28.87-46.982,43.319-70.47c14.701-23.905,29.49-47.754,44.438-71.951c51.093,23.574,98.627,45.863,146.449,67.481
		c49.936,22.576,88.77,1.122,97.74-53.378c8.614-52.397,17.236-104.796,25.15-152.879c53.48,0,103.676-3.548,153.144,0.929
		c56.722,5.139,97.977-36.099,77.962-96.348c-15.863-47.745-24.018-98.063-35.823-148.214
		c54.118-20.346,105.803-39.143,156.983-59.23c38.854-15.254,53.916-53.076,36.057-88.23c-4.641-9.138-11.181-17.35-17.189-25.748
		c-28.912-40.363-57.951-80.642-86.422-120.228c3.003-3.809,3.907-5.33,5.149-6.485c36.632-34.068,73.352-68.037,109.939-102.154
		c42.961-40.064,38.991-83.724-10.288-114.424c-13.89-8.66-27.803-17.284-41.738-25.892c-31.221-19.286-62.462-38.548-93.867-57.923
		c23.152-50.686,45.198-98.354,66.744-146.25c23.238-51.661,2.04-90.803-53.732-99.768c-45.089-7.253-90.086-15.202-135.366-20.984
		c-17.418-2.223-23.318-8.05-22.189-25.87c2.836-44.736,3.856-89.595,5.474-134.412c2.284-63.058-29.596-89.293-90.495-74.805
		c-50.034,11.904-100.116,23.562-151.611,35.667c-19.814-53.087-39.093-103.636-57.479-154.502
		c-8.249-22.813-22.397-42.04-46.172-43.495c-18.97-1.166-41.512,4.14-57.392,14.415c-45.274,29.291-87.961,62.586-132.249,94.734
		c-38.847-41.978-75.547-81.994-112.66-121.611c-22.554-24.073-49.224-31.628-74.315-17.891
		c-12.87,7.046-24.54,19.114-32.616,31.592c-29.349,45.317-56.947,91.764-85.35,138.026
		c-52.934-24.293-102.667-48.043-153.168-70.022c-42.146-18.34-80.573,2.674-89.813,47.375c-1.741,8.435-3.062,16.962-4.438,25.463
		c-7.541,46.535-15.027,93.076-21.921,135.792c-57.809,0-112.805,0.06-167.793-0.021c-48.101-0.071-76.249,35.004-65.415,82.19
		c12.289,53.526,24.948,106.967,37.752,161.74c-49.132,18.401-96.598,36.165-144.055,53.965
		c-61.676,23.129-73.139,62.278-34.172,116.053c29.686,40.962,59.168,82.059,89.5,124.15
		c-42.156,39.318-82.896,76.428-122.605,114.61c-33.92,32.613-29.104,77.22,10.056,103.11c10.066,6.65,20.449,12.805,30.708,19.152
		c37.137,22.987,74.277,45.95,112.026,69.307c-23.826,52.032-46.814,101.114-68.835,150.633
		c-19.997,44.977-0.01,84.134,48.164,93.153c48.255,9.041,96.756,17.009,145.387,23.734c15.721,2.178,19.877,7.683,19.006,22.954
		c-2.649,46.487-3.491,93.068-5.645,139.583c-2.604,56.24,32.111,85.785,86.566,73.02c51.738-12.131,103.465-24.323,156.551-36.811
		c19.006,51.27,37.141,100.409,55.431,149.487c19.84,53.226,62.283,66.533,107.948,33.652
		C835.75,1853.52,878.089,1822.491,922.881,1789.927z"/>
	<path fill-rule="evenodd" clip-rule="evenodd" d="M922.881,1789.927c-44.792,32.564-87.131,63.593-129.731,94.259
		c-45.666,32.881-88.108,19.573-107.948-33.652c-18.29-49.078-36.424-98.218-55.431-149.487
		c-53.086,12.487-104.813,24.68-156.551,36.811c-54.455,12.766-89.171-16.779-86.566-73.02c2.154-46.515,2.996-93.096,5.645-139.583
		c0.871-15.271-3.286-20.776-19.006-22.954c-48.631-6.726-97.132-14.693-145.387-23.734c-48.173-9.02-68.161-48.177-48.164-93.153
		c22.021-49.519,45.009-98.601,68.835-150.633c-37.749-23.356-74.89-46.319-112.026-69.307
		c-10.259-6.348-20.642-12.502-30.708-19.152c-39.16-25.891-43.976-70.497-10.056-103.11c39.71-38.183,80.45-75.292,122.605-114.61
		c-30.332-42.092-59.815-83.188-89.5-124.15c-38.967-53.774-27.504-92.924,34.172-116.053c47.458-17.8,94.923-35.563,144.055-53.965
		c-12.804-54.773-25.464-108.214-37.752-161.74c-10.833-47.186,17.314-82.261,65.415-82.19
		c54.989,0.081,109.984,0.021,167.793,0.021c6.894-42.715,14.38-89.256,21.921-135.792c1.376-8.501,2.697-17.028,4.438-25.463
		c9.24-44.701,47.667-65.715,89.813-47.375c50.502,21.979,100.234,45.729,153.168,70.022c28.403-46.263,56.001-92.709,85.35-138.026
		c8.077-12.478,19.747-24.546,32.616-31.592c25.092-13.737,51.761-6.183,74.315,17.891c37.113,39.618,73.813,79.634,112.66,121.611
		c44.288-32.148,86.975-65.443,132.249-94.734c15.88-10.275,38.422-15.581,57.392-14.415c23.774,1.455,37.923,20.682,46.172,43.495
		c18.386,50.866,37.664,101.415,57.479,154.502c51.495-12.104,101.577-23.763,151.611-35.667
		c60.899-14.488,92.779,11.747,90.495,74.805c-1.617,44.817-2.638,89.676-5.474,134.412c-1.129,17.82,4.771,23.647,22.189,25.87
		c45.28,5.782,90.277,13.731,135.366,20.984c55.772,8.965,76.971,48.107,53.732,99.768c-21.546,47.896-43.592,95.565-66.744,146.25
		c31.405,19.375,62.646,38.637,93.867,57.923c13.936,8.608,27.849,17.232,41.738,25.892c49.279,30.7,53.249,74.36,10.288,114.424
		c-36.588,34.117-73.308,68.085-109.939,102.154c-1.242,1.155-2.146,2.677-5.149,6.485c28.471,39.586,57.51,79.864,86.422,120.228
		c6.009,8.398,12.549,16.61,17.189,25.748c17.859,35.154,2.798,72.977-36.057,88.23c-51.181,20.088-102.865,38.885-156.983,59.23
		c11.806,50.15,19.96,100.469,35.823,148.214c20.015,60.249-21.24,101.486-77.962,96.348c-49.468-4.477-99.663-0.929-153.144-0.929
		c-7.914,48.083-16.536,100.481-25.15,152.879c-8.971,54.5-47.805,75.954-97.74,53.378c-47.822-21.618-95.356-43.907-146.449-67.481
		c-14.947,24.197-29.736,48.046-44.438,71.951c-14.449,23.487-28.334,47.334-43.319,70.47
		c-26.337,40.673-71.144,44.788-104.658,9.357C998.38,1872.151,961.852,1832.031,922.881,1789.927z M1278.435,1111.068
		c-4.294-14.449-6.739-22.637-9.165-30.828c-18.592-62.684-36.303-125.65-56.522-187.797c-3.902-11.993-15.839-26.417-27.151-29.985
		c-31.607-9.97-57.117,16.819-46.77,48.881c28.526,88.404,58.77,176.25,88.586,264.226c8.621,25.437,22.957,43.667,53.476,43.726
		c31.826,0.062,43.231-21.24,50.835-46.126c13.066-42.776,24.846-85.944,37.31-128.909c5.804-19.987,11.928-39.875,20.012-66.844
		c4.976,15.805,7.604,23.797,10.008,31.851c16.943,56.887,33.528,113.881,50.891,170.635c7.128,23.3,21.546,38.52,48.16,39.298
		c26.537,0.773,42.518-13.181,50.529-36.227c30.794-88.564,61.209-177.264,90.736-266.252c8.931-26.913-1.618-48.245-23.456-54.71
		c-25.182-7.458-42.51,3.22-51.428,32.917c-14.342,47.791-27.965,95.796-42.139,143.643c-6.557,22.165-13.686,44.165-22.231,71.607
		c-4.052-13.541-6.322-20.902-8.46-28.306c-17.172-59.52-34.118-119.108-51.564-178.54c-7.368-25.094-21.164-43.089-50.691-42.8
		c-26.756,0.261-41.27,11.249-50.76,42.25c-10.066,32.902-18.909,66.182-28.438,99.25
		C1300.258,1036.509,1290.139,1070.936,1278.435,1111.068z M855.789,1061.735c16.95,0,32.215,0.094,47.476-0.017
		c47.357-0.344,94.842,1.273,142.026-1.744c46.749-2.993,57.729-18.487,54.09-65.447c-0.587-7.655-2.029-15.357-4.076-22.761
		C1072,887.585,988.132,842.473,894.437,863.548c-122.097,27.46-173.59,193.67-90.784,295.917
		c12.636,15.602,29.424,30.073,47.352,38.747c61.61,29.815,125.413,31.017,186.15-1.129c20.765-10.984,38.361-31.516,51.609-51.517
		c5.951-8.993,2.566-31.922-5.318-40.481c-11.704-12.712-29.482-8.573-43.659,4.218c-14.653,13.221-29.579,26.613-46.169,37.112
		c-29.806,18.856-62.137,21.341-93.061,3.266C868.817,1131.129,857.115,1100.714,855.789,1061.735z M470.795,908.77
		c-12.512-16.186-21.195-37.167-36.617-45.236c-27.697-14.469-53.585,8.167-54.025,44.616c-0.78,64.635-0.282,129.284-0.24,193.926
		c0.013,24.133-0.905,48.338,0.681,72.375c1.872,28.289,19.303,44.792,43.839,44.472c25.179-0.316,41.348-16.537,42.923-45.167
		c1.187-21.487,0-43.092,0.65-64.624c1.187-39.566,0.592-79.387,5.15-118.588c4.431-38.118,38.751-63.231,77.006-61.941
		c34.605,1.163,48.235,16.207,54.497,62.147c1.964,14.445,2.005,29.208,2.091,43.832c0.275,45.68-0.499,91.376,0.403,137.037
		c0.596,30.126,17.362,47.252,43.381,47.369c24.642,0.113,42.766-15.859,42.971-45.032c0.538-74.04,0.729-148.232-3.471-222.101
		c-2.466-43.256-29.96-73.235-71.982-85.27C558.624,849.571,507.475,864.56,470.795,908.77z"/>
	<path fill-rule="evenodd" clip-rule="evenodd" fill="none" d="M1278.435,1111.068c11.704-40.133,21.823-74.56,31.767-109.041
		c9.528-33.067,18.371-66.348,28.438-99.25c9.49-31,24.004-41.989,50.76-42.25c29.527-0.29,43.323,17.706,50.691,42.8
		c17.446,59.432,34.393,119.021,51.564,178.54c2.138,7.403,4.408,14.765,8.46,28.306c8.546-27.442,15.675-49.442,22.231-71.607
		c14.174-47.847,27.797-95.852,42.139-143.643c8.918-29.697,26.246-40.375,51.428-32.917c21.838,6.465,32.387,27.797,23.456,54.71
		c-29.527,88.988-59.942,177.688-90.736,266.252c-8.012,23.046-23.992,37-50.529,36.227c-26.614-0.778-41.032-15.998-48.16-39.298
		c-17.362-56.754-33.947-113.748-50.891-170.635c-2.404-8.054-5.032-16.046-10.008-31.851
		c-8.084,26.969-14.208,46.856-20.012,66.844c-12.464,42.965-24.243,86.133-37.31,128.909
		c-7.604,24.886-19.009,46.188-50.835,46.126c-30.519-0.059-44.854-18.289-53.476-43.726
		c-29.816-87.976-60.06-175.822-88.586-264.226c-10.348-32.062,15.162-58.851,46.77-48.881
		c11.312,3.567,23.249,17.992,27.151,29.985c20.22,62.147,37.931,125.114,56.522,187.797
		C1271.695,1088.432,1274.141,1096.619,1278.435,1111.068z"/>
	<path fill-rule="evenodd" clip-rule="evenodd" fill="none" d="M855.789,1061.735c1.326,38.979,13.028,69.394,44.768,87.946
		c30.924,18.075,63.255,15.591,93.061-3.266c16.59-10.499,31.516-23.892,46.169-37.112c14.177-12.791,31.955-16.93,43.659-4.218
		c7.885,8.56,11.27,31.488,5.318,40.481c-13.248,20.001-30.845,40.532-51.609,51.517c-60.737,32.146-124.54,30.944-186.15,1.129
		c-17.927-8.674-34.716-23.146-47.352-38.747c-82.806-102.247-31.313-268.457,90.784-295.917
		c93.695-21.075,177.563,24.037,200.868,108.219c2.047,7.403,3.489,15.106,4.076,22.761c3.64,46.959-7.341,62.454-54.09,65.447
		c-47.184,3.018-94.668,1.4-142.026,1.744C888.004,1061.829,872.739,1061.735,855.789,1061.735z M1014.329,1010.597
		c-5.488-61.721-34.871-92.404-83.48-89.545c-43.967,2.594-73.907,39.253-72.4,89.545
		C909.793,1010.597,961.173,1010.597,1014.329,1010.597z"/>
	<path fill-rule="evenodd" clip-rule="evenodd" fill="none" d="M470.795,908.77c36.68-44.21,87.829-59.199,147.256-42.185
		c42.022,12.035,69.517,42.013,71.982,85.27c4.2,73.869,4.009,148.061,3.471,222.101c-0.206,29.173-18.33,45.146-42.971,45.032
		c-26.02-0.117-42.786-17.243-43.381-47.369c-0.902-45.661-0.127-91.357-0.403-137.037c-0.086-14.624-0.127-29.387-2.091-43.832
		c-6.262-45.94-19.891-60.984-54.497-62.147c-38.255-1.291-72.575,23.823-77.006,61.941c-4.558,39.201-3.963,79.021-5.15,118.588
		c-0.65,21.532,0.537,43.137-0.65,64.624c-1.575,28.63-17.745,44.851-42.923,45.167c-24.536,0.32-41.967-16.183-43.839-44.472
		c-1.586-24.037-0.668-48.242-0.681-72.375c-0.042-64.642-0.54-129.291,0.24-193.926c0.44-36.449,26.328-59.085,54.025-44.616
		C449.6,871.603,458.283,892.584,470.795,908.77z"/>
	<path fill-rule="evenodd" clip-rule="evenodd" d="M1014.329,1010.597c-53.156,0-104.536,0-155.88,0
		c-1.507-50.292,28.433-86.951,72.4-89.545C979.458,918.192,1008.841,948.875,1014.329,1010.597z"/>
</g>
</svg>
