<?xml version="1.0" encoding="utf-8"?>
<!-- Generator: Adobe Illustrator 16.0.0, SVG Export Plug-In . SVG Version: 6.00 Build 0)  -->
<!DOCTYPE svg PUBLIC "-//W3C//DTD SVG 1.1//EN" "http://www.w3.org/Graphics/SVG/1.1/DTD/svg11.dtd">
<svg version="1.1" id="Layer_1" xmlns="http://www.w3.org/2000/svg" xmlns:xlink="http://www.w3.org/1999/xlink" x="0px" y="0px"
	 width="2000px" height="2000px" viewBox="0 0 2000 2000" enable-background="new 0 0 2000 2000" xml:space="preserve">
<path d="M1454.3,1343.141c-5.626,39.903-11.612,79.76-16.817,119.717c-16.713,128.36-32.987,256.776-49.747,385.136
	c-6.816,52.248-44.149,79.07-86.08,62.396c-30.103-11.969-41.306-35.618-39.682-66.53c9.305-178.021,21.467-355.948,27.041-534.085
	c3.306-105.317-3.693-210.956-6.217-316.449c-0.392-16.455-1.612-32.893-2.879-57.813c-32.776,33.635-59.928,62.26-87.91,90.042
	c-36.761,36.499-73.567,73.008-111.515,108.262c-33.91,31.497-61.167,25.189-81.092-17.771
	c-47.738-102.887-95.024-205.988-142.519-308.987c-2.447-5.315-5.132-10.508-13.631-14.309
	c39.749,193.387,79.503,386.771,120.075,584.174H841.552c-4.88,60.746-9.667,117.976-14.034,175.233
	c-8.163,107.271-16.073,214.551-24.123,321.822c-2.567,34.12-18.292,52.877-44.378,53.157c-27.276,0.299-43.332-19.083-46.037-55.13
	c-11.764-156.908-23.591-313.809-35.44-470.712c-0.508-6.776-1.478-13.517-2.185-19.832c-44.116-7.202-43.254-7.138-46.405,36.124
	c-11.233,153.947-22.99,307.872-34.85,461.773c-2.267,29.413-19.158,47.188-43.426,47.759
	c-25.137,0.589-43.687-17.738-46.108-48.745c-8.829-113.193-16.843-226.454-25.268-339.687
	c-3.905-52.474-8.059-104.937-12.322-160.384h-122.17c41.142-200.302,81.471-396.618,121.792-592.923
	c-1.471-0.561-2.946-1.125-4.418-1.68c-28.115,60.96-56.278,121.904-84.332,182.896c-22.449,48.812-44.635,97.74-67.181,146.506
	c-15.93,34.464-35.879,46.382-61.391,37.298c-26.217-9.342-34.854-31.188-23.997-67.144
	c38.551-127.602,77.14-255.204,117.157-382.351c9.504-30.196,23.609-59.111,37.342-87.775
	c34.461-71.912,90.882-118.063,170.941-122.79c75.052-4.424,151.146-4.013,225.906,3.28
	c66.301,6.467,118.648,46.417,144.411,107.923c37.936,90.576,69.665,183.818,102.204,276.565
	c16.06,45.756,28.017,92.968,44.425,148.281c41.791-63.714,85.795-117.759,115.318-178.804
	c46.137-95.415,118.711-141.888,221.48-144.324c49.625-1.171,99.95-1.292,148.941,5.45
	c95.967,13.214,161.116,69.771,177.946,164.576c21.719,122.287,32.881,246.483,47.638,369.969
	c2.449,20.485-9.896,34.908-30.312,37.87c-23.542,3.411-37.551-9.476-42.94-31.988c-20.166-84.194-40.19-168.417-60.379-252.601
	c-2.431-10.134-5.545-20.1-13.354-29.972c-0.936,4.234-2.466,8.44-2.717,12.723c-14.399,244.158-1.326,487.773,14.546,731.335
	c2.845,43.719,5.612,87.467,7.01,131.242c1.319,41.851-22.42,70.583-58.246,73.195c-35.587,2.593-61.202-22.84-66.781-65.249
	c-22.192-168.752-44.61-337.472-66.943-506.204C1457.35,1343.449,1455.83,1343.291,1454.3,1343.141"/>
<path d="M446.842,268.224c-6.244-74.315,18.202-133.847,75.257-177.526C587.27,40.81,659.878,33.274,732.59,70.816
	c78.431,40.484,113.197,108.418,106.558,197.963c48.566,5.559,87.465,23.576,95.918,76.992
	c5.944,37.614-13.132,71.459-47.287,88.115c-42.142,20.554-74.728,11.844-123.231-33.979
	c-80.697,59.487-162.882,58.836-243.55-0.258c-45.377,45.737-80.304,55.098-122.848,33.981c-33.054-16.4-53.17-51.759-48.464-85.179
	C356.021,303.487,385.673,278.973,446.842,268.224"/>
<path d="M1622.098,497.834c0.193,93.052-73.708,167.328-166.414,167.237c-90.706-0.088-164.73-73.886-165.974-165.461
	c-1.221-89.946,73.637-166.041,164.28-166.977C1547.524,331.658,1621.899,404.747,1622.098,497.834"/>
</svg>
