<?xml version="1.0" encoding="utf-8"?>
<!-- Generator: Adobe Illustrator 16.0.0, SVG Export Plug-In . SVG Version: 6.00 Build 0)  -->
<!DOCTYPE svg PUBLIC "-//W3C//DTD SVG 1.1//EN" "http://www.w3.org/Graphics/SVG/1.1/DTD/svg11.dtd">
<svg version="1.1" id="Layer_1" xmlns="http://www.w3.org/2000/svg" xmlns:xlink="http://www.w3.org/1999/xlink" x="0px" y="0px"
	 width="2000px" height="2000px" viewBox="0 0 2000 2000" enable-background="new 0 0 2000 2000" xml:space="preserve">
<g>
	<path d="M1538.946,1367.188l-99.849-296.451l0,0l-102.192-303.478c-9.746-28.884-33.896-48.552-61.697-54.395
		c-10.451-5.086-22.035-8.21-34.451-8.21H772.647c-11.018,0-21.506,2.293-31.038,6.347c-32.636,2.09-62.352,23.369-73.432,56.258
		l-102.192,303.478v0.025l-99.825,296.426c-14.631,43.39,8.739,90.431,52.154,105.088c43.415,14.656,90.457-8.713,105.075-52.129
		l70.122-208.211v166.861v24.805v431.457c0,65.323,52.935,118.232,118.22,118.232c65.286,0,118.221-52.909,118.221-118.232v-352.308
		h153.464v352.308c0,65.323,52.934,118.232,118.258,118.232c65.273,0,118.208-52.909,118.208-118.232v-431.457h0.025v-166.986
		l61.799,183.531c14.631,43.416,61.672,66.785,105.087,52.129C1530.208,1457.618,1553.578,1410.577,1538.946,1367.188z"/>
	<path d="M520.619,605.485h51.133c35.332,0,63.964-28.608,63.964-63.914c0-1.386-0.328-2.62-0.403-3.979
		c-0.138-27.173,1.562-137.297,36.943-200.656c-1.032,10.477-1.586,21.053-1.586,31.756c0,176.406,143.013,319.418,319.468,319.418
		c176.381,0,319.393-143.013,319.393-319.418c0-19.266-1.788-38.101-5.062-56.435c42.811,60.237,44.725,183.859,44.573,212.896
		c-0.1,1.333-0.402,2.618-0.402,3.953c0,35.332,28.607,63.938,63.964,63.938h51.146c35.281,0,63.938-28.632,63.938-63.938
		c-0.024-173.384-159.96-226.268-228.407-240.975c-35.71-137.396-160.616-238.858-309.144-238.858
		c-153.69,0-281.934,108.488-312.505,253.013c-71.948,16.821-220.941,71.896-220.941,239.286
		C456.692,576.877,485.325,605.485,520.619,605.485z"/>
</g>
</svg>
