<?xml version="1.0" encoding="utf-8"?>
<!-- Generator: Adobe Illustrator 16.0.0, SVG Export Plug-In . SVG Version: 6.00 Build 0)  -->
<!DOCTYPE svg PUBLIC "-//W3C//DTD SVG 1.1//EN" "http://www.w3.org/Graphics/SVG/1.1/DTD/svg11.dtd">
<svg version="1.1" id="Layer_1" xmlns="http://www.w3.org/2000/svg" xmlns:xlink="http://www.w3.org/1999/xlink" x="0px" y="0px"
	 width="2000px" height="2000px" viewBox="0 0 2000 2000" enable-background="new 0 0 2000 2000" xml:space="preserve">
<g>
	<g>
		<path d="M950.75,1735.664c-9.123,0-18.514-0.211-27.898-0.646c-173.543-7.969-270.755-47.875-297.178-122.002
			c-24.807-69.614,23.843-144.258,61.778-188.721c-152.49-33.145-233.779-74.17-237.51-76.086
			c-10.237-5.236-16.325-16.107-15.445-27.57c7.068-91.804,76.31-189.756,101.83-223.029
			c-28.427-120.652,24.061-202.842,74.293-251.139c32.799-31.533,68.395-52.427,92.25-64.324
			C606.18,561.83,545.995,456.784,475.495,456.784c-8.193,0-16.999,1.395-26.166,4.144
			C319.746,499.79,253.913,746.184,218.546,878.554c-0.457,1.724-0.914,3.431-1.365,5.119
			c32.343,32.231,45.754,87.362,31.285,137.45c-16.453,56.943-64.674,88.585-126.636,82.19
			c-24.991-2.572-47.927-15.762-64.58-37.127c-21.716-27.859-30.95-66.097-25.331-104.912c4.055-28.054,30.132-73.413,46.651-95.279
			c64.858-398.589,197.242-600.708,393.515-600.708c0,0,0.596,0,0.618,0c190.481,0.429,320.982,308.178,364.688,428.364
			c17.645-22.329,37.623-50.684,57.194-78.462c30.126-42.744,61.271-86.941,89.503-117.984
			c69.464-76.373,172.051-116.739,296.67-116.739c107.221,0,193.634,29.182,197.26,30.424c11.963,4.096,19.795,15.578,19.248,28.207
			c-0.545,12.629-9.34,23.393-21.604,26.442c-141.19,35.108-184.166,141.895-197.076,197.125c9.714-0.688,19.428-1.036,29.085-1.036
			c191.177,0,327.71,131.632,371.438,180.027c54.95-23.782,109.036-35.824,161.051-35.824c70.322,0,111.364,21.975,115.814,24.481
			c10.472,5.898,16.118,17.726,14.125,29.575c-52.722,313.48-203.452,360.321-288.623,360.321h-0.017
			c-36.859-0.006-62.068-8.845-64.819-9.847c-14.214-5.208-21.889-20.619-17.466-35.1c4.834-15.852,1.859-30.745-9.09-45.538
			c-21.354-28.839-67.242-48.979-111.594-48.979c-20.785,0-49.926,4.479-70.772,25.821c-17.55,17.968-26.032,44.979-25.202,80.269
			c2.021,86.234-7.508,301.384-139.374,436.38C1170.254,1697.836,1071.878,1735.664,950.75,1735.664z M493.975,1305.641
			c35.49,15.199,122.582,48.422,255.255,72.889c10.699,1.973,19.338,9.858,22.278,20.324c2.941,10.465-0.317,21.699-8.416,28.956
			c-30.093,27.073-103.829,109.732-83.672,166.108c17.065,47.748,104.453,77.623,246.049,84.129
			c116.984,5.357,210.269-26.506,276.876-94.684c116.717-119.49,125.004-316.176,123.15-395.191
			c-1.182-50.506,13.145-92.5,41.426-121.463c27.092-27.725,66.713-42.997,111.57-42.997c62.241,0,125.506,28.962,157.432,72.071
			c14.949,20.195,22.568,42.836,22.457,65.811c6.582,0.907,14.391,1.581,23.08,1.581c146.787,0,205.418-172.502,228.32-290.28
			c-14.926-4.712-38.642-10.031-69.62-10.031c-49.681,0-102.274,13.236-156.327,39.344c-12.086,5.832-26.612,2.459-34.866-8.112
			c-1.359-1.724-140.299-175.435-341.295-175.435c-19.382,0-39.015,1.621-58.37,4.818c-8.477,1.398-17.115-1.094-23.548-6.781
			c-6.427-5.692-9.947-13.975-9.591-22.552c0.1-2.333,2.763-57.837,34.264-120.284c21.021-41.677,58.181-92.405,122.727-128.875
			c-27.062-4.25-58.73-7.488-92.395-7.488c-109.665,0-195.292,33-254.48,98.081c-25.849,28.417-55.952,71.144-85.064,112.462
			c-35.529,50.413-69.08,98.034-96.315,122.047c-7.263,6.399-17.277,8.672-26.584,6.057c-9.318-2.624-16.675-9.794-19.527-19.04
			c-0.34-1.117-35.15-112.893-94.901-222.787c-52.516-96.594-135.28-211.785-231.312-211.999
			c-97.284,0-177.693,67.072-239.482,199.353c-42.752,91.523-75.268,209.54-99.418,360.794c-0.847,5.35-3.208,10.346-6.8,14.403
			c-11.345,12.83-36.197,56.593-38.514,72.575c-3.353,23.175,1.833,46.236,13.869,61.675c4.968,6.372,13.412,14.225,25.458,15.461
			c3.448,0.357,6.834,0.541,10.064,0.541c36.236,0,50.405-22.746,55.919-41.828c9.529-32.983-1.471-72.861-24.027-87.081
			c-10.588-6.678-15.584-19.485-12.314-31.572c1.944-7.19,3.982-14.815,6.11-22.807c40.931-153.17,109.42-409.528,269.502-457.533
			c14.492-4.347,28.806-6.55,42.552-6.55c115.18,0,186.771,145.665,290.984,385.562c3.136,7.224,3.147,15.422,0.028,22.654
			c-3.119,7.232-9.089,12.852-16.486,15.528c-8.544,3.125-209.735,79.208-155.091,272.966c2.551,9.046,0.479,18.771-5.537,25.987
			C588.558,1123.458,510.511,1218.23,493.975,1305.641z"/>
	</g>
</g>
</svg>
