<?xml version="1.0" encoding="utf-8"?>
<!-- Generator: Adobe Illustrator 16.0.0, SVG Export Plug-In . SVG Version: 6.00 Build 0)  -->
<!DOCTYPE svg PUBLIC "-//W3C//DTD SVG 1.1//EN" "http://www.w3.org/Graphics/SVG/1.1/DTD/svg11.dtd">
<svg version="1.1" id="Layer_1" xmlns="http://www.w3.org/2000/svg" xmlns:xlink="http://www.w3.org/1999/xlink" x="0px" y="0px"
	 width="2000px" height="2000px" viewBox="0 0 2000 2000" enable-background="new 0 0 2000 2000" xml:space="preserve">
<g>
	<g>
		<path d="M734.232,1885.005c-124.166,0.006-200.561-25.649-233.54-78.431c-20.391-32.635-22.146-72.943-5.305-120.122
			c-43.439-17.202-129.776-53.041-216.717-98.574c-173.473-90.864-255.811-170.81-251.721-244.419
			c3.193-57.483,55.809-101.377,160.471-133.579C128.114,1125.2-6.678,908.587,59.55,772.638
			c35.781-73.449,120.932-110.686,253.078-110.686c2.704,0,5.432,0.012,8.188,0.046c-0.955-68.679,6.8-227.861,91.745-319.968
			c42.144-45.706,97.084-68.875,163.278-68.875c39.406,0,83.207,8.435,130.483,25.097c38.128-50.682,151.086-181.459,301.54-181.459
			c102.642,0,199.715,60.63,288.778,180.268c30.735-12.635,88.068-32.053,150.045-32.053c68.082,0,123.625,22.847,165.079,67.897
			c61.885,67.258,88.552,182.719,79.409,343.466c63.289,1.087,197.311,15.96,251.531,117.63
			c49.705,93.201,16.748,231.532-97.947,411.507c48.318,21.518,128.182,68.76,131.444,146.886
			c4.539,108.557-139.821,221.682-441.057,345.41c13.458,25.632,25.114,62.621,8.826,98.667
			c-25.511,56.459-105.565,83.902-244.741,83.902c-77.649,0-175.165-8.688-289.901-25.821
			C981.592,1860.282,854.923,1884.999,734.232,1885.005z M312.628,720.868c-107.688,0-175.009,26.086-200.1,77.545
			c-54.739,112.274,87.603,334.266,147.07,410.327c6.145,7.865,7.894,18.309,4.643,27.744c-3.245,9.436-11.058,16.587-20.735,18.998
			c-98.379,24.469-155.868,57.73-157.738,91.25c-1.185,21.5,17.882,82.965,220.244,188.955
			c117.475,61.528,237.377,106.17,238.574,106.613c7.802,2.888,14.016,8.945,17.111,16.667s2.773,16.392-0.869,23.871
			c-19.781,40.539-23.198,71.665-10.172,92.517c20.448,32.72,85.641,50.74,183.577,50.734
			c127.342-0.006,266.576-29.941,267.969-30.24c3.504-0.76,7.117-0.869,10.649-0.346c114.126,17.221,210.479,25.953,286.38,25.953
			c152.139,0,184.255-34.365,191.004-49.14c10.725-23.497-12.641-58.53-21.668-68.95c-6.248-7.209-8.659-17.041-6.404-26.311
			c2.256-9.263,8.82-16.909,17.688-20.441c385.062-153.342,439.387-254.834,437.494-301.679
			c-2.29-56.694-91.584-96.399-125.783-106.917c-8.918-2.738-16.018-9.533-19.135-18.318c-3.107-8.78-1.905-18.527,3.285-26.266
			c116.116-173.07,155.885-305.066,115.006-381.714c-13.871-26.006-61.873-86.503-207.632-86.503
			c-13.032,0-21.104,0.627-21.185,0.633c-8.664,0.685-17.134-2.451-23.227-8.573c-6.099-6.122-9.223-14.62-8.51-23.232
			c13.395-160.707-7.381-272.151-61.758-331.246c-29.838-32.432-70.791-48.875-121.721-48.875
			c-75.232,0-145.689,35.688-146.391,36.045c-13.09,6.726-29.176,2.762-37.611-9.298
			c-81.273-116.094-167.006-174.963-254.821-174.963c-151.029,0-264.845,172.386-265.972,174.129
			c-7.641,11.76-22.519,16.512-35.557,11.323c-48.691-19.303-92.591-29.089-130.495-29.089c-49.768,0-89,16.322-119.972,49.9
			c-90.83,98.488-75.158,305.993-74.991,308.076c0.685,8.463-2.307,16.806-8.216,22.893c-5.909,6.093-14.166,9.35-22.634,8.907
			C337.144,721.196,324.567,720.868,312.628,720.868z"/>
	</g>
</g>
<g>
	<path d="M740.71,1228.872h-49.06L489.577,918.564h-2.025c2.698,36.419,4.05,69.801,4.05,100.145v210.163h-39.71V859.13h48.56
		l201.567,309.042h2.025c-0.345-4.546-1.099-19.171-2.279-43.876c-1.179-24.693-1.605-42.357-1.266-52.979V859.13h40.211V1228.872z"
		/>
	<path d="M1048.499,1228.872H842.38V859.13h206.119v38.18H885.376v119.12h153.261v37.938H885.376v136.07h163.123V1228.872z"/>
	<path d="M1453.152,1228.872h-42.488l-74.611-247.595c-3.539-10.955-7.503-24.786-11.887-41.471
		c-4.391-16.697-6.669-26.719-6.824-30.102c-3.711,22.254-9.613,46.626-17.703,73.092l-72.333,246.076h-42.489l-98.379-369.742
		h45.521l58.421,228.368c8.095,32.035,13.992,61.044,17.704,87.004c4.551-30.861,11.293-61.033,20.234-90.537l66.257-224.834h45.522
		l69.553,226.848c8.096,26.145,14.919,55.648,20.482,88.523c3.205-23.946,9.275-53.116,18.21-87.511l58.174-227.861h45.521
		L1453.152,1228.872z"/>
</g>
</svg>
