<?xml version="1.0" encoding="utf-8"?>
<!-- Generator: Adobe Illustrator 16.0.0, SVG Export Plug-In . SVG Version: 6.00 Build 0)  -->
<!DOCTYPE svg PUBLIC "-//W3C//DTD SVG 1.1//EN" "http://www.w3.org/Graphics/SVG/1.1/DTD/svg11.dtd">
<svg version="1.1" id="Layer_1" xmlns="http://www.w3.org/2000/svg" xmlns:xlink="http://www.w3.org/1999/xlink" x="0px" y="0px"
	 width="2000px" height="2000px" viewBox="0 0 2000 2000" enable-background="new 0 0 2000 2000" xml:space="preserve">
<path fill="#010101" d="M781.649,983.795c-7.162-12.55-16.104-24.015-26.874-34.374l-35.533-34.271
	c-10.745-10.383-22.623-18.834-35.559-25.405c-12.96-6.571-26.179-10.539-39.653-11.956c-13.451-1.392-27.03,0.335-40.66,5.281
	c-13.657,4.923-26.412,13.554-38.265,25.846c-12.187,12.599-20.38,25.74-24.658,39.422c-4.303,13.657-5.489,27.21-3.583,40.608
	c1.908,13.424,6.365,26.489,13.424,39.191c7.009,12.704,15.9,24.248,26.669,34.631l35.533,34.271
	c10.745,10.358,22.52,18.759,35.326,25.174c12.807,6.416,26.025,10.255,39.604,11.519c13.63,1.263,27.288-0.566,40.943-5.489
	c13.632-4.947,26.541-13.707,38.702-26.308c11.879-12.291,19.918-25.277,24.196-38.959c4.303-13.682,5.564-27.133,3.812-40.403
	C793.322,1009.277,788.839,996.342,781.649,983.795z"/>
<path fill="#010101" d="M1914.23,1041.719L915.972,43.46l-707.789-0.104c-90.854,0-164.572,73.693-164.572,164.573l-0.027,707.892
	l998.284,998.285c48.237,48.209,126.259,48.209,174.494,0l697.844-697.92C1962.441,1167.925,1962.441,1089.928,1914.23,1041.719z
	 M411.587,411.436c-48.184,48.235-126.31,48.235-174.494,0c-48.132-48.184-48.184-126.231,0-174.415
	c48.184-48.21,126.335-48.21,174.494-0.026C459.796,285.126,459.796,363.226,411.587,411.436z M866.475,1087.377
	c-8.942,24.04-23.629,46.638-44.062,67.871c-20.769,21.514-43.057,37.258-66.891,47.204c-23.859,9.972-47.772,14.918-71.787,14.918
	c-24.013,0-47.437-4.946-70.266-14.789c-22.854-9.869-43.648-23.834-62.407-41.896l-35.533-34.271
	c-19.016-18.372-33.909-38.806-44.576-61.273c-10.667-22.469-16.646-45.659-17.831-69.699c-1.184-23.988,2.758-48.082,11.828-72.251
	c9.122-24.169,23.859-46.869,44.318-68.102c20.769-21.515,43.082-37.259,66.891-47.204c23.834-9.946,47.695-14.688,71.554-14.224
	c23.861,0.464,47.231,5.643,70.086,15.486c22.829,9.869,43.777,23.988,62.819,42.36l35.506,34.271
	c18.759,18.062,33.575,38.288,44.422,60.578c10.823,22.313,16.724,45.375,17.779,69.234
	C879.332,1039.399,875.364,1063.337,866.475,1087.377z M1082.195,1461.795l-208.712-834.02l77.171-19.067l208.686,834.02
	L1082.195,1461.795z M1560.426,1125.486c-8.94,24.04-23.602,46.663-44.061,67.869c-20.769,21.516-43.057,37.26-66.917,47.206
	c-23.808,9.945-47.745,14.944-71.733,14.918c-24.042,0-47.488-4.946-70.318-14.814c-22.828-9.87-43.778-23.965-62.846-42.387
	l-35.971-34.683c-18.757-18.089-33.548-38.419-44.396-61.042c-10.821-22.599-16.747-45.839-17.805-69.7
	c-1.029-23.834,2.988-47.849,12.06-72.043c9.095-24.169,23.859-46.871,44.318-68.077c20.742-21.514,43.057-37.284,66.891-47.231
	c23.835-9.945,47.695-14.841,71.529-14.66c23.86,0.181,47.308,5.256,70.291,15.253c23.012,9.998,43.881,24.067,62.64,42.129
	l35.971,34.682c19.067,18.397,33.91,38.805,44.603,61.273c10.668,22.469,16.543,45.633,17.573,69.467
	C1573.31,1077.533,1569.368,1101.446,1560.426,1125.486z"/>
<path fill="#010101" d="M1475.189,1021.466c-7.162-12.548-16.154-24.015-26.926-34.399l-35.971-34.682
	c-10.744-10.383-22.598-18.834-35.558-25.405c-12.961-6.546-26.103-10.462-39.423-11.75c-13.297-1.29-26.799,0.566-40.429,5.487
	c-13.655,4.922-26.412,13.553-38.264,25.846c-11.878,12.29-19.918,25.276-24.221,38.958c-4.253,13.657-5.593,27.211-3.995,40.608
	c1.599,13.425,5.901,26.488,12.961,39.191c6.984,12.729,15.898,24.248,26.67,34.632l35.97,34.681
	c10.771,10.385,22.599,18.836,35.559,25.407c12.961,6.57,26.281,10.486,39.887,11.749c13.58,1.263,27.235-0.566,40.891-5.488
	c13.657-4.946,26.541-13.708,38.729-26.333c11.852-12.291,19.891-25.278,24.194-38.934c4.277-13.683,5.488-27.21,3.607-40.608
	C1486.914,1047.026,1482.354,1034.039,1475.189,1021.466z"/>
</svg>
