<?xml version="1.0" encoding="utf-8"?>
<!-- Generator: Adobe Illustrator 16.0.0, SVG Export Plug-In . SVG Version: 6.00 Build 0)  -->
<!DOCTYPE svg PUBLIC "-//W3C//DTD SVG 1.1//EN" "http://www.w3.org/Graphics/SVG/1.1/DTD/svg11.dtd">
<svg version="1.1" id="Layer_1" xmlns="http://www.w3.org/2000/svg" xmlns:xlink="http://www.w3.org/1999/xlink" x="0px" y="0px"
	 width="2000px" height="2000px" viewBox="0 0 2000 2000" enable-background="new 0 0 2000 2000" xml:space="preserve">
<g>
	<g>
		<path d="M1747.352,1887.522L1747.352,1887.522c-9.045,0-17.963-2.396-25.785-6.93c-37.168-21.681-102.528-68.876-123.551-141.915
			c-2.962-10.275-4.998-20.194-6.667-28.679c-2.796-14.19-4.653-27.958-5.558-41.188c-58.025,2.607-132.842-1.605-222.461-12.349
			c-168.09-20.147-315.838-121.38-395.223-270.796c-8.136-15.306-15.631-31.344-22.269-47.654
			c-31.583-77.67-36.9-133.541-16.271-170.828c29.061-52.566,116.051-108.744,273.037-108.744
			c74.166,0,145.547,14.167,201.005,39.895c107.675,49.936,208.786,162.797,300.515,335.438c3.1,5.82,6.049,11.583,8.846,17.277
			c11.508-5.729,23.732-10.896,36.607-15.477l4.699-1.709c4.432-1.63,9.457-3.477,14.957-5.055
			c16.414-4.729,33.995-7.124,52.245-7.124c55.915,0,107.675,22.663,133.552,36.174c12.383,6.489,21.674,17.866,25.516,31.233
			c3.848,13.299,2.059,27.855-4.904,39.907c-21.67,37.197-68.844,102.587-141.877,123.644c-5.683,1.635-11.475,3.121-17.403,4.448
			c2.036,5.723,3.865,11.411,5.506,17.095c21.091,73.033-9.177,147.781-29.095,185.836c-6.524,12.373-17.873,21.635-31.178,25.5
			C1756.797,1886.871,1752.086,1887.522,1747.352,1887.522z M1614.79,1608.127c7.519,0,14.79,2.898,20.268,8.153
			c6.198,5.952,9.474,14.321,8.954,22.897c-1.087,17.861,0.52,37.878,4.779,59.501c1.498,7.627,3.162,15.745,5.482,23.796
			c14.619,50.787,63.715,87.138,90.105,103.529c13.602-27.832,35.911-84.766,21.234-135.581
			c-4.042-13.991-9.588-28.187-16.969-43.429c-4.146-8.559-3.877-18.6,0.727-26.924c4.602-8.33,12.961-13.898,22.411-14.939
			c16.804-1.852,31.766-4.711,45.762-8.747c50.759-14.631,87.075-63.714,103.461-90.128c-22.549-11.023-60.427-26.025-99.527-26.025
			c-12.772,0-24.905,1.623-36.06,4.837c-3.471,0.995-7.095,2.333-10.932,3.739c-1.766,0.651-3.533,1.303-5.316,1.938
			c-20.086,7.136-38.049,15.912-53.383,26.077c-7.307,4.837-16.387,6.141-24.745,3.591c-8.364-2.562-15.146-8.725-18.483-16.82
			c-5.512-13.339-12.281-27.581-20.131-42.344c-85.612-161.125-177.615-265.353-273.455-309.799
			c-47.9-22.224-110.533-34.465-176.369-34.465c-106.697,0-195.836,31.566-221.804,78.533
			c-5.151,9.314-13.573,39.662,19.268,120.431c5.888,14.471,12.527,28.689,19.736,42.245
			c70.404,132.5,201.428,222.268,350.496,240.141c102.467,12.286,185.23,15.705,241.512,9.947
			C1612.812,1608.179,1613.801,1608.127,1614.79,1608.127z"/>
	</g>
	<g>
		<path d="M773.986,1125.252c-25.511,0-56.07-4.18-90.809-12.412c-17.152-4.076-34.144-9.027-50.507-14.723
			c-159.794-55.635-282.419-186.182-328.016-349.221c-24.441-87.367-39.93-160.478-46.208-217.954
			c-8.685,0.737-17.678,1.106-26.917,1.106l0,0c-4.82,0-9.697-0.1-14.619-0.303c-8.582-0.346-18.65-0.832-29.399-2.216
			c-75.366-9.605-132.002-66.987-159.045-100.333c-8.736-10.832-12.75-24.893-11.069-38.649c1.83-13.987,9.245-26.608,20.388-34.878
			c29.725-21.932,89.488-58.637,156.552-58.637c7.661,0,15.317,0.483,22.749,1.441c5.855,0.746,11.75,1.684,17.712,2.821
			c0.412-6.072,0.983-12.026,1.744-17.898c9.651-75.383,67.059-131.991,100.425-159.022c10.949-8.782,25.116-12.773,38.804-11.018
			c13.779,1.77,26.426,9.208,34.704,20.411c25.477,34.613,66.739,103.861,57.134,179.221c-0.726,5.692-1.79,10.949-2.722,15.585
			l-0.96,4.857c-2.562,13.421-5.797,26.303-9.702,38.549c6.055,1.898,12.207,3.934,18.427,6.106
			C657.278,442.355,784.26,525.031,850.072,623.81c44.418,66.661,72.976,163.03,76.401,257.789
			c3.693,102.326-22.555,182.958-72.016,221.218C835.236,1117.699,808.159,1125.252,773.986,1125.252z M285.056,468.212
			c6.369,0,12.624,2.076,17.77,6.009c6.833,5.217,11.029,13.17,11.469,21.752c2.95,57.044,18.679,136.836,46.745,237.152
			c40.438,144.592,149.177,260.365,290.875,309.694c14.499,5.054,29.564,9.444,44.778,13.058
			c30.313,7.182,56.321,10.83,77.292,10.83c20.594,0,36.031-3.522,44.635-10.189c73.834-57.119,64.309-277.811-17.278-400.245
			c-58.568-87.921-175.637-162.916-347.946-222.899c-15.786-5.503-30.891-10.02-44.927-13.43
			c-8.502-2.064-15.637-7.827-19.445-15.703c-3.808-7.878-3.894-17.046-0.234-24.994c7.707-16.711,13.636-35.808,17.621-56.753
			c0.349-1.827,0.709-3.653,1.086-5.48c0.812-4.031,1.578-7.839,2.035-11.438c6.678-52.385-23.938-105.219-41.668-130.753
			c-23.487,20.128-66.538,63.557-73.25,116.013c-1.853,14.425-2.39,29.65-1.646,46.56c0.417,9.505-3.808,18.618-11.332,24.441
			c-7.518,5.82-17.409,7.63-26.5,4.831c-16.22-4.977-31.103-8.29-45.493-10.128c-4.985-0.641-10.131-0.963-15.305-0.963
			c-46.23,0-90.134,24.947-115.467,42.657c20.17,23.516,63.617,66.539,116.073,73.225c7.593,0.975,15.22,1.421,24.35,1.79
			c4.134,0.171,8.21,0.254,12.235,0.254h0.005c17.307,0,33.224-1.555,47.289-4.62C280.894,468.432,282.986,468.212,285.056,468.212z
			"/>
	</g>
	<g>
		<g>
			<path d="M1325.492,889.566c-5.764,0-11.525-1.698-16.506-5.097c-29.977-20.465-292.877-203.895-292.877-340.868
				c0-94.159,73.113-194.976,181.943-194.976c63.686,0,103.981,30.848,127.445,58.88c23.476-28.032,63.771-58.88,127.434-58.88
				c108.836,0,181.949,100.828,181.949,194.999c0,136.994-262.912,320.386-292.895,340.848
				C1337.013,887.868,1331.256,889.566,1325.492,889.566z M1198.053,407.171c-51.73,0-123.397,47.411-123.397,136.43
				c0,75.903,147.45,207.382,250.837,280.999c103.398-73.599,250.843-205.061,250.843-280.976
				c0-89.033-71.667-136.453-123.403-136.453c-74.251,0-99.824,65.055-100.076,65.712c-4.316,11.363-15.208,18.876-27.363,18.876
				h-0.006c-12.154-0.003-23.053-7.521-27.363-18.89C1297.129,470.37,1271.264,407.171,1198.053,407.171z"/>
		</g>
	</g>
	<path d="M774.735,811.996c0-21.217-17.204-38.417-38.415-38.417c-21.217,0-38.421,17.201-38.421,38.417
		c0,21.22,17.204,38.418,38.421,38.418C757.531,850.414,774.735,833.216,774.735,811.996z"/>
	<path d="M1198.51,1219.41c0-21.217-17.203-38.414-38.414-38.414c-21.217,0-38.421,17.197-38.421,38.414
		c0,21.218,17.204,38.416,38.421,38.416C1181.307,1257.826,1198.51,1240.628,1198.51,1219.41z"/>
</g>
</svg>
