<?xml version="1.0" encoding="utf-8"?>
<!-- Generator: Adobe Illustrator 16.0.0, SVG Export Plug-In . SVG Version: 6.00 Build 0)  -->
<!DOCTYPE svg PUBLIC "-//W3C//DTD SVG 1.1//EN" "http://www.w3.org/Graphics/SVG/1.1/DTD/svg11.dtd">
<svg version="1.1" id="Layer_1" xmlns="http://www.w3.org/2000/svg" xmlns:xlink="http://www.w3.org/1999/xlink" x="0px" y="0px"
	 width="2000px" height="2000px" viewBox="0 0 2000 2000" enable-background="new 0 0 2000 2000" xml:space="preserve">
<g>
	<path fill="none" d="M999.965,1936.699c7.302-9.078,12.354-14.752,16.74-20.907c78.789-110.516,160.136-219.315,235.611-332.046
		c119.537-178.536,227.821-363.762,307.155-564.31c43.163-109.11,79.162-219.747,74.354-339.986
		c-6.646-166.055-64.964-310.912-183.63-426.097c-190.259-184.687-416.082-235.259-666.73-149.577
		c-293.373,100.288-469.57,418.648-404.086,720.978c26.076,120.393,73.496,233.431,127.625,343.547
		c120.188,244.516,270.556,470.196,432.308,688.673C958.58,1882.999,978.511,1908.535,999.965,1936.699z"/>
	<path fill-rule="evenodd" clip-rule="evenodd" d="M999.965,1936.699c-21.454-28.164-41.385-53.7-60.653-79.726
		c-161.751-218.477-312.12-444.157-432.308-688.673c-54.129-110.116-101.549-223.154-127.625-343.547
		c-65.483-302.329,110.714-620.69,404.086-720.978c250.648-85.682,476.471-35.109,666.73,149.577
		c118.666,115.186,176.984,260.042,183.63,426.097c4.809,120.239-31.19,230.875-74.354,339.986
		c-79.334,200.548-187.618,385.773-307.155,564.31c-75.476,112.73-156.822,221.53-235.611,332.046
		C1012.318,1921.947,1007.267,1927.621,999.965,1936.699z M1310.22,705.413c7.116-160.702-127.203-308.52-287.093-315.937
		c-182.541-8.468-323.81,119.699-332.571,301.729c-7.885,163.833,127.863,310.214,294.37,317.425
		C1160.851,1016.252,1302.301,884.399,1310.22,705.413z"/>
</g>
</svg>
