<?xml version="1.0" encoding="utf-8"?>
<!-- Generator: Adobe Illustrator 16.0.0, SVG Export Plug-In . SVG Version: 6.00 Build 0)  -->
<!DOCTYPE svg PUBLIC "-//W3C//DTD SVG 1.1//EN" "http://www.w3.org/Graphics/SVG/1.1/DTD/svg11.dtd">
<svg version="1.1" id="Layer_1" xmlns="http://www.w3.org/2000/svg" xmlns:xlink="http://www.w3.org/1999/xlink" x="0px" y="0px"
	 width="2000px" height="2000px" viewBox="0 0 2000 2000" enable-background="new 0 0 2000 2000" xml:space="preserve">
<g>
	<g>
		<polygon points="226.148,1709.107 485.917,1709.107 485.917,737.957 54.804,737.957 		"/>
		<path d="M1945.195,888.539c0-103.839-83.047-119.543-83.047-119.543h-540.143c0,0-36.414-46.638-5.269-145.363
			c31.143-98.702,36.438-244.068,10.433-306.38c-25.927-62.315-72.722-176.613-192.187-181.777
			c-70.06,10.745-93.481,67.477-93.481,67.477v228.624c0,0-223.226,404.978-254.37,410.141
			c-31.25,5.269-155.591,20.84-155.591,20.84v716.704h36.126c0,0,264.804,129.819,316.71,129.819c51.983,0,654.441,0,654.441,0
			s93.455-20.842,93.455-124.63c0-67.479-57.148-109.133-57.148-109.133s140.305-10.355,140.305-129.767
			c0-49.037-67.609-93.484-67.609-93.484s129.897-25.979,124.758-135.01c-10.431-67.506-46.818-103.918-46.818-103.918
			S1945.195,992.352,1945.195,888.539z"/>
	</g>
</g>
</svg>
