<?xml version="1.0" encoding="utf-8"?>
<!-- Generator: Adobe Illustrator 16.0.0, SVG Export Plug-In . SVG Version: 6.00 Build 0)  -->
<!DOCTYPE svg PUBLIC "-//W3C//DTD SVG 1.1//EN" "http://www.w3.org/Graphics/SVG/1.1/DTD/svg11.dtd">
<svg version="1.1" id="Layer_1" xmlns="http://www.w3.org/2000/svg" xmlns:xlink="http://www.w3.org/1999/xlink" x="0px" y="0px"
	 width="2000px" height="2000px" viewBox="0 0 2000 2000" enable-background="new 0 0 2000 2000" xml:space="preserve">
<g>
	<path d="M1000.026,48.086c-525.748,0-951.942,426.194-951.942,951.913c0,525.722,426.194,951.915,951.942,951.915
		c525.69,0,951.89-426.193,951.89-951.915C1951.916,474.28,1525.717,48.086,1000.026,48.086z M1075.16,1511.153v170.386h-163.7
		v-158.727c-111.938-5.002-220.453-35.064-283.956-71.816l50.07-195.448c70.192,38.438,168.756,73.503,277.329,73.503
		c95.192,0,160.322-36.725,160.322-103.568c0-63.443-53.441-103.54-177.074-145.29c-178.696-60.16-300.644-143.664-300.644-305.735
		c0-146.977,103.568-262.205,282.328-297.328V318.49h163.64V465.47c111.939,5.031,187.131,28.406,242.257,55.126l-48.436,188.731
		c-43.443-18.374-120.262-56.754-240.576-56.754c-108.568,0-143.635,46.753-143.635,93.507c0,55.158,58.44,90.194,200.447,143.692
		c198.766,70.131,278.957,161.981,278.957,312.335C1372.49,1350.77,1267.236,1477.745,1075.16,1511.153z"/>
</g>
</svg>
