<?xml version="1.0" encoding="utf-8"?>
<!-- Generator: Adobe Illustrator 16.0.0, SVG Export Plug-In . SVG Version: 6.00 Build 0)  -->
<!DOCTYPE svg PUBLIC "-//W3C//DTD SVG 1.1//EN" "http://www.w3.org/Graphics/SVG/1.1/DTD/svg11.dtd">
<svg version="1.1" id="Layer_1" xmlns="http://www.w3.org/2000/svg" xmlns:xlink="http://www.w3.org/1999/xlink" x="0px" y="0px"
	 width="2000px" height="925px" viewBox="0 507.5 2000 925" enable-background="new 0 507.5 2000 925" xml:space="preserve">
<path fill="#010101" d="M901.207,1251.296c-88.417,97.781-175.366,100.438-266.951,7.775
	c-36.635,39.639-79.295,67.812-136.795,64.862c-56.248-2.884-96.333-32.298-129.655-76.694
	c-36.068,47.658-80.562,78.205-140.938,74.594c-11.573-0.688-28.483-11.385-32.626-21.639
	c-42.155-104.25-82.213-209.325-122.649-314.258c-1.954-5.063-1.98-10.864-4.312-24.647c289.633-7.121,576.72-14.178,870.625-21.407
	c-38.69-66.29-73.347-126.776-109.672-186.252c-3.813-6.266-17.361-8.961-26.505-9.203c-37.692-1.007-75.436-0.421-115.897-0.421
	v-86.309c9.17-1.175,19.033-3.402,28.922-3.562c179.212-2.908,358.445-5.224,537.646-8.768c21.039-0.414,33.019,5.834,43.709,24.112
	c45.812,78.298,93.761,155.343,139.611,233.616c11.238,19.186,23.782,26.871,46.479,26.076
	c148.033-5.158,296.121-8.92,451.274-13.339c-7.53,13.036-12.268,22.377-18.026,31.038
	c-64.894,97.533-129.581,195.216-195.045,292.364c-74.392,110.395-191.17,115.164-276.61,9.066
	c-35.174,42.861-77.288,74.648-135.28,74.498c-58.504-0.159-102.08-29.373-137.294-77.799
	c-34.475,45.314-75.812,76.156-132.674,77.641C981.311,1324.124,937.479,1297.362,901.207,1251.296 M977.727,743.749
	c40.293,64.538,75.906,122.025,112.228,179.058c3.706,5.817,11.763,12.806,17.678,12.688c83.041-1.614,166.062-4.373,254.485-7.013
	c-38.044-63.431-73.01-122.27-108.863-180.559c-3.483-5.663-12.585-11.354-18.958-11.224
	C1150.996,738.369,1067.727,741.094,977.727,743.749"/>
</svg>
