<?xml version="1.0" encoding="utf-8"?>
<!-- Generator: Adobe Illustrator 16.0.0, SVG Export Plug-In . SVG Version: 6.00 Build 0)  -->
<!DOCTYPE svg PUBLIC "-//W3C//DTD SVG 1.1//EN" "http://www.w3.org/Graphics/SVG/1.1/DTD/svg11.dtd">
<svg version="1.1" id="Layer_1" xmlns="http://www.w3.org/2000/svg" xmlns:xlink="http://www.w3.org/1999/xlink" x="0px" y="0px"
	 width="2000px" height="2000px" viewBox="0 0 2000 2000" enable-background="new 0 0 2000 2000" xml:space="preserve">
<path d="M757.727,1787.465c-14.923-19.116-21.667-35.356-33.636-41.684c-39.594-20.898-70.203-48.057-82.514-92.503
	c-14.038-50.689,10.367-85.384,62.606-86.144c68.317-1.001,136.665-1.033,204.964,0.017c48.943,0.751,71.562,30.448,62.891,79.042
	c-7.938,44.41-36.374,72.528-73.94,93.488c-11.594,6.468-23.07,13.136-45.505,25.923c20.482,4.774,29.004,9.039,37.058,8.288
	c94.875-8.805,189.932-16.451,284.411-28.479c52.024-6.619,78.575-47.214,98.246-91.609
	c98.439-222.158,191.05-447.144,297.385-665.432c50.705-104.092,52.173-196.297,1.202-295.051
	c-7.771-15.061-14.038-31.332-18.154-47.75c-10.065-40.146,9.976-79.553,46.573-94.902c37.518-15.746,82.288-4.867,99.606,32.893
	c63.633,138.654,112.769,273.892,35.581,431.08c-112.009,228.125-208.401,463.97-309.754,697.262
	c-59.427,136.805-163.623,197.217-310.411,205.63c-158.917,9.09-317.173,29.564-475.729,44.881
	c-58.575,5.648-97.253-20.726-103.17-69.627c-5.534-45.722,26.549-82.405,81.604-90.209
	C659.089,1796.611,701.537,1793.382,757.727,1787.465 M1616.866,607.666c6.652,23.154,9.207,34.484,13.138,45.313
	c13.087,36.052,26.634,71.93,40.056,107.852c24.179,64.697,20.172,126.92-9.434,189.996
	c-44.069,93.888-84.397,189.53-126.372,284.404c-64.943,146.839-130.404,293.461-194.73,440.575
	c-37.1,84.841-94.574,136.998-192.278,144.535c-158.806,12.243-317.155,30.506-475.654,46.64
	c-21.851,2.219-43.469,6.709-65.202,10.156c0.751,5.232,1.485,10.477,2.237,15.699c24.697-1.175,49.494-1.242,74.067-3.72
	c154.258-15.566,308.2-35.355,462.777-46.282c103.77-7.345,169.747-59.318,209.795-149.066
	c112.351-251.729,223.859-503.85,333.172-756.897c14.063-32.571,23.896-73.762,17.077-107.151
	c-14.09-69-40.496-135.499-62.641-202.764C1641.271,622.109,1633.135,619.426,1616.866,607.666"/>
<path d="M807.021,856.933c95.092,0,191.585-10.369,284.981,2.229c176.209,23.762,283.802,153.511,289.42,330.932
	c1.068,34.004,1.561,68.757-3.999,102.117c-31.272,187.597-180.566,277.72-374.453,227.773c-2.745-0.708-5.567-1.393-8.122-2.595
	c-49.895-23.679-96.851-26.373-152.196-6.294c-33.794,12.271-79.057-7.896-119.303-12.252c-16.834-1.817-34.447-2.872-50.988-0.041
	c-61.121,10.466-121.908,31.95-182.888,32.217c-107.685,0.492-187.626-55.569-229.192-155.219
	c-47.691-114.337-46.456-232.34,9.232-342.863c64.818-128.686,182.453-177.297,319.85-183.408
	c72.406-3.223,145.078-0.571,217.633-0.571C807.005,851.615,807.012,854.274,807.021,856.933 M903.32,1431.265
	c45.925,17.01,84.583,36.155,125.48,45.569c130.89,30.123,237.015-14.089,280.174-118.952
	c40.765-99.038,41.023-201.733-6.018-298.36c-57.641-118.398-164.709-159.883-288.819-162.259
	c-133.852-2.563-267.795-0.702-401.688-0.571c-227.607,0.212-354.281,138.65-334.317,365.164
	c13.396,151.946,113.596,237.55,265.717,219.52c55.011-6.528,108.129-28.888,168.689-45.863
	C781.564,1486.108,837.218,1485.858,903.32,1431.265"/>
<path d="M808.956,942.959c71.197,0,142.391-0.717,213.56,0.139c213.411,2.554,339.219,215.045,240.037,405.468
	c-30.991,59.51-80.895,90.2-148.283,90.45c-117.235,0.458-207.701-41.666-250.943-158.765c-9.799-26.56-24.623-48.21-57.85-47.884
	c-33.327,0.333-47.432,22.985-57.08,49.167c-44.556,121.092-141.908,162.04-264.667,156.982
	c-69.408-2.855-127.549-50.247-146.955-123.043c-52.549-196.984,33.328-372.114,271.442-372.5
	C675.13,942.864,742.051,942.959,808.956,942.959"/>
<path d="M805.301,1276.638c24.305,40.814,46.824,76.177,66.139,113.235c3.504,6.735-2.956,24.446-10.241,30.056
	c-37.286,28.729-89.816,21.008-125.565-16.659C758.178,1362.28,780.854,1321.066,805.301,1276.638"/>
<path d="M1029.744,575.675c0-51.924-42.09-94.015-94.014-94.015c-51.922,0-94.014,42.091-94.014,94.015
	c0,51.919,42.091,94.014,94.014,94.014C987.654,669.689,1029.744,627.594,1029.744,575.675"/>
<path d="M1388.707,344.913c0-75.527-61.22-136.748-136.746-136.748c-75.527,0-136.747,61.221-136.747,136.748
	c0,75.526,61.22,136.747,136.747,136.747C1327.487,481.66,1388.707,420.439,1388.707,344.913"/>
<path d="M910.09,131.244c0-47.203-38.268-85.467-85.467-85.467c-47.2,0-85.468,38.265-85.468,85.467
	c0,47.204,38.268,85.468,85.468,85.468C871.822,216.711,910.09,178.448,910.09,131.244"/>
</svg>
