<?xml version="1.0" encoding="utf-8"?>
<!-- Generator: Adobe Illustrator 16.0.0, SVG Export Plug-In . SVG Version: 6.00 Build 0)  -->
<!DOCTYPE svg PUBLIC "-//W3C//DTD SVG 1.1//EN" "http://www.w3.org/Graphics/SVG/1.1/DTD/svg11.dtd">
<svg version="1.1" id="Layer_1" xmlns="http://www.w3.org/2000/svg" xmlns:xlink="http://www.w3.org/1999/xlink" x="0px" y="0px"
	 width="2000px" height="2000px" viewBox="0 0 2000 2000" enable-background="new 0 0 2000 2000" xml:space="preserve">
<g>
	<path fill="none" d="M1445.672,1930.009c145.641-7.647,277.791-65.957,374.759-192.978c40.192-52.65,71.066-110.48,78.498-178.21
		c2.93-26.7-3.231-46.571-29.335-60.672c-42.998-23.218-84.083-49.944-126.258-74.704
		c-82.378-48.352-164.788-96.656-247.526-144.391c-39.674-22.886-63.178-20.832-98.346,8.478
		c-13.992,11.66-26.736,25.198-38.344,39.284c-37.432,45.438-72.493,92.927-111.449,136.984
		c-40.536,45.844-64.815,49.909-115.769,16.889c-64.716-41.93-128.758-85.423-189.457-132.896
		c-122.907-96.137-243.897-194.897-343.066-316.859c-51.377-63.187-96.587-130.006-118.282-210.17
		c-7.691-28.417-3.934-53.45,17.584-73.752c28.862-27.235,58.789-53.348,88.285-79.914c33.464-30.143,68.985-58.328,99.904-90.887
		c35.388-37.257,36.032-63.263,9.183-107.482C621.084,345.264,545.261,222.309,470.878,98.496
		c-12.333-20.533-28.668-31.049-50.359-27.979c-28.386,4.018-58.521,7.751-83.676,20.17
		c-68.983,34.057-130.429,79.769-181.931,137.496C70.368,322.938,27.342,432.049,43.925,560.588
		c12.174,94.356,36.366,185.8,69.666,274.835c90.407,241.729,235.668,446.173,423.357,621.645
		c157.163,146.928,326.505,276.808,521.923,369.648C1177.771,1883.207,1301.076,1924.298,1445.672,1930.009z"/>
	<path fill-rule="evenodd" clip-rule="evenodd" d="M1445.672,1930.009c-144.596-5.711-267.9-46.802-386.801-103.292
		c-195.418-92.841-364.761-222.721-521.923-369.648c-187.689-175.472-332.95-379.916-423.357-621.645
		c-33.299-89.036-57.492-180.479-69.666-274.835C27.342,432.049,70.368,322.938,154.912,228.182
		c51.502-57.727,112.948-103.439,181.931-137.496c25.156-12.418,55.29-16.152,83.676-20.17c21.691-3.07,38.026,7.446,50.359,27.979
		c74.383,123.813,150.206,246.768,225.175,370.232c26.849,44.22,26.206,70.226-9.183,107.482
		c-30.919,32.56-66.44,60.745-99.904,90.887c-29.496,26.566-59.422,52.679-88.285,79.914
		c-21.519,20.302-25.275,45.335-17.584,73.752c21.695,80.164,66.905,146.983,118.282,210.17
		c99.169,121.962,220.159,220.723,343.066,316.859c60.699,47.474,124.741,90.967,189.457,132.896
		c50.953,33.021,75.232,28.955,115.769-16.889c38.956-44.058,74.018-91.546,111.449-136.984
		c11.607-14.086,24.352-27.624,38.344-39.284c35.168-29.31,58.672-31.363,98.346-8.478
		c82.738,47.734,165.148,96.039,247.526,144.391c42.175,24.76,83.26,51.486,126.258,74.704
		c26.104,14.101,32.265,33.972,29.335,60.672c-7.432,67.729-38.306,125.56-78.498,178.21
		C1723.463,1864.052,1591.312,1922.361,1445.672,1930.009z"/>
</g>
</svg>
