<?xml version="1.0" encoding="utf-8"?>
<!-- Generator: Adobe Illustrator 16.0.0, SVG Export Plug-In . SVG Version: 6.00 Build 0)  -->
<!DOCTYPE svg PUBLIC "-//W3C//DTD SVG 1.1//EN" "http://www.w3.org/Graphics/SVG/1.1/DTD/svg11.dtd">
<svg version="1.1" id="Layer_1" xmlns="http://www.w3.org/2000/svg" xmlns:xlink="http://www.w3.org/1999/xlink" x="0px" y="0px"
	 width="2000px" height="2000px" viewBox="0 0 2000 2000" enable-background="new 0 0 2000 2000" xml:space="preserve">
<g>
	<path fill="#010101" d="M1988.793,971.543c0-21.616-5.318-42.485-15.807-62.03c-9.736-18.142-23.479-34.279-40.845-47.967
		c-33.973-26.773-78.645-41.521-125.786-41.521h-175.601v-82.354l137.926-378.517c0.016-0.038,0.027-0.074,0.041-0.112
		c9.114-25.269,7.896-52.557-3.436-76.837c-11.364-24.354-31.589-42.847-56.931-52.066c-11.13-4.055-22.739-6.111-34.512-6.111
		c-42.177,0-80.164,26.629-94.505,66.206l-23.854,65.485c-23.904-61.702-83.924-105.573-153.999-105.573
		c-68.375,0-127.164,41.833-152.13,101.257l-20.99-60.83c-13.957-40.651-52.278-67.964-95.359-67.964
		c-11.071,0-22.017,1.824-32.531,5.419c-0.076,0.026-0.152,0.053-0.23,0.08c-25.407,8.88-45.885,27.037-57.662,51.127
		c-11.776,24.092-13.512,51.351-4.886,76.754c0.019,0.055,0.036,0.11,0.056,0.165l134.768,390.762v73.104H830.197v-81.667
		l177.938-295.831c0.024-0.042,0.052-0.084,0.075-0.126c13.747-23.063,17.746-50.072,11.26-76.05
		c-6.507-26.061-22.824-48.071-45.973-61.992c-15.657-9.401-33.554-14.37-51.757-14.37c-35.207,0-68.271,18.716-86.238,48.761
		L756.84,469.497c5.962-17.157,9.146-35.487,9.146-54.392c0-90.958-74.044-164.958-165.059-164.958
		c-90.938,0-164.923,74-164.923,164.958c0,1.337,0.018,2.67,0.048,4.004l-48.276-80.343c-0.033-0.054-0.065-0.107-0.099-0.161
		c-18.23-29.988-51.33-48.618-86.379-48.618c-18.201,0-36.093,4.973-51.714,14.363c-23.2,13.918-39.53,35.968-45.982,62.086
		c-6.42,25.986-2.329,53.001,11.524,76.07L372.455,704.37c-0.331,5.095-0.494,10.35-0.494,15.847v99.803H190.642
		c-47.142,0-91.813,14.746-125.786,41.521c-17.365,13.688-31.107,29.825-40.843,47.967c-10.489,19.544-15.807,40.415-15.807,62.03
		h0.681C7.649,979.852,7,988.351,7,997c0,94.848,77.164,172.012,172.012,172.012h1636.562c94.848,0,172.013-77.164,172.013-172.012
		c0-8.648-0.647-17.146-1.887-25.457H1988.793L1988.793,971.543z M1106.798,332.458c-4.939-14.664,2.689-30.17,17.402-35.388
		c2.862-0.967,5.825-1.458,8.808-1.458c11.906,0,22.481,7.502,26.334,18.724l91.23,264.352c3.82,11.076,12.729,19.646,23.943,23.032
		c11.219,3.392,23.378,1.188,32.693-5.918c16.12-12.295,34.982-21.521,54.554-26.685c15.136-3.993,26.041-17.192,27.105-32.812
		c1.063-15.616-7.946-30.175-22.4-36.186c-34.566-14.375-56.902-47.745-56.902-85.015c0-50.706,41.235-91.959,91.921-91.959
		c50.763,0,92.061,41.253,92.061,91.959c0,37.341-22.251,70.707-56.688,85.007c-14.448,6-23.468,20.54-22.422,36.147
		c1.047,15.61,11.924,28.817,27.043,32.835c19.629,5.219,37.803,14.104,54.015,26.415c9.232,7.014,21.252,9.222,32.371,5.949
		c11.123-3.271,20.028-11.631,23.998-22.524l96.09-263.773c3.931-10.847,14.336-18.135,25.894-18.135
		c3.221,0,6.423,0.572,9.537,1.707c14.595,5.309,21.916,20.881,16.692,35.472l-140.114,384.521
		c-1.459,4.007-2.206,8.234-2.206,12.497v93.761h-312.238V740.8c0-4.05-0.674-8.072-1.994-11.898L1106.798,332.458z
		 M277.707,404.923c-3.845-6.404-4.994-13.854-3.234-20.977c1.757-7.112,6.257-13.148,12.696-17.012
		c4.355-2.617,9.109-3.944,14.131-3.944c9.858,0,18.816,5.043,23.975,13.493l126.387,210.332
		c5.374,8.942,14.319,15.158,24.575,17.077c10.255,1.919,20.843-0.645,29.087-7.041c16.829-13.058,35.646-22.389,55.937-27.731
		c15.145-3.989,26.057-17.192,27.119-32.815c1.064-15.623-7.956-30.184-22.418-36.188c-34.598-14.367-56.954-47.734-56.954-85.007
		c0-50.706,41.237-91.958,91.923-91.958c50.762,0,92.059,41.252,92.059,91.958c0,37.348-22.29,70.71-56.786,84.992
		c-14.473,5.993-23.507,20.553-22.454,36.181s11.961,28.842,27.107,32.837c24.986,6.592,48.206,19.504,67.141,37.341
		c8.038,7.571,19.072,11.094,30.005,9.59c10.938-1.506,20.606-7.882,26.297-17.342l133.81-222.403
		c4.983-8.335,13.819-13.312,23.637-13.312c4.967,0,9.871,1.368,14.158,3.941c13.312,8.006,17.541,24.688,9.65,38.017
		L762.419,709.412c-3.417,5.68-5.222,12.185-5.222,18.812v96.764H444.961V720.22c0-7.185,0.38-13.614,1.164-19.655
		c1.058-8.158-0.672-16.438-4.91-23.49L277.707,404.923z M1815.576,897.988"/>
	<path fill="#010101" d="M1815.576,1200.988H179.012C84.164,1200.988,7,1278.152,7,1373s77.164,172.012,172.012,172.012h1636.562
		c94.848,0,172.013-77.164,172.013-172.012S1910.423,1200.988,1815.576,1200.988z"/>
</g>
</svg>
