<?xml version="1.0" encoding="utf-8"?>
<!-- Generator: Adobe Illustrator 16.0.0, SVG Export Plug-In . SVG Version: 6.00 Build 0)  -->
<!DOCTYPE svg PUBLIC "-//W3C//DTD SVG 1.1//EN" "http://www.w3.org/Graphics/SVG/1.1/DTD/svg11.dtd">
<svg version="1.1" id="Layer_1" xmlns="http://www.w3.org/2000/svg" xmlns:xlink="http://www.w3.org/1999/xlink" x="0px" y="0px"
	 width="2000px" height="2000px" viewBox="0 0 2000 2000" enable-background="new 0 0 2000 2000" xml:space="preserve">
<g>
	<path fill="#010101" d="M1802.621,866.721h-210.583V742.321l139.13-381.82c11.922-33.053-4.934-69.516-38.251-81.636
		c-33.085-12.056-69.647,4.934-81.637,38.02l-95.381,261.832c-19.538-14.837-42.059-25.964-66.236-32.389
		c46.102-19.143,78.623-64.713,78.623-117.868c0-70.443-57.096-127.539-127.638-127.539c-70.309,0-127.504,57.096-127.504,127.539
		c0,53.155,32.786,98.725,78.821,117.868c-24.608,6.491-47.36,17.818-66.899,32.721l-90.577-262.462
		c-11.428-33.283-47.856-50.902-80.975-39.576c-33.45,11.691-51.035,47.855-39.743,81.106l135.784,393.709v114.895H797.202V739.34
		l181.853-302.336c17.982-30.17,8.411-69.15-21.991-87.432c-30.171-18.115-69.317-8.312-87.301,21.759L736.961,592.063
		c-22.852-21.526-51.003-37.489-82.266-45.736c46.233-19.143,78.755-64.713,78.755-117.868c0-70.443-57.096-127.539-127.638-127.539
		c-70.31,0-127.504,57.096-127.504,127.539c0,53.155,32.787,98.725,78.887,117.868c-25.27,6.656-48.418,18.348-68.521,33.946
		L363.122,371.331c-18.282-30.071-57.361-39.874-87.497-21.759c-30.471,18.282-39.908,57.262-21.792,87.432l162.344,270.212
		c-1.027,7.914-1.457,15.963-1.457,24.175v135.329H198.458c-80.022,0-144.892,51.127-144.892,114.196v322.198
		c0,63.066,64.87,114.195,144.892,114.195h1604.163c80.022,0,144.893-51.129,144.893-114.195V980.917
		C1947.514,917.848,1882.644,866.721,1802.621,866.721z"/>
	<path fill="#010101" d="M1812.972,1460.778H188.109c-74.306,0-134.543,60.237-134.543,134.543
		c0,74.305,60.237,134.543,134.543,134.543h1624.862c74.306,0,134.542-60.238,134.542-134.543
		C1947.514,1521.016,1887.277,1460.778,1812.972,1460.778z"/>
</g>
</svg>
