<?xml version="1.0" encoding="utf-8"?>
<!-- Generator: Adobe Illustrator 16.0.0, SVG Export Plug-In . SVG Version: 6.00 Build 0)  -->
<!DOCTYPE svg PUBLIC "-//W3C//DTD SVG 1.1//EN" "http://www.w3.org/Graphics/SVG/1.1/DTD/svg11.dtd">
<svg version="1.1" id="Layer_1" xmlns="http://www.w3.org/2000/svg" xmlns:xlink="http://www.w3.org/1999/xlink" x="0px" y="0px"
	 width="2000px" height="2000px" viewBox="0 0 2000 2000" enable-background="new 0 0 2000 2000" xml:space="preserve">
<g>
	<path fill="#010101" d="M1988.793,971.543c0-21.616-5.318-42.485-15.807-62.03c-9.736-18.142-23.479-34.28-40.844-47.967
		c-33.973-26.774-78.645-41.521-125.787-41.521h-175.6v-82.353l137.926-378.517c0.015-0.038,0.027-0.074,0.041-0.112
		c9.114-25.269,7.896-52.557-3.436-76.837c-11.364-24.354-31.589-42.847-56.93-52.066c-11.13-4.055-22.74-6.111-34.512-6.111
		c-42.177,0-80.164,26.629-94.505,66.206l-23.855,65.486c-23.904-61.702-83.923-105.573-153.999-105.573
		c-68.375,0-127.164,41.833-152.129,101.257l-20.991-60.83c-13.957-40.651-52.278-67.964-95.359-67.964
		c-11.071,0-22.017,1.824-32.531,5.419c-0.077,0.026-0.153,0.053-0.231,0.08c-25.407,8.88-45.885,27.037-57.662,51.127
		c-11.776,24.092-13.512,51.351-4.886,76.754c0.019,0.055,0.036,0.11,0.056,0.165l134.767,390.762v73.104H830.197v-81.667
		l177.939-295.831c0.024-0.042,0.051-0.084,0.075-0.126c13.747-23.063,17.746-50.072,11.26-76.049
		c-6.507-26.061-22.825-48.072-45.973-61.992c-15.657-9.401-33.554-14.37-51.757-14.37c-35.207,0-68.271,18.716-86.238,48.761
		L756.84,469.497c5.962-17.157,9.146-35.487,9.146-54.392c0-90.958-74.044-164.958-165.058-164.958
		c-90.938,0-164.923,74-164.923,164.958c0,1.337,0.017,2.67,0.048,4.004l-48.276-80.342c-0.033-0.054-0.065-0.108-0.099-0.162
		c-18.23-29.988-51.33-48.617-86.379-48.617c-18.201,0-36.093,4.973-51.714,14.363c-23.2,13.919-39.53,35.968-45.982,62.086
		c-6.42,25.987-2.329,53.001,11.524,76.071L372.455,704.37c-0.331,5.095-0.494,10.35-0.494,15.847v99.803H190.642
		c-47.142,0-91.813,14.746-125.786,41.521c-17.365,13.688-31.107,29.825-40.843,47.967c-10.489,19.544-15.807,40.415-15.807,62.03
		h0.681C7.649,979.852,7,988.351,7,997c0,94.848,77.164,172.012,172.012,172.012h1636.562c94.848,0,172.013-77.164,172.013-172.012
		c0-8.648-0.647-17.146-1.887-25.457H1988.793L1988.793,971.543z M1106.798,332.458c-4.94-14.664,2.689-30.17,17.402-35.388
		c2.862-0.967,5.825-1.458,8.808-1.458c11.906,0,22.481,7.502,26.334,18.724l91.23,264.352
		c3.821,11.076,12.729,19.645,23.944,23.032c11.218,3.391,23.378,1.188,32.693-5.918c16.12-12.295,34.983-21.522,54.554-26.685
		c15.136-3.993,26.041-17.192,27.105-32.811c1.064-15.617-7.946-30.175-22.4-36.186c-34.566-14.375-56.902-47.745-56.902-85.015
		c0-50.706,41.235-91.958,91.92-91.958c50.763,0,92.061,41.252,92.061,91.958c0,37.341-22.251,70.708-56.688,85.007
		c-14.448,6-23.467,20.54-22.421,36.148c1.046,15.61,11.923,28.817,27.043,32.835c19.628,5.218,37.802,14.104,54.014,26.415
		c9.233,7.013,21.252,9.221,32.371,5.949c11.123-3.271,20.029-11.631,23.998-22.524l96.09-263.774
		c3.931-10.847,14.336-18.135,25.894-18.135c3.221,0,6.423,0.572,9.537,1.707c14.595,5.309,21.916,20.881,16.692,35.472
		l-140.114,384.522c-1.459,4.006-2.206,8.234-2.206,12.497v93.76h-312.238V740.8c0-4.05-0.674-8.072-1.994-11.899L1106.798,332.458z
		 M277.707,404.923c-3.845-6.404-4.994-13.854-3.234-20.977c1.757-7.112,6.257-13.148,12.696-17.011
		c4.355-2.618,9.109-3.945,14.131-3.945c9.858,0,18.816,5.043,23.975,13.493l126.387,210.332
		c5.374,8.943,14.319,15.159,24.575,17.077c10.255,1.919,20.843-0.644,29.087-7.041c16.829-13.057,35.647-22.388,55.937-27.731
		c15.144-3.989,26.056-17.192,27.119-32.815c1.064-15.623-7.956-30.184-22.418-36.189c-34.598-14.367-56.954-47.734-56.954-85.007
		c0-50.706,41.237-91.958,91.923-91.958c50.761,0,92.058,41.252,92.058,91.958c0,37.348-22.29,70.71-56.786,84.993
		c-14.473,5.993-23.507,20.552-22.454,36.18s11.961,28.842,27.107,32.837c24.987,6.592,48.206,19.504,67.141,37.341
		c8.038,7.571,19.072,11.094,30.005,9.59c10.938-1.506,20.606-7.882,26.297-17.342l133.809-222.403
		c4.984-8.335,13.82-13.312,23.637-13.312c4.967,0,9.871,1.368,14.158,3.942c13.312,8.005,17.541,24.688,9.651,38.016
		L762.419,709.412c-3.417,5.68-5.222,12.185-5.222,18.812v96.763H444.961V720.22c0-7.185,0.38-13.614,1.164-19.655
		c1.058-8.159-0.672-16.438-4.91-23.491L277.707,404.923z M1815.574,1096.012H179.012C124.417,1096.012,80,1051.596,80,997
		c0-8.799,1.16-17.331,3.324-25.458c11.263-42.299,49.892-73.554,95.688-73.554h1636.564c45.797,0,84.424,31.256,95.688,73.555
		l3.323,25.457C1914.587,1051.596,1870.17,1096.012,1815.574,1096.012z"/>
	<path fill="#010101" d="M1815.576,1200.988H179.012C84.164,1200.988,7,1278.152,7,1373s77.164,172.012,172.012,172.012h1636.562
		c94.848,0,172.013-77.164,172.013-172.012S1910.423,1200.988,1815.576,1200.988z M1815.574,1472.012H179.012
		C124.417,1472.012,80,1427.596,80,1373s44.417-99.012,99.012-99.012h1636.564c54.595,0,99.011,44.416,99.011,99.012
		S1870.17,1472.012,1815.574,1472.012z"/>
</g>
</svg>
