<?xml version="1.0" encoding="utf-8"?>
<!-- Generator: Adobe Illustrator 16.0.0, SVG Export Plug-In . SVG Version: 6.00 Build 0)  -->
<!DOCTYPE svg PUBLIC "-//W3C//DTD SVG 1.1//EN" "http://www.w3.org/Graphics/SVG/1.1/DTD/svg11.dtd">
<svg version="1.1" id="Layer_1" xmlns="http://www.w3.org/2000/svg" xmlns:xlink="http://www.w3.org/1999/xlink" x="0px" y="0px"
	 width="2000px" height="2000px" viewBox="0 0 2000 2000" enable-background="new 0 0 2000 2000" xml:space="preserve">
<g>
	<path fill="none" d="M1606.703,1569.973c0,27.355-0.435,52.506,0.087,77.643c1.238,59.449,43.292,112.176,99.887,125.891
		c85.824,20.803,165.208-41.416,165.553-131.141c0.606-156.582,0.009-313.172,0.238-469.756
		c0.132-90.14-15.991-177.116-48.737-261.071c-7.773-19.935-15.197-40-23.905-62.968c17.93,0,32.598,0.699,47.174-0.124
		c58.96-3.329,102.968-50.445,101.235-107.833c-1.695-56.256-47.963-100.384-106.101-100.837
		c-35.107-0.271-70.234-0.753-105.313,0.305c-13.535,0.407-19.605-4.186-24.263-16.601
		c-26.339-70.194-52.405-140.525-80.705-209.937c-33.563-82.326-94.005-134.652-181.821-153.018
		c-128.965-26.968-259.884-35.215-391.161-37.49c-163.704-2.84-326.787,4.477-488.565,32.925
		c-102.432,18.017-171.613,73.779-207.945,171.266c-24.468,65.655-50.474,130.738-75.037,196.36
		c-4.677,12.494-10.922,16.906-24.372,16.486c-33.671-1.053-67.398-0.42-101.102-0.333
		c-62.345,0.164-109.543,44.416-110.129,103.149c-0.595,59.647,46.5,105.039,109.799,105.758
		c11.796,0.132,23.595,0.017,38.581,0.017c-4.816,12.601-8.218,22.292-12.183,31.749c-34.752,82.898-58.52,168.966-59.655,258.921
		c-2.142,169.9-1.159,339.844-0.397,509.768c0.266,59.268,44.186,111.467,101.141,124.672
		c84.295,19.539,163.024-42.012,164.212-128.568c0.341-24.91,0.053-49.828,0.053-75.232
		C799.005,1569.973,1201.255,1569.973,1606.703,1569.973z"/>
	<path fill-rule="evenodd" clip-rule="evenodd" d="M1606.703,1569.973c-405.448,0-807.698,0-1213.431,0
		c0,25.404,0.288,50.322-0.053,75.232c-1.188,86.557-79.917,148.107-164.212,128.568c-56.956-13.205-100.875-65.404-101.141-124.672
		c-0.762-169.924-1.745-339.867,0.397-509.768c1.135-89.955,24.903-176.022,59.655-258.921c3.965-9.456,7.366-19.148,12.183-31.749
		c-14.985,0-26.784,0.115-38.581-0.017c-63.299-0.719-110.394-46.111-109.799-105.758c0.586-58.733,47.784-102.985,110.129-103.149
		c33.704-0.087,67.431-0.72,101.102,0.333c13.45,0.42,19.695-3.992,24.372-16.486c24.562-65.622,50.569-130.705,75.037-196.36
		c36.332-97.486,105.513-153.249,207.945-171.266c161.778-28.448,324.861-35.765,488.565-32.925
		c131.277,2.275,262.196,10.522,391.161,37.49c87.816,18.366,148.258,70.692,181.821,153.018
		c28.3,69.412,54.366,139.743,80.705,209.937c4.657,12.415,10.728,17.008,24.263,16.601c35.079-1.058,70.206-0.576,105.313-0.305
		c58.138,0.453,104.405,44.581,106.101,100.837c1.732,57.388-42.275,104.503-101.235,107.833
		c-14.576,0.823-29.244,0.124-47.174,0.124c8.708,22.968,16.132,43.033,23.905,62.968c32.746,83.956,48.869,170.932,48.737,261.071
		c-0.229,156.584,0.368,313.174-0.238,469.756c-0.345,89.725-79.729,151.943-165.553,131.141
		c-56.595-13.715-98.648-66.441-99.887-125.891C1606.269,1622.479,1606.703,1597.328,1606.703,1569.973z M998.804,810.268
		c191.739,0,383.478,0.017,575.217-0.016c39.147-0.007,47.11-11.053,33.894-47.058c-32.627-88.845-65.306-177.669-98.043-266.477
		c-12.745-34.564-29.639-46.362-66.325-46.379c-102.54-0.049-205.08-0.021-307.626-0.017c-193.142,0-386.286-0.021-579.428,0.017
		c-36.69,0.004-53.524,11.803-66.472,46.285c-4.93,13.132-9.724,26.313-14.572,39.474c-28.823,78.289-57.818,156.516-86.367,234.904
		c-9.001,24.711,0.197,37.942,26.08,39.189c5.607,0.267,11.234,0.078,16.854,0.078C620.943,810.268,809.874,810.268,998.804,810.268
		z M383.717,1246.537c57.2,0.012,104.272-47.42,103.965-104.758c-0.304-56.68-46.325-102.862-103.056-103.413
		c-57.419-0.56-104.95,46.272-105.121,103.573C279.336,1199.236,326.45,1246.529,383.717,1246.537z M1720.467,1142.922
		c0.296-57.312-46.721-104.502-104.178-104.561c-56.718-0.057-103.019,45.557-103.998,102.447
		c-0.984,57.271,45.758,105.264,102.964,105.729C1672.54,1247.002,1720.165,1200.1,1720.467,1142.922z"/>
	<path fill-rule="evenodd" clip-rule="evenodd" fill="none" d="M998.804,810.268c-188.93,0-377.86,0-566.789,0
		c-5.62,0-11.247,0.189-16.854-0.078c-25.883-1.247-35.081-14.478-26.08-39.189c28.549-78.388,57.543-156.615,86.367-234.904
		c4.848-13.161,9.642-26.342,14.572-39.474c12.948-34.482,29.782-46.28,66.472-46.285c193.142-0.037,386.286-0.017,579.428-0.017
		c102.546-0.004,205.086-0.032,307.626,0.017c36.687,0.017,53.58,11.815,66.325,46.379c32.737,88.807,65.416,177.632,98.043,266.477
		c13.217,36.005,5.254,47.05-33.894,47.058C1382.281,810.285,1190.543,810.268,998.804,810.268z"/>
	<path fill-rule="evenodd" clip-rule="evenodd" fill="none" d="M383.717,1246.537c-57.267-0.008-104.38-47.301-104.211-104.598
		c0.17-57.301,47.702-104.133,105.121-103.573c56.731,0.551,102.752,46.733,103.056,103.413
		C487.989,1199.117,440.917,1246.549,383.717,1246.537z"/>
	<path fill-rule="evenodd" clip-rule="evenodd" fill="none" d="M1720.467,1142.922c-0.302,57.178-47.927,104.08-105.212,103.615
		c-57.206-0.465-103.948-48.457-102.964-105.729c0.979-56.891,47.28-102.504,103.998-102.447
		C1673.746,1038.42,1720.763,1085.609,1720.467,1142.922z"/>
</g>
</svg>
