<?xml version="1.0" encoding="utf-8"?>
<!-- Generator: Adobe Illustrator 16.0.0, SVG Export Plug-In . SVG Version: 6.00 Build 0)  -->
<!DOCTYPE svg PUBLIC "-//W3C//DTD SVG 1.1//EN" "http://www.w3.org/Graphics/SVG/1.1/DTD/svg11.dtd">
<svg version="1.1" id="Layer_1" xmlns="http://www.w3.org/2000/svg" xmlns:xlink="http://www.w3.org/1999/xlink" x="0px" y="0px"
	 width="2000px" height="2000px" viewBox="0 0 2000 2000" enable-background="new 0 0 2000 2000" xml:space="preserve">
<path d="M1940.687,474.207c-68.077,30.307-141.355,50.656-218.25,59.932c78.479-47.042,138.526-121.673,167.134-210.332
	c-73.501,43.539-154.919,75.086-241.43,92.161c-69.316-73.836-168.15-119.979-277.392-119.979
	c-209.991,0-380.182,170.078-380.182,380.068c0,29.739,3.393,58.807,9.839,86.625c-315.896-15.949-596.112-167.134-783.487-397.03
	c-32.625,55.976-51.4,121.218-51.4,190.995c0,131.96,67.06,248.21,169.06,316.283c-62.308-1.808-120.882-18.996-172.169-47.485
	v4.854c0,184.105,131.063,337.779,304.756,372.611c-31.717,8.822-65.304,13.346-100.018,13.346c-24.538,0-48.285-2.262-71.47-6.785
	c48.285,151.068,188.738,260.986,354.911,263.932c-130.045,101.994-293.79,162.607-471.951,162.607
	c-30.586,0-60.837-1.578-90.689-5.195c168.264,107.873,368.024,170.75,582.71,170.75c699.187,0,1081.517-579.203,1081.517-1081.399
	c0-16.63-0.336-32.91-1.132-49.2C1825.341,617.365,1889.798,550.429,1940.687,474.207"/>
</svg>
