<?xml version="1.0" encoding="utf-8"?>
<!-- Generator: Adobe Illustrator 16.0.0, SVG Export Plug-In . SVG Version: 6.00 Build 0)  -->
<!DOCTYPE svg PUBLIC "-//W3C//DTD SVG 1.1//EN" "http://www.w3.org/Graphics/SVG/1.1/DTD/svg11.dtd">
<svg version="1.1" id="Layer_1" xmlns="http://www.w3.org/2000/svg" xmlns:xlink="http://www.w3.org/1999/xlink" x="0px" y="0px"
	 width="2000px" height="2000px" viewBox="0 0 2000 2000" enable-background="new 0 0 2000 2000" xml:space="preserve">
<path d="M910.207,1265.296c-88.417,97.781-175.366,100.436-266.951,7.775c-36.635,39.639-79.295,67.814-136.795,64.863
	c-56.248-2.883-96.333-32.297-129.655-76.695c-36.07,47.658-80.562,78.205-140.94,74.594c-11.573-0.688-28.483-11.385-32.626-21.639
	c-42.155-104.25-82.213-209.325-122.649-314.258c-1.954-5.063-1.98-10.864-4.312-24.647c289.633-7.121,576.72-14.178,870.625-21.407
	c-38.69-66.29-73.346-126.778-109.672-186.252c-3.813-6.266-17.361-8.961-26.504-9.203c-37.693-1.007-75.435-0.421-115.898-0.421
	v-86.309c9.17-1.175,19.033-3.402,28.922-3.561c179.212-2.91,358.445-5.224,537.646-8.768c21.04-0.414,33.018,5.834,43.709,24.112
	c45.812,78.298,93.76,155.343,139.612,233.618c11.238,19.184,23.782,26.871,46.479,26.076
	c148.033-5.158,296.121-8.92,451.275-13.339c-7.531,13.036-12.268,22.377-18.028,31.038
	c-64.892,97.533-129.581,195.216-195.044,292.364c-74.392,110.395-191.171,115.164-276.611,9.068
	c-35.174,42.861-77.288,74.648-135.28,74.498c-58.504-0.16-102.08-29.373-137.294-77.799
	c-34.475,45.314-75.812,76.156-132.674,77.639C990.311,1338.124,946.479,1311.362,910.207,1265.296 M986.726,757.749
	c40.294,64.538,75.907,122.025,112.227,179.058c3.706,5.817,11.763,12.804,17.678,12.686c83.041-1.614,166.062-4.373,254.485-7.013
	c-38.044-63.429-73.009-122.268-108.863-180.557c-3.483-5.663-12.585-11.355-18.958-11.224
	C1159.996,752.369,1076.727,755.094,986.726,757.749"/>
</svg>
