<?xml version="1.0" encoding="utf-8"?>
<!-- Generator: Adobe Illustrator 16.0.0, SVG Export Plug-In . SVG Version: 6.00 Build 0)  -->
<!DOCTYPE svg PUBLIC "-//W3C//DTD SVG 1.1//EN" "http://www.w3.org/Graphics/SVG/1.1/DTD/svg11.dtd">
<svg version="1.1" id="Layer_1" xmlns="http://www.w3.org/2000/svg" xmlns:xlink="http://www.w3.org/1999/xlink" x="0px" y="0px"
	 width="2000px" height="2000px" viewBox="0 0 2000 2000" enable-background="new 0 0 2000 2000" xml:space="preserve">
<g>
	<path fill="#010101" d="M1752.398,1737.59c-74.319-25.814-99.209-25.814-173.491,0c-76.403,26.666-106.772,26.666-184.257,0
		c-78.179-26.702-100.328-25.005-173.606,0c-77.793,26.666-107.854,26.666-184.257,0c-74.359-25.814-99.171-25.814-173.568,0
		c-76.405,26.666-106.773,26.666-184.296,0c-37.739-12.965-67.221-19.524-87.672-19.524c-19.217,0-48.081,6.56-85.935,19.524
		c-35.231,12.117-63.323,18.021-85.395,19.219v120.277l0.309,4.785c13.042-7.447,42.447-14.123,80.339-26.973
		c79.607-27.436,107.97-25.97,183.293,0c73.433,25.043,95.736,26.818,173.646,0c77.368-26.742,107.352-26.742,185.145,0
		c77.87,26.625,100.136,25.043,173.646,0c75.246-26.164,103.415-27.515,183.292,0c73.085,25.043,95.39,26.625,173.607,0
		c77.484-26.742,107.892-26.742,184.296,0c32.799,11.461,59.426,17.865,79.374,19.178v-123.944
		C1821.317,1758.158,1790.562,1750.98,1752.398,1737.59z"/>
	<path fill="#010101" d="M978.943,787.479c-28.053-28.053-42.1-62.127-42.1-102.335c0-40.016,14.084-74.051,42.1-102.258
		c28.053-28.247,62.088-42.138,102.489-42.138c39.938,0,74.051,13.891,102.22,42.138c28.131,28.207,42.022,62.281,42.022,102.258
		c0,40.208-13.892,74.282-42.022,102.335c-28.169,28.208-62.281,42.292-102.22,42.292
		C1041.031,829.733,1006.996,815.687,978.943,787.479z"/>
</g>
<g>
	<path fill="#010101" d="M1957.765,1502.513c0,0.038-108.124-150.607-108.124-150.607l-303.571-59.155
		c9.029-12.311,14.625-27.476,14.625-44.03V944.494c0-41.058-33.302-74.398-74.396-74.398l-297.397-0.077l83.851,148.949h139.071
		v202.934l-306.388-248.003V870.019h-62.937v52.865L644.657,600.598v-38.857c0-41.058-33.34-74.397-74.437-74.397
		c-17.287,0-32.992,6.135-45.649,16.052L385.384,390.603l38.627-35.385L274.251,171.81L86.946,124.54
		c-20.066-4.129-32.569-7.911-44.84,4.746c-14.856,15.281-10.843,57.149,14.818,77.948l438.86,355.202v382.097
		c0,41.135,33.302,74.475,74.436,74.475h271.813v319.161c-90.759,57.996-173.569,132.433-175.382,211.731
		c-0.501,22.342,11.963,64.596,28.942,111.21c65.328,20.838,97.125,19.217,167.625-5.402c74.397-25.854,99.17-25.854,173.567,0
		c76.404,26.625,106.503,26.625,184.258,0c73.277-25.004,95.428-26.741,173.606,0c24.041,8.22,43.335,13.621,61.008,16.786
		c19.102-50.975,33.688-98.478,33.146-122.594c-3.473-149.259-292.457-281.035-383.37-318.852v-175.189l720.629,583.141
		c5.904,4.708,15.396,6.212,20.76,5.286c5.287-0.887,6.521-1.736,14.084-7.525c30.602-23.307,96.509-83.118,101.565-89.408
		C1973.585,1533.653,1971.501,1513.588,1957.765,1502.513z M644.657,870.097V682.868l231.218,187.19L644.657,870.097z
		 M1042.498,1234.211c-34.074,14.471-88.714,39.244-146.133,71.504v-261.974l51.399-115.57l94.771,76.751v229.289H1042.498z"/>
</g>
</svg>
