<?xml version="1.0" encoding="utf-8"?>
<!-- Generator: Adobe Illustrator 16.0.0, SVG Export Plug-In . SVG Version: 6.00 Build 0)  -->
<!DOCTYPE svg PUBLIC "-//W3C//DTD SVG 1.1//EN" "http://www.w3.org/Graphics/SVG/1.1/DTD/svg11.dtd">
<svg version="1.1" id="Layer_1" xmlns="http://www.w3.org/2000/svg" xmlns:xlink="http://www.w3.org/1999/xlink" x="0px" y="0px"
	 width="2000px" height="2000px" viewBox="0 0 2000 2000" enable-background="new 0 0 2000 2000" xml:space="preserve">
<path fill="#010101" d="M1001,8.756C453.465,8.756,9.772,452.509,9.772,999.984c0,547.475,443.693,991.229,991.228,991.229
	c547.495,0,991.228-443.754,991.228-991.229C1992.228,452.509,1548.495,8.756,1001,8.756z M1479.188,1523.273
	c-16.216,11.795-35.01,22.977-55.567,33.722c-5.075,21.053-10.745,41.294-16.375,61.139
	c-49.146,55.409-107.212,104.534-166.646,144.144c-1.13,0.793-1.785,1.686-2.835,2.498c-43,15.482-87.347,28.23-133.102,36.478
	c38.143-63.181,78.664-156.813,117.024-268.386c-24.682-20.082-50.573-41.453-77.95-64.607
	c-10.448-51.564-21.529-106.24-33.86-162.959c18.396-28.309,36.298-56.776,54.2-84.928c-15.384,2.558-30.887,5.334-46.608,7.831
	c-21.152-29.122-43.099-59.058-65.6-89.052c-19.447-10.189-39.134-20.757-58.819-30.967c-46.31-17.683-93.077-35.764-139.009-53.248
	c-36.854-60.684-72.598-120.851-106.716-178.283c-20.399-41.393-40.005-81.637-58.304-120.038
	c3.053-52.912,6.621-104.375,10.804-152.768c-28.488-50.83-54.617-96.169-77.435-136.81c-34.277-14.848-66.055-27.338-95.396-38.895
	c-22.024,15.998-43.256,33.344-62.605,51.306c-35.149,30.431-65.025,63.657-85.919,98.805
	c13.718-30.806,31.402-60.563,52.456-88.952c-11.617,1.705-22.363,3.469-32.532,5.393c-2.895-18.16-5.81-36.557-9.496-54.934
	c13.301-20.321,28.15-39.689,44.842-57.65c-14.908,2.24-29.042,4.421-42.9,7.256c3.133-14.393,6.602-28.171,10.329-41.968
	c11.26-2.498,22.719-5.452,34.277-7.871c-4.52-7.671-9.754-15.74-14.909-24.126c31.521-25.673,65.165-48.907,100.016-69.861
	c49.779,21.925,97.1,36.398,148.763,51.147c26.268-14.749,52.734-26.624,78.644-35.823c43.635,11.518,90.182,23.313,140.597,39.055
	c101.005-6.225,201.18-6.066,295.167-2.895c6.443,25.633,11.617,58.145,16.613,96.545c-40.006,0.258-81.459,2.102-124.221,4.917
	c-7.751,16.118-16.138,32.651-24.603,50.969c44.051,38.261,89.052,81.876,133.399,128.74c10.032,0,20.42,0,30.352,0
	c4.342-51.305,7.871-98.667,10.07-140.774c25.634,3.073,50.573,6.641,74.699,10.408c13.145,26.942,26.129,54.934,38.42,84.394
	c11.697-4.381,23.135-8.564,34.039-12.589c31.7,66.372,59.87,139.07,82.747,211.488c-28.309,8.883-61.535,19.687-99.359,32.91
	c-29.044,13.561-60.685,28.567-94.861,44.705c-26.229,36.854-54.795,75.829-84.571,116.311c-0.317,21.054-0.455,42.028-0.714,63.498
	c-10.725,1.209-21.788,2.161-33.048,3.628c-7.751-23.234-15.344-46.568-23.095-69.625c-43.237,4.599-87.981,9.754-133.182,15.305
	c-10.566,27.754-20.994,56.005-31.7,83.977c11.359,17.088,22.74,34.059,34.099,51.228c16.812-13.145,33.721-26.308,50.692-38.976
	c16.375,1.942,33.146,4.044,49.104,6.065c-8.287,23.414-17.228,46.707-25.712,70.001c19.428,1.943,38.796,3.568,58.166,4.838
	c5.808,24.859,11.615,49.62,17.107,74.144c12.509,4.36,25.098,8.544,37.33,12.667c9.793-15.661,19.467-31.223,28.982-46.944
	c60.426,6.285,116.47,11.797,164.564,15.722c31.283,28.804,58.8,55.429,82.034,78.901c2.677,21.45,4.916,42.82,7.077,63.716
	c29.162,15.166,50.989,26.367,65.283,34.06C1513.961,1404.781,1498.894,1464.553,1479.188,1523.273z"/>
</svg>
